<svg width="17" height="18" viewBox="0 0 17 18" fill="none" xmlns="http://www.w3.org/2000/svg">
<path fill-rule="evenodd" clip-rule="evenodd" d="M8.6 1.79688C5.50721 1.79688 3 4.59868 3 7.74687C3 10.8704 4.78733 14.2656 7.57595 15.569C8.22602 15.8728 8.97398 15.8728 9.62405 15.569C12.4127 14.2656 14.2 10.8704 14.2 7.74687C14.2 4.59868 11.6928 1.79688 8.6 1.79688ZM8.6 8.79688C9.3732 8.79688 10 8.17007 10 7.39687C10 6.62368 9.3732 5.99687 8.6 5.99687C7.8268 5.99687 7.2 6.62368 7.2 7.39687C7.2 8.17007 7.8268 8.79688 8.6 8.79688Z" fill="#E62D18"/>
</svg>
