<?xml version="1.0" encoding="UTF-8" standalone="no"?>
<!-- Created with Inkscape (http://www.inkscape.org/) -->

<svg
   version="1.1"
   id="svg2"
   width="377.95334"
   height="377.95334"
   viewBox="0 0 377.95334 377.95334"
   sodipodi:docname="Al RAGHAD Logo - c.ai"
   xmlns:inkscape="http://www.inkscape.org/namespaces/inkscape"
   xmlns:sodipodi="http://sodipodi.sourceforge.net/DTD/sodipodi-0.dtd"
   xmlns="http://www.w3.org/2000/svg"
   xmlns:svg="http://www.w3.org/2000/svg">
  <defs
     id="defs6">
    <clipPath
       clipPathUnits="userSpaceOnUse"
       id="clipPath16">
      <path
         d="M 0,283.465 H 283.465 V 0 H 0 Z"
         id="path14" />
    </clipPath>
  </defs>
  <sodipodi:namedview
     id="namedview4"
     pagecolor="#ffffff"
     bordercolor="#000000"
     borderopacity="0.25"
     inkscape:showpageshadow="2"
     inkscape:pageopacity="0.0"
     inkscape:pagecheckerboard="0"
     inkscape:deskcolor="#d1d1d1" />
  <g
     id="g8"
     inkscape:groupmode="layer"
     inkscape:label="Al RAGHAD Logo - c"
     transform="matrix(1.3333333,0,0,-1.3333333,0,377.95333)">
    <g
       id="g10">
      <g
         id="g12"
         clip-path="url(#clipPath16)">
        <g
           id="g18"
           transform="translate(114.7072,183.7691)">
          <path
             d="m 0,0 c 0,0 20.54,0.058 46.33,-0.072 1.935,-0.011 3.505,2.255 2.686,4.123 -0.347,0.792 -0.956,1.252 -1.855,1.255 -0.237,0 -0.473,0 -0.71,0 -29.531,0 -59.062,0 -88.593,0 h -1.247 c 4.278,4.345 8.377,8.516 12.486,12.678 0.97,0.983 2.238,1.114 3.521,1.117 5.085,0.011 10.169,0.005 15.253,0.005 21.048,0 42.095,10e-4 63.142,-0.001 2.165,0 4.311,-0.208 6.292,-1.133 3.727,-1.74 5.922,-4.606 6.315,-8.781 0.591,-6.284 -0.455,-12.255 -3.482,-17.806 -1.494,-2.739 -3.553,-4.982 -6.756,-5.821 -0.733,-0.192 -1.495,-0.269 -2.252,-0.275 -3.286,-0.028 -6.573,-0.011 -9.86,-0.011 h -1.126 l 43.505,-42.77 c -0.851,0 -1.448,-0.001 -2.046,0 -5.941,0.018 -11.882,0.055 -17.823,0.04 -1.275,-0.004 -2.288,0.447 -3.156,1.317 -7.494,7.507 -14.989,15.014 -22.475,22.529 -6.256,6.28 -18.765,18.844 -18.765,18.844 h -7.138 c 0,0 -3.689,-13.21 -5.403,-19.396 -2.252,-8.133 -4.504,-16.267 -6.757,-24.401 -0.021,-0.078 -0.06,-0.152 -0.088,-0.222 -0.078,0.006 -0.155,-0.012 -0.186,0.018 -3.646,3.538 -7.285,7.083 -10.934,10.618 -1.518,1.471 -1.809,3.163 -1.211,5.17 2.008,6.742 3.958,13.501 5.908,20.26 z"
             style="fill:#231f20;fill-opacity:1;fill-rule:nonzero;stroke:none"
             id="path20" />
        </g>
        <g
           id="g22"
           transform="translate(136.2067,222.7802)">
          <path
             d="M 0,0 C 0.118,-0.152 0.165,-0.227 0.226,-0.289 4.007,-4.07 7.78,-7.86 11.589,-11.613 c 0.286,-0.282 0.83,-0.422 1.255,-0.424 5.468,-0.028 10.937,0.033 16.404,-0.045 1.985,-0.029 3.996,-0.213 5.943,-0.592 4.885,-0.949 8.746,-3.516 11.649,-7.598 2.476,-3.482 3.225,-7.437 3.379,-11.545 0.172,-4.553 -0.644,-9.002 -1.97,-13.339 -1.412,-4.617 -3.635,-8.804 -7.3,-12.058 -1.3,-1.154 -2.809,-2.073 -4.245,-3.117 3.254,-3.175 6.59,-6.43 10.141,-9.894 2.349,2.431 4.657,4.881 7.031,7.266 5.981,6.011 11.993,11.991 17.987,17.988 0.902,0.902 1.666,1.837 1.696,3.257 0.031,1.48 -0.673,2.517 -1.63,3.473 -4.79,4.779 -9.59,9.545 -14.378,14.326 -9.095,9.08 -18.18,18.171 -27.277,27.249 -3.618,3.61 -7.228,7.226 -10.901,10.779 -1.621,1.568 -3.849,1.435 -5.448,-0.161 C 9.47,9.507 5.02,5.057 0.569,0.608 0.385,0.423 0.212,0.227 0,0 m 31.686,-58.995 c 3.655,0.593 6.493,2.285 8.819,4.885 3.593,4.016 5.389,8.844 6.433,14.035 0.631,3.139 0.812,6.303 0.682,9.483 -0.322,7.83 -5.271,13.773 -12.846,15.482 -1.734,0.391 -3.556,0.523 -5.339,0.543 -5.882,0.065 -11.766,0.032 -17.648,0.012 -0.577,-0.002 -0.977,0.167 -1.383,0.575 -4.649,4.668 -9.317,9.318 -14.024,14.016 0.172,0.18 0.321,0.343 0.478,0.499 5.058,5.055 10.115,10.111 15.176,15.163 2.689,2.686 6.715,2.698 9.389,0.026 17.601,-17.585 35.202,-35.171 52.801,-52.758 2.536,-2.535 2.547,-6.578 0.019,-9.105 -8.965,-8.962 -17.933,-17.921 -26.902,-26.881 -0.185,-0.185 -0.38,-0.361 -0.629,-0.596 -4.984,4.849 -9.949,9.68 -15.026,14.621"
             style="fill:#e42f26;fill-opacity:1;fill-rule:nonzero;stroke:none"
             id="path24" />
        </g>
        <g
           id="g26"
           transform="translate(105.9107,181.1308)">
          <path
             d="m 0,0 h -1.116 c -7.476,0 -14.955,-0.11 -22.427,0.063 -2.429,0.057 -4.184,-0.549 -5.718,-2.415 -1.316,-1.603 -1.442,-2.939 0.025,-4.405 6.874,-6.87 13.748,-13.739 20.624,-20.607 0.222,-0.222 0.461,-0.427 0.778,-0.72 C -5.209,-18.673 -2.62,-9.394 0,0 m 3.305,2.581 c -3.325,-11.915 -6.604,-23.665 -9.907,-35.503 -0.261,0.242 -0.456,0.413 -0.639,0.595 -7.943,7.934 -15.886,15.868 -23.827,23.804 -2.361,2.359 -2.377,5.486 -0.033,7.855 1.059,1.071 1.969,2.524 3.258,3.067 1.285,0.541 2.959,0.178 4.463,0.179 8.512,0.007 17.025,0.003 25.537,0.003 z"
             style="fill:#442f85;fill-opacity:1;fill-rule:nonzero;stroke:none"
             id="path28" />
        </g>
        <g
           id="g30"
           transform="translate(125.5874,134.7542)">
          <path
             d="M 0,0 C 5.277,5.28 10.502,10.508 15.748,15.756 12.8,18.656 9.785,21.623 6.721,24.638 4.487,16.451 2.247,8.238 0,0 M 19.555,15.76 C 19.198,15.379 19.024,15.181 18.837,14.995 12.357,8.523 5.875,2.054 -0.604,-4.418 c -1.015,-1.014 -2.188,-1.66 -3.637,-1.677 3.126,11.47 6.239,22.9 9.357,34.328 0.245,0.9 0.876,1.004 1.618,0.256 3.767,-3.794 7.523,-7.599 11.294,-11.39 0.455,-0.458 0.972,-0.855 1.527,-1.339"
             style="fill:#442f85;fill-opacity:1;fill-rule:nonzero;stroke:none"
             id="path32" />
        </g>
        <g
           id="g34"
           transform="translate(108.7503,210.8138)">
          <path
             d="m 0,0 h 24.491 c -0.303,0.327 -0.492,0.546 -0.697,0.751 -3.112,3.112 -6.225,6.225 -9.341,9.334 -1.417,1.414 -2.902,1.42 -4.323,0.007 C 7.617,7.591 5.114,5.08 2.605,2.576 1.793,1.766 0.974,0.963 0,0 m 30.664,-2.554 h -36.67 c 0.184,0.229 0.299,0.406 0.446,0.553 4.638,4.638 9.272,9.278 13.921,13.905 2.397,2.385 5.513,2.354 7.917,-0.047 4.598,-4.593 9.195,-9.188 13.792,-13.783 0.161,-0.16 0.313,-0.33 0.594,-0.628"
             style="fill:#442f85;fill-opacity:1;fill-rule:nonzero;stroke:none"
             id="path36" />
        </g>
        <g
           id="g38"
           transform="translate(140.9653,134.8232)">
          <path
             d="m 0,0 c 3.125,-3.13 6.297,-6.346 9.519,-9.513 1.175,-1.155 3.606,-1.228 4.808,-0.099 1.934,1.815 3.762,3.744 5.543,5.534 C 15.847,-0.063 11.841,3.936 7.886,7.885 5.301,5.3 2.657,2.657 0,0 M -3.665,0.026 C 0.213,3.903 4.072,7.761 7.757,11.445 12.999,6.334 18.275,1.19 23.681,-4.08 23.189,-4.524 22.76,-4.878 22.367,-5.268 c -1.907,-1.893 -3.803,-3.798 -5.706,-5.695 -2.624,-2.615 -6.713,-2.633 -9.322,-0.033 -3.535,3.522 -7.063,7.052 -10.593,10.58 -0.164,0.164 -0.316,0.34 -0.411,0.442"
             style="fill:#e42f26;fill-opacity:1;fill-rule:nonzero;stroke:none"
             id="path40" />
        </g>
        <g
           id="g42"
           transform="translate(51.4373,83.2834)">
          <path
             d="M 0,0 2.86,-6.71 H 8.58 L -2.77,20.12 H -8.4 L -19.71,-6.71 h 5.84 L -11.04,0 h 7.25 l -1.72,4.62 h -3.67 l 3.67,8.72 3.7,-8.72 z"
             style="fill:#231f20;fill-opacity:1;fill-rule:nonzero;stroke:none"
             id="path44" />
        </g>
        <g
           id="g46"
           transform="translate(90.0273,91.8733)">
          <path
             d="M 0,0 V -15.3 H 5.72 V -4.53 H 8.9 c 1.51,0 5.03,0 6.74,-1.51 1.26,-1.08 1.4,-2.9 1.52,-4.37 0.04,-0.52 0.08,-1.02 0.17,-1.44 0.01,-0.36 0.09,-1.68 0.69,-2.97 l 0.23,-0.48 h 6.07 l -0.41,1.08 c -0.32,0.85 -0.43,2.74 -0.46,3.48 l -0.02,0.21 c -0.41,3.05 -0.71,5.37 -3.74,7.46 1.32,0.5 2.48,1.26 3.41,2.81 1.38,2.28 1.38,5.36 0,7.66 -2.28,3.76 -7.31,3.76 -9.73,3.76 H 0 V 6.85 H 6.61 V 6.84 h 5.63 l 0.75,0.01 c 1.52,0 3.65,-0.17 4.55,-1.6 0.6,-0.98 0.58,-2.71 -0.06,-3.7 -0.88,-1.37 -2.45,-1.56 -4,-1.56 L 12.52,0 H 6.61 Z"
             style="fill:#231f20;fill-opacity:1;fill-rule:nonzero;stroke:none"
             id="path48" />
        </g>
        <g
           id="g50"
           transform="translate(71.1248,76.5719)">
          <path
             d="m 0,0 c -3.03,0 -6.181,0.339 -8.699,2.794 -2.328,2.328 -2.328,5.871 -2.328,7.573 v 16.46 h 5.814 V 10.307 L -5.217,9.772 C -5.234,8.389 -5.252,6.957 -4.368,6.03 -3.202,4.793 -0.938,4.793 0.278,4.793 L 6.404,4.794 V 0 Z"
             style="fill:#231f20;fill-opacity:1;fill-rule:nonzero;stroke:none"
             id="path52" />
        </g>
        <g
           id="g54"
           transform="translate(87.4673,92.2334)">
          <path
             d="M 0,0 -9.843,0.05 V -4.54 H 0.02 Z"
             style="fill:#231f20;fill-opacity:1;fill-rule:nonzero;stroke:none"
             id="path56" />
        </g>
        <g
           id="g58"
           transform="translate(135.3173,83.2633)">
          <path
             d="M 0,0 2.85,-6.69 H 8.63 L -2.71,20.14 H -8.38 L -19.69,-6.69 h 5.9 L -10.97,0 h 7.29 l -1.74,4.68 h -3.66 l 3.61,8.58 3.64,-8.58 z"
             style="fill:#231f20;fill-opacity:1;fill-rule:nonzero;stroke:none"
             id="path60" />
        </g>
        <g
           id="g62"
           transform="translate(156.6595,76.5724)">
          <path
             d="m 0,0 c -3.927,0 -8.277,0.608 -10.771,5.122 -2.338,4.248 -2.192,12.723 0.289,16.793 2.775,4.532 7.086,4.911 11.262,4.911 H 10.967 V 22.153 L 0.611,22.155 c -2.503,0 -4.531,-0.202 -5.964,-2.75 C -6.882,16.708 -6.884,9.893 -5.358,7.248 -3.851,4.671 -1.338,4.454 1.106,4.454 l 1.385,0.009 h 2.902 v 6.854 h -7.685 v 4.672 H 10.967 L 10.967,0 Z"
             style="fill:#231f20;fill-opacity:1;fill-rule:nonzero;stroke:none"
             id="path64" />
        </g>
        <g
           id="g66"
           transform="translate(188.2935,76.6207)">
          <path
             d="M 0,0 V 11.125 H -10.176 V -0.013 h -5.844 v 26.826 h 5.844 V 15.918 H 0 V 26.813 H 5.844 V -0.084 Z"
             style="fill:#231f20;fill-opacity:1;fill-rule:nonzero;stroke:none"
             id="path68" />
        </g>
        <g
           id="g70"
           transform="translate(213.5473,103.4034)">
          <path
             d="m 0,0 h -5.66 l -11.31,-26.83 h 5.9 l 2.82,6.69 h 7.55 l -1.73,4.68 h -3.93 l 3.61,8.58 3.64,-8.58 1.83,-4.68 2.85,-6.69 h 5.78 z"
             style="fill:#231f20;fill-opacity:1;fill-rule:nonzero;stroke:none"
             id="path72" />
        </g>
        <g
           id="g74"
           transform="translate(244.9673,84.2033)">
          <path
             d="m 0,0 c -1.49,-2.67 -3.51,-2.88 -5.99,-2.88 h -6.25 v 17.27 h 6.7 c 2.14,0 4.17,-0.2 5.51,-2.65 C 1.55,8.86 1.56,2.82 0,0 m 4.94,13.85 c -2.8,5.33 -6.62,5.33 -10,5.33 h -12.48 v -26.8 h 11.78 c 2.54,0 7.83,0 10.7,5.26 2.44,4.5 2.44,11.62 0,16.21"
             style="fill:#231f20;fill-opacity:1;fill-rule:nonzero;stroke:none"
             id="path76" />
        </g>
      </g>
    </g>
    <text
       xml:space="preserve"
       transform="matrix(1,0,0,-1,34.1772,55.5674)"
       style="font-variant:normal;font-weight:500;font-stretch:normal;font-size:14.689px;font-family:OPTIHandelGothic-Light;-inkscape-font-specification:OPTIHandelGothic-Light;writing-mode:lr-tb;fill:#231f20;fill-opacity:1;fill-rule:nonzero;stroke:none"
       id="text80"><tspan
         x="0 4.1422982 16.936417 28.702307 39.954079 52.234085 65.028206 78.659592 90.425484 94.56778 108.0229 120.81702 134.44841 143.92282 148.06512 160.41856 172.69858 186.1537 198.94781"
         y="0"
         sodipodi:role="line"
         id="tspan78">INTERNATIONAL GROUP</tspan></text>
  </g>
</svg>
