<svg width="1350" height="913" viewBox="0 0 1350 913" fill="none" xmlns="http://www.w3.org/2000/svg">
<mask id="mask0_1255_3613" style="mask-type:luminance" maskUnits="userSpaceOnUse" x="0" y="0" width="1350" height="913">
<path d="M1350 0H0V913H1350V0Z" fill="white"/>
</mask>
<g mask="url(#mask0_1255_3613)">
<path d="M1460.41 -60.0917L1256.36 -264.141C1235.45 -285.05 1201.55 -285.05 1180.64 -264.141L954.86 -38.36C933.951 -17.4512 933.951 16.4488 954.86 37.3577L1158.91 241.407C1179.82 262.316 1213.72 262.316 1234.63 241.407L1460.41 15.6261C1481.32 -5.28277 1481.32 -39.1828 1460.41 -60.0917Z" stroke="#E52F27" stroke-width="2.9" stroke-miterlimit="10"/>
<path d="M1465.75 55.6358L1296.92 -113.185C1288.02 -122.092 1273.58 -122.092 1264.67 -113.185L1080.29 71.1911C1071.39 80.0979 1071.39 94.5387 1080.29 103.445L1249.11 272.267C1258.02 281.173 1272.46 281.173 1281.37 272.267L1465.75 87.8901C1474.65 78.9833 1474.65 64.5426 1465.75 55.6358Z" stroke="#442F85" stroke-width="2.9" stroke-miterlimit="10"/>
</g>
</svg>
