<?xml version="1.0"?>
    

<svg baseprofile="tiny" fill="#6f9c76" height="700" stroke="#ffffff" stroke-linecap="round" stroke-linejoin="round" stroke-width=".5" version="1.2" viewbox="0 0 1000 1000" width="700" xmlns="http://www.w3.org/2000/svg">
 <g id="features">
  <path d="M536.7 52.6l-0.4 1.6 0.3 0.6 0.3 0.1 0.2 0.2 0.2 0.5 0.1 0.2 0.1 0.1 0.2 0.1 0.2 0.1 0.2 0.2 0.3 0.1 0.1 0.3 0 0.4-0.8 1.7-0.3 0.7 0 0.5 0 0.4 0.1 0.7 0.1 0.7 0.2 0.3 0.2 0.2 0.4 0.1 0.5 0 0.2 0.1 0.2 0.2 0.2 1.3 0 0.4-0.1 0.3-1 0.5-1 0.8-0.7 0.7-1.1 1.4-0.3 0.7 0 0.4 0.4 0.8-0.2 0.4-0.5 0.3-1.1 0.5-1.9 1-0.5 0.5-1.4 1.9-0.4 0.6-0.5 0.5-0.7 0.5-1.7 0.8-0.7 0.3-0.4 0.2 0.1 0.4 0.2 0.2 0 0.3-0.4 0.2-3.4 1.4-1.6 0.9-0.6 0.5-0.3 0.7-0.4 1.2-0.3 0.6-0.5 0.4-0.7 0.2-1.3 0.6-1.8 2.1-2.8-0.7-2.6-1.1-6.4-1.1-1-0.3-1.7-0.9-0.4-0.1-0.4-0.1-0.3 0.1-0.3 0.3-0.4 0.4-0.3 0.4-0.4 0.9-0.1 0.4 0 0.4-0.1 0.9-0.3 0.9-0.3 0.9 0 0.4 0 0.4 0 0.4 0.3 0.5 0 0.3 0.2 0.3 0.2 0.4 0.9 0.7 0.5 0.2 0.5 0.2 1.3 0 0.7 0.2 0.8 0.4 1.5 0.5 0.6 0.1 0.5 0.2 0.3 0.4 0.2 0.5 0.1 0.6 0.1 0.5 0 0.6-0.2 0.5-0.8 1.6-0.4 0.5-0.4 0.3-0.5 0.2-0.1 0.2 0.2 0.7 0.1 0.4 0 0.3 0 0.3 0 0.3 0.1 0.6 0 0.3 0.1 0.4 0 0.6-0.1 0.7-0.4 1.3-0.3 0.3-0.4 0-0.3-0.2-1.5-0.5-0.9 0.2-0.6 0.3-0.3 0.4-0.2 0.6 0 0.7-0.1 0.5-0.2 0.5-0.7 0.1-1.3-0.3-13.2-3.6-2.9-1.4-1.6-1.5-2.8-2-1.2-1.3-1.5-1.2-1.3-0.7-3.5-0.4-1.5 0.5-1.3 1-0.6 1.1-2.8 3.4-2.7 4.5-0.8 2.6-0.9 2-0.4 1.8-1.3 1-3.1 1.5-3.7 0.4-11.9 1.6-7.5 4.2-1.1-0.3-1.3 0.1-1.1 0.2-0.9 0.6-0.7 1.4-0.8-1.8-0.5-0.7-0.6-0.6-1.4-0.7-0.7 0-3.2 1.6-1 0-0.6-0.9 0.2-0.9 0.9-0.6 2-0.8-0.8-0.9-0.7-0.2-0.7-0.1-0.9-0.4-1.6-1.5-2.8-3.1-0.8-0.6-1.1-0.2-0.8 0.2-0.5 0.5-0.4 0.5-0.5 0.2-3.8 0-1.5-0.8-1.2-3.5-1.6-1.1-2.8-1.5-1.8 0.7-1-0.9 0.4-1.2 2.4-0.2-1-1.9-0.8-0.8-0.2-1.1 0.7-2.5-1.5-0.3-0.1-1.9 0.4-2.3 0-1.7-1.8 2-1.6 0.1-1.6-1.2-3.5-3.5-1.5-2.4-1.3-2.7-0.6-2.5 0-1.7-0.6-1.3-0.6-1.1-0.6-1.4 4-0.5 5.3-1.7 7.8-1.3 1.5-0.7 0.3-0.6 1.1-3.1 11.5-16.8 0.3-0.9 0.2-0.8 0.1-0.8 0.6-0.9 0.6-0.4 4.5-1.9 0.8 0 1.1 0.1 0.8 0.6 0.4 2 0.8 0.6 7.6 2.5 3.6 0.5 3.9-1.3 2.4-1.8 3.5-1.5 3.6-1 2.9-0.2 1.5 0.4 12 6.5 0.7 0.2 0.7 0.1 0.8-0.1 0.9-0.9 0.8-0.4 1.7-0.2 1.1 0.2 2.4 1.9 1.2 0.9 3.8 1.9 4.2 3.5 1.5 0.6 1.2-0.1 2.2-0.9 1.2-0.2 1.1 0.2 0.8 0.4 1.6 1.3 2.4 0.9 2.2 0.3 9.3-0.6 2.4 0.2 2.2 0.5 0.9 0.7 1.9 1.9 0.7 0.4 1.2-0.3 1.6-1.7 4.9-0.9 2.8-3.2 2.7-3.9 3.3-2.9 4.2-0.7 3 0.6z" id="IQDA" name="Dihok">
  </path>
  <path d="M536.7 52.6l1.8 0.2 8.8 3.7 2 1.4 1.5 1.5 1.1 2 0.8 2.6 0.4 2.5 0.1 1.5-0.1 1.1-0.7 1.3-0.9 0.4-1.1 0.2-1.2 0.7-1.5 2-0.8 2.3 0 2.5 0.7 2.3 3.6 8.4 0.6 1.2 0.8 0.7 3.8 0.9 1.2-0.1 0.8-0.8 0.9-1.9 1.4-2.5 0.3-1.8 0.8-1.2 7.7-2.6 2.4-1.3 2.3-1.8 2.2-2.8 3.3-3.1 3.5-2.6 3-1.4 1.7-0.1 9.6 1.4 1.8 0.9 1.1 2-1.2 3.3 0 1.1 0.7 2 0.5 0.8 0.7 0.3 0.7 0.2 0.6 0.5 0.4 0.7 0.5 1.8 0.4 0.5 0.8 0.2 1.8-0.5 0.9-0.1 0.6 0.4 1.1 1.1 2 1.1 0.6 1-0.2 1.2-1 1.3-0.5 3 0.5 2.1 0.9 1.8 0.4 2.6-0.5 2.7-1.2 2.1-3.3 4-1 2.8 0.8 2 1.8 1.2 2.4 0.5 2.8-0.1 1.3 0.2 1.2 1 0.8 1 0.9 0.7 1.1 0.3 1.2 0.1 1.5 0.8 1.4 1.8 2.2 4.1 1 2.5-0.2 2.1-1.8 4.1-0.9 3.9-0.1 2.4-0.3 0.2-1.1 0.5-0.4 0.3-0.2 1.8 1.3 1.7 0.3 0.3-0.3 1.1-0.5 1.1-1.3 1.9-1 0.7-1.3 0.5-3.2-0.2-3.9-1-1.8 0-2 0.5-4.8 2.4-4 1-4.1 0.7-2.7-0.8-1.5-0.2-1.9 0.6-2.8 2.2-1.7 2-1 1.5-3.1 2.7 0 2.4 0.5 1.3 5.3 8.1 0.9-1.1 0.6-0.4 0.9 0 0.9 0.8 4.6 5.6 0.5 0.8 0.3 1-0.9 0.9-2.1 1-0.7 0.6-0.5 0.9-0.5 0.7-0.7 0.8-2 1.5 0.4 1.5 0.5 1 9.2 6.6 2.1 0.9 1.1 0.7 0.8 0.7 6.7 8.1 2.9 2.7 2.3 1.6 6.2 3.1 0.6 0.7 0.1 0.4 0 0.3 0 0.2-0.2 0.3-0.2 0.7-0.1 0.3-0.6 0.4-0.7 0.3-0.9 0.1-2.1 0-0.9-0.3-0.5-0.3-0.2-0.2-0.2-0.2-0.2-0.1-0.4-0.5-0.3-0.2-0.4 0-1 0.1-0.3-0.1-0.6-0.2-0.3 0-0.7 0.1-0.3 0.2-0.1 0.3 1 1.8 0.1 0.3-0.5 0.7-1.4 0.5-0.9 0.9-0.2 0.1-0.3-0.2-0.2-0.6 0-1.7-0.2-0.3-0.3-0.2-0.3-0.1-0.3 0-0.4 0.3-0.3 0.4-0.1 0.3-0.1 0.8-0.1 0.4-0.3 0.2-0.4 0-0.7-0.6-0.4-0.5-0.4-0.5-0.4-0.1-0.5-0.1-0.8 0.3-0.5 0.3-0.5 0.2-0.5 0-0.5-0.5-0.5-0.7-0.5-0.2-0.7 0-2.2 0.7-0.5 0.1-0.5-0.1-0.3-0.5 0-0.3 0-0.3 0-0.3-0.2-0.2-0.3-0.2-0.3 0-1.1 0.6-0.3 0-0.4-0.3-0.2-0.4-0.4-0.2-0.3 0-1.7 0.7-0.5-0.9 0-1.1-0.3-0.4-0.3-0.1-1 0.5-0.4 0.3-0.3 0.4-0.3 0.9-0.3 0.5-0.8 0.6-0.5 0.6-0.4 0.5-0.5 0.5-0.3-0.1-1-0.6-0.4 0.1-0.3 0.3-0.1 0.3 0.1 0.4 0.1 0.4 0.1 0.3-0.2 0.6-0.3 0-0.4-0.2-0.5-0.9-0.4-0.4-0.7-0.2-0.5 0.2-0.8 0.4-0.4 0.1-0.3-0.2-0.3-0.3-2-0.6-1.9 1.1-0.8 0-1.2-0.2-0.6 0.1-0.5 0.4-0.4 0.4-0.5 0.3-1.7 0.7-0.3 0.2-0.5 1-0.3 0.1-0.3-0.1-0.4-0.2-1.4-0.2-0.6-0.2-1.1-0.6-0.3 0-0.5 0.8-0.5 0.4-1.3 0.7-0.9 0.3-0.8 0-0.5-0.1-1.7-0.9-2-0.4-5-0.9-1.6 0.3-2.1 0.8-1.3 3.6-0.8 1.6-0.8 0.6-2 0.3-3.4 0.2-9.6-7-2.1-0.7-1.4 0.2-0.9 2.5-6.6 7.2-5.6 4.7-0.6 1 0.1 0.7 0.6 0.5 2 2.3 0.5 1 0.4 1.1 0 1.2-0.8 1-1.2 1.1-1.4 1.8-0.6 1.3-0.5 2.8-1 3.3-0.9 1.2-0.9 0.4-2 0.2-3 1.8-3 0.3-2-0.1-1.3 0.6-0.9 1.2-1 3.2-0.8 1.4-1.5 0.8-1.8 0.3-3.9 0.2-1.4 0.4-1.8 1.6-0.9 0.2-1 0-1.9-0.5-0.9-0.5-4.1-2.6 0.7-0.2 0.3-0.1 0.2-0.3 0.1-0.6 0.1-1.4 0.4-1.5 0.1-0.7 0-1.1-0.4-8.7-0.3-1.7-0.7-1.3-0.6-0.6-0.4-0.3-0.5-0.1-0.4-0.2-0.2-0.3-0.1-0.4 0.2-0.7 0.2-0.9-0.4-1.4-0.4-1.1-0.5-0.7-0.4-0.5-0.2-0.3-0.1-0.4 0.3-0.7 0.2-0.5 0.6-3.1-1.5-3.5-0.1-0.7-0.1-0.9 0.4-1.3 2-4.6 0.4-0.7 0.6-0.3 0.6 0 0.7-0.2 0.7-0.7 1-2.2 0.8-7.8 0-2.1-0.3-0.8-1.2-0.1-1.5-0.2-1-1-0.5-2.8 0.7-1.2 11.9-4.9 1-1 1.2-1.9 0.3-0.6 0.1-0.5-0.1-2.3 0-0.7 0.2-1 2-3.6 0.2-0.8 0.2-0.8 0.5-1 0.3-0.3 0.8-0.1 1.7-1.4 1.1-2.2 0.5-1.3 0.5-0.7 2.8-2.7 0.9-1.1 1-1.8 0.8-1 0.7-0.7 2-0.9 1.3-1.5 0.8-0.4 1.6-1.1 1.5-1.3 3.8-4.6 1.6-2.7 0.7-2.3-0.1-1.6-0.2-1.1-0.4-1 0.1-0.4 0.2-0.3 0.4-0.1 1 0.2 0.6 0 0.7-0.2 0.7-0.4 0.9-0.7 0.3-0.5 0.1-0.6 0-0.5 0-0.4-0.2-0.4-0.2-0.4-0.2-0.5 0-1.1 0.2-0.5 0.4-0.2 2.3 0.3 0.6-0.1 0.8-0.3 0.4-0.6 0.2-0.7-0.1-1.4 0.1-0.8 0.3-0.3 0.2-0.1 0.3 0.3 0.3 0.3 0.3 0.4 0.4 0.1 0.6-0.2 1.3-0.9 0.6-0.9 0.9-0.7 0.4-0.6 0.2-0.4 0.4-1 2.3-2.6 0.8-0.7 0.5-0.2 0.2 0.2 0.3 0.1 0.4-0.1 0.1-0.2-0.3-0.6-0.1-0.4 0-0.6 0.2-0.2 0.2 0.1 0.2 0.3 0.1 0.4 0.1 0.3 0.3 0.3 0.4 0.2 0.4 0.1 0.4-0.1 0.5-0.1 0.5-0.1 0.4 0 0.2 0.1 0 0.3-0.1 0.4-0.2 0.4-0.1 0.4 0.1 0.5 0.3 0.3 0.6 0.2 0.3-0.2 0.1-0.4 0.1-0.4 0.1-0.6 0.2-0.3 0.4-0.1 0.3 0 0.3 0 1-0.4 0.4-0.2 0.5 0 0.5 0.2 0.4 0.2 0.1 0.2 0 0.3 0.1 0.3 0.3 0.2 1-0.2 1.2-1 1.5-1 2.5-2.2 0.7-0.5 1.6-0.5 1.4-2.3 2.6-2.3 3.3-4.4 0.4-1 0.1-0.5-0.1-0.5-0.2-0.3-0.2-0.2-0.2 0-0.2 0.1-0.2 0.2-0.2 0.1-0.3-0.1-0.5-1.3-0.3-0.9-1-0.9 0-0.6-0.1-0.9-0.2-0.5-0.5-0.5-0.8-0.4-1.5-1.3-8.6-3.7-0.7-0.5-0.4-0.5-0.3-0.6-0.4-0.3-0.3-0.1-2.8-0.3-0.8-0.2-0.4 0.1-0.4 0.1-0.7 0.1-0.4-0.3-0.7-1.2-0.1-0.3 0.1-0.3 0.1-0.5 0-0.5-0.6-0.9-0.4-0.3-0.4-0.1-0.3 0-1.5 0.1-0.2-0.2 0-0.2 0.2-0.2 0.4-0.1 0.2-0.2 0.1-0.3-0.4-0.7-0.3-0.6-0.1-0.5-0.5-0.7-0.5-0.5-1.2-0.6-1.3-1-1.8-1.1-2-2-0.5-0.4-0.5-0.1-0.6 0.1-2.1-0.5-5.8-3.1 1.8-2.1 1.3-0.6 0.7-0.2 0.5-0.4 0.3-0.6 0.4-1.2 0.3-0.7 0.6-0.5 1.6-0.9 3.4-1.4 0.4-0.2 0-0.3-0.2-0.2-0.1-0.4 0.4-0.2 0.7-0.3 1.7-0.8 0.7-0.5 0.5-0.5 0.4-0.6 1.4-1.9 0.5-0.5 1.9-1 1.1-0.5 0.5-0.3 0.2-0.4-0.4-0.8 0-0.4 0.3-0.7 1.1-1.4 0.7-0.7 1-0.8 1-0.5 0.1-0.3 0-0.4-0.2-1.3-0.2-0.2-0.2-0.1-0.5 0-0.4-0.1-0.2-0.2-0.2-0.3-0.1-0.7-0.1-0.7 0-0.4 0-0.5 0.3-0.7 0.8-1.7 0-0.4-0.1-0.3-0.3-0.1-0.2-0.2-0.2-0.1-0.2-0.1-0.1-0.1-0.1-0.2-0.2-0.5-0.2-0.2-0.3-0.1-0.3-0.6 0.4-1.6z" id="IQAR" name="Arbil">
  </path>
  <path d="M764.4 948.2l0-0.1 0.5-2.6 2-21.1 0.7-2.7 1.1-2.4 3.4-5.9 0.3-2.7 0.1-13.4 1.2-10.6 7.4-39.9 0-3-0.2-2.8-0.6-2.1-0.8-2-9-13.1-1.1-2.6-0.8-3-1.5-9.8-1.5-6.6 29.8-8.2 1.7 0.1 12.7 2.3 2.7-0.5 0.6-3-0.5-7.7 0.1-2.4 0.6-3 2.3-12.1 1.2-22.1-0.8-8.9 1-6.5 1.7-2.7 1.9-1.6 3.1-1.5 12.7-3.3 4.1-0.3 13.1 1.3 12.6 3.2 0.1 0-0.4 25.8 30 0 1 0.6 0.3 1.4-0.3 51.2 0.1 3.2 9.7 1.4 1 0.4 1 0.6 1.5 1.6 1.2 2.1 0.8 2.3 0.7 4.7 0.5 1 0.7 0.8 1 0.4 1.1 0.2 1.1-0.1 3.3-0.5 1.2 0 1.1 0.4 0.8 0.7 1.9 3.1 2.9 3.4 3.6 3.3 0.6 0.8 0.4 1.1 0.2 1.2-0.2 1.1-0.7 0.9-0.9 0.8-0.7 0.9-0.2 1.1 0.2 0.8 1.1 2.4 1.9 2.1 0.5 1.1 0.2 0.2 1.7 5.2 0.2 1.4 0.8 2 0.4 0.7 0.6 0.6 1.3 1 1.3 0.9 2.9 0.8 0.6 0.3 0 0.5 2.2 0 0.4 1-1.1 1.3-2.4 0.6-10-1-7-2.4-3.2-2.5-3.2-1-5.1-3.2-4-1.4-4.2-0.8-3.9 0-3.5 0.9-6.3 3.5-0.7-2.8-0.3-3.2-0.6-2.9-1.5-2 1.1 3.4 0.1 1.3-0.2 1.4-0.4 1.3-0.1 1.1 0.7 0.9 0 2.5-19.8-10-5.3-1-23.6 0-5.2 0.7-14.7 6.1-4.8 3.2-3.1 4.5-7.8 19.9-3.4 6.3-0.4 1.5-0.4 3.1-0.2 1.1-1.8 3.9-6.8 11.4-2.7 7.1-1.4 2.1-5.8 6.4-5.8 9.7-13.7 15.4z" id="IQBA" name="Al-Basrah">
  </path>
  <path d="M514.4 875.8l1.1-2 20.1-35.2 16.4-47.5 3.3-6.5 3.7-4.9 1.5-1.4 4.5-3.3 5.5-2.4 0.6-0.4 4.5-7 3.5-4.2 4.3-3.8 4.3-7.8 2.2-5.1 6.9-37.6 15.6 11.5 7.4 3.9 1.9-11.1 5.7-15.7 2.9-5.6 1.4-3.8 0.1-1.6-2-1-0.6-1-0.4-1.3-0.6-0.9-0.6-0.4-1.6-0.6-0.9-0.5-1.1-1.1 2.2-0.2 14.7-3.6 1-1.6 6.5 0.2 22.3 4.4 16.2 5.3 3.9 0 2-0.7 0.7-0.8 2.9 3.3 0.5 1.6-0.1 0.5 0 1.5 0.1 1.5-0.1 0.7-0.2 0.6-0.3 0.1-0.4-0.1-0.9-0.7-0.5-0.3-0.5-0.2-0.6 0.4-0.4 0.8-0.6 2.3 0 1 0.4 0.6 0.4 0.2 0.6 0.1 0.5 0.7 0.5 1.3 0.6 3.2 0.1 1.5-0.3 1.2-6.3 7.9-1 2 0.2 1.5 2.6 0.4 5 0.2-5.2 12.5-1.1 3.4 0.3 1.2 1.7 0.7 0.4 0.4 1.1 0.8 0.7 0.4 0.5 0.3 0.3 1-0.1 1.9-0.5 3.3-0.6 1.1-1.2 0.2-1.8-0.7-1.4 0.2-0.7 1.4-0.4 2.7-0.5 2-0.4 3.2-0.5 2.3 1.2 14.9 44.9 5.8 14.6 5.2 8.4 13.9 3.8 7.8 1 1.4 1.2 0.9 1.2 0 3-0.7 1.5 6.6 1.5 9.8 0.8 3 1.1 2.6 9 13.1 0.8 2 0.6 2.1 0.2 2.8 0 3-7.4 39.9-1.2 10.6-0.1 13.4-0.3 2.7-3.4 5.9-1.1 2.4-0.7 2.7-2 21.1-0.5 2.6 0 0.1-2.6 2.9-4.1 0.9-3.9 0.8-1.6 0.4-2.4 0.5-4 0.8-9.7-0.8-6.9-0.7-7-0.6-6.9-0.6-7-0.7-9.3-0.8-9.4-0.8-9.4-0.9-9.3-0.8-9.4-0.9-9.4-0.8-9.3-0.9-9.4-0.8-7.3-0.7-7.2-0.7-7.3-0.6-7.3-0.7-8.3-0.7-0.6-0.3-0.6-0.2-0.6-0.2-0.6-0.3-7-5.6-8.7-7.1-8.7-7-8.7-7.1-8.7-7-10.5-8.5-10.4-8.5-10.5-8.5-6-4.9z" id="IQMU" name="Al-Muthannia">
  </path>
  <path d="M622.6 143.7l1.5 1.2 1.2 1.3 0 1.6 0.6 0.9 0.8 0.8 0.7 1.1 0.5 1.5 0.1 1.1 0.4 1 1 1.2 2.5 1.2 2.7-0.2 5.1-2.1 2.3 0.2 1.6 2 1 2.9 0.4 2.6 0.2 4.9 0.7 2 1.7 2.2-2.2 1.4 0.5 1.4 1.7 1.3 1.3 1.3 0.5 2.2-0.3 5.2 0.5 2.4 2.8 3.7 1.2 2.3-0.4 2.2-1.1 1.8-1.1 2.3-0.6 2.4 0.6 1.8 0.1 0 1.6 1.7 1.9 0.3 2-0.7 1.9-1.3 1.6-0.5 3.1-1.5 2.4 0 2 0.7 3.5 1.3 3.4 3.2 1.2 0.7 2.4 0.5 2.8 2.5 4.2 6 2.3 5.8 1.1 1.5 1.7 0.5 3.4-1.1 1.1 0.2 1.4 1 1.9-0.1 1.8-0.9 2.2-1.9 0.9 0.1 1 0.3 0.9 0.1 3-1 5.8 0.2 1.8-0.6 1.8-1 1.4-0.6 1.5 0.1 2.9 1.1 0.6 0.1 0.5 0.4 0.4 2.3 0.4 0.7 0.6 0.7 0.7 0.6 1.9 0.8 1.9-0.1 3.9-0.8 1.7-0.7 1.6-1.1 1.6-0.8 2 0.2 1.5 1.1 0.7 1.5-0.2 1.8-1.1 1.8-1.4 1.3-2.8 1.8-1.2 1.8-1.5 1.4-1.9 0.2-3.5-0.2-4.6 2.5-1.9 0.4-6.4-0.2-1.9 0.7-1.1 1.2-0.8 1.8-0.3 2 0 1.9 0.9 4.3-0.3 1.5-2.7-0.8-0.5 0-0.4 0.1 0.8 2.3 1 2.1 0.4 0.5 0.1 0.4-0.1 0.5-0.4 0.4-0.7 0.6-0.5 0.7-0.2 0.9 0 1.1 1.2 3.2 5.9 9.4 5 4.5 2.2 2.6 0.7 3.3-0.2 0.4-0.5 1.1-1.1 1.4-0.9 1.4 0.3 1.8 1.3 0.9 3.5-0.1 1.4 1.2-0.4 2.9-1.9 3.4-1.3 3.2 1.9 2.2-0.7 1.3-1 0.6-1.1 0.2-2.3 0.8-1.7-0.5-0.9 0.1-2.5 1.5-1.3 1.3-1.4 0.4-2.8-1.2-1.2 0.1-0.9-0.4-1.9-1.3-1.4-0.5-0.6 0.3-1.3 2.1-0.1 0.5 0.3 1.4-0.2 0.5-0.5 0.3-1.3 0.1-0.6 0.2-1 1-0.4 1.3-0.1 1.5 0.3 1.5 0.8 2.9-0.2 2.1-0.8 2-0.7 2.7-1.4 1.9-2.4-0.9-1.1-0.5-0.6-1.3-0.9-10.2 0.2-0.8 0.2-0.2 0.2 0.1 0.7-0.1 0.4 0.1 0.4 0.1 0.4 0.1 0.4 0 0.4-0.1 0.4-0.2 0.3-0.1-1-1.6-6.3-6.7-0.5-0.8-0.4-0.4-0.7-0.7-0.6-0.3-0.6 0-0.5 0.3-0.8 0.9-0.2 0.6 0 0.7-0.4 0.6-0.5 0.7-1 1.2-0.4 0.7-0.4 0.9-0.3 0.4-0.7 0.4-0.2 0.1-0.3 0.3-0.2 0.1-0.2-0.1 0-0.2 0-0.3-0.1-0.3-0.2-0.2-0.3 0.1-0.3 0.4-0.6 1-0.2 0.6 0.1 0.9 0.2 0.3 0.2 0 0.3-0.1 0.2-0.1 0.2 0.2-0.1 0.4-0.4 0.8-0.8 0.5-0.4 0.5-0.3 1.5-0.9 0.8 0.2 0.7 0.3 0.1 0.9 0.1 0.3 0 0.3 0.2 0.1 0.2 0 0.2 0 0.3 0 0.3-0.2 0.7-0.5 1-2.1 3.4-0.7 1-2.4 2.2-0.3 0-0.3-0.1-0.3 0.1-0.2 0.2-0.1 0.6-0.1 0.5-0.4 0.7-0.9 1-0.7 1.7-0.3 1.3-0.8 2.1-0.1 0.4-0.2 0.4-0.6 0.2-0.4 0.4-0.4 0.6-1.2 3.1-1 1.8-0.4 0.8-0.2 0.6 0 0.4-0.1 0.4 0 0.4 0 0.4 0.1 0.3 0.1 0.3-0.1 0.3-0.2 0.8-0.2 0.6-1.1 1.8-0.3 1 0 0.4-0.1 0.2-0.4 0.6-0.7 0.6-1.7 0.9-0.9 0.4-0.8 0.2-0.6 0-0.9 0.2-0.3 0-0.7 0-1.2 1-10 12-3 1.8-0.2-1.7-0.2-0.5-0.2-0.4-0.4 0-0.3 0-0.3-0.1-0.7-0.2-0.3-0.2-0.2-0.5 0-0.5 0.6-1.2 0.3-0.7 0.1-0.7 0.1-0.6-0.1-0.5-0.6-1.7-0.1-0.7 0-0.6 0.1-0.5 0.3-0.5 1.2-1.4 0.4-0.6 0.2-0.5 0-0.4-1-2.9-0.6-2.5 0-0.8-0.1-0.5 0.1-0.5 0-0.7-0.4-2.5-0.3-3.9-0.3-1.1-0.7-1.1-0.7-0.9-1.3-1.1-0.9-0.5-1.1-0.3-2-0.3-1 0.1-0.8 0.3-2.2 1.2-0.5 0.2-0.6-0.1-0.6-0.5-0.9-1.2-1.9-1.9-4.8-3.2-0.3-7.9 0.3-1.5 0.1-0.5-0.1-0.4-0.2-0.5-1.1-1.4-7.9-5.5-3.4-0.6-10-0.4-1.6 0.5-2-0.5-1.5-0.7-9.2-9.8 4-3.4 7.1-2.2 1-1 0.3-0.9-0.7-1.6-0.1-0.8 0-0.9 0.4-1.1 0.9-1.4 1.1-0.7 0.9-0.5 0.7-0.2 0.3-0.5 0.2-0.7 0.3-1.5 1-2.4 0.4-1.7-0.4-1.7-0.6-1.9-0.2-1.6 0.7-2.2 3.3-4.5 0.9-1.9 0.5-1.6-0.1-1.3-1.7-2.4-2-2.2-0.6-1.1-0.2-1.1 0.3-3.3 0.3-4 0.3-1.3 0.2-2.9 0.4-1.2 1.6-2.7-0.1-1.9-0.8-2.3-4.2-3.7-2.1-2.9-2.3-2.5-5.1-11.2 1.7-0.7 0.3 0 0.4 0.2 0.2 0.4 0.4 0.3 0.3 0 1.1-0.6 0.3 0 0.3 0.2 0.2 0.2 0 0.3 0 0.3 0 0.3 0.3 0.5 0.5 0.1 0.5-0.1 2.2-0.7 0.7 0 0.5 0.2 0.5 0.7 0.5 0.5 0.5 0 0.5-0.2 0.5-0.3 0.8-0.3 0.5 0.1 0.4 0.1 0.4 0.5 0.4 0.5 0.7 0.6 0.4 0 0.3-0.2 0.1-0.4 0.1-0.8 0.1-0.3 0.3-0.4 0.4-0.3 0.3 0 0.3 0.1 0.3 0.2 0.2 0.3 0 1.7 0.2 0.6 0.3 0.2 0.2-0.1 0.9-0.9 1.4-0.5 0.5-0.7-0.1-0.3-1-1.8 0.1-0.3 0.3-0.2 0.7-0.1 0.3 0 0.6 0.2 0.3 0.1 1-0.1 0.4 0 0.3 0.2 0.4 0.5 0.2 0.1 0.2 0.2 0.2 0.2 0.5 0.3 0.9 0.3 2.1 0 0.9-0.1 0.7-0.3 0.6-0.4 0.1-0.3 0.2-0.7 0.2-0.3 0-0.2 0-0.3-0.1-0.4-0.6-0.7-6.2-3.1-2.3-1.6-2.9-2.7-6.7-8.1-0.8-0.7-1.1-0.7-2.1-0.9-9.2-6.6-0.5-1-0.4-1.5 2-1.5 0.7-0.8 0.5-0.7 0.5-0.9 0.7-0.6 2.1-1 0.9-0.9-0.3-1-0.5-0.8-4.6-5.6-0.9-0.8-0.9 0-0.6 0.4-0.9 1.1-5.3-8.1-0.5-1.3 0-2.4 3.1-2.7 1-1.5 1.7-2 2.8-2.2 1.9-0.6 1.5 0.2 2.7 0.8 4.1-0.7 4-1 4.8-2.4 2-0.5 1.8 0 3.9 1 3.2 0.2 1.3-0.5 1-0.7 1.3-1.9 0.5-1.1 0.3-1.1z" id="IQSU" name="As-Sulaymaniyah">
  </path>
  <path d="M694.5 325.2l-1.6-0.9-2.2 0.1-0.6 2.1 0.2 2.8-0.4 2.8-2.6 1.7-2.6 0.3-1.1 0.5-0.9 1.3-0.3 1.3 0.2 2.2-0.3 1.3-2.5 2.9-0.7 1.8 1.3 1.6 0.8 0.4 0.8 0.6 0.7 0.9 0.3 0.9 0.3 1.1 0.4 0.7 0.5 0.6 0.4 0.7 0.3 2.1 0 2.1 0.3 1.9 1 1.4 0.3 0.8 0 1.2-0.3 1.1-0.3 0.7-0.6 0.2-2-0.7-6.3-0.5-2.8-0.7-3.1-1.7-3.6-1-0.4 3 0.8 4.5-0.1 3.3-0.5 0.9-0.5 0.8-0.6 0.7-0.6 0.6-4.8 1-0.9 1.5 2.8 9.1 1.2 2.4 1.7 1.3 1.8-1.5 2 0 1.9 1.2 1.4 2.2 0.5 2.5-0.2 2.7-1.2 5.3-0.5 1-1.2 2.1-0.2 1 0.4 1.3 0.7 0.9 0.5 1 0 1.2-0.9 1.3-3.7 3-1.3 1.4-2.3 2-1 2.4-0.8 2.8-1.4 3.1-0.7 0.8-0.9 0.6-2 0.9 1.9 2.7 2.1 1.1 2.4 0.2 2.7-0.4 0.2 0 0.2 0.1 0.1 0.1 8.2 14.9 1.2 1.3 1.4 1.2 1.2 1.3 0.7 1.9 0.4 2.2 0.6 1.9 0.9 1.8 1.2 1.8 1.4 1.4 4.3 3.1 0.4 0.8 0.3 0.8-0.1 3.9 0.7 0.8 1.6-0.4 1.5-1 2.6-2.6 1.7-0.7 4.4 0 2-0.5-0.4 3.3 1.7 1.7 1.9 1.3 0.6 2.4-1.1 1.7-4.3 2.7-1.4 1.8 1.5 1.4 2.7 0.6 2.8-0.3 1.7-1.7 0.4-0.2 0.5-0.1 0.5 0.1 0.1 0.1-1.6 1.7-1.4 2.5-0.4 0.7-1 3.9-0.7 0.8-1 0.8-2.1 1.3-1.1 0.5-0.8 0.2-0.5 0-0.6 0.2-0.7 0.3-4.3 3.2-0.9 1.2-0.8 0.7-1.1 0.7-1.4 0.6-0.4 0.1-0.3-0.1-0.4-0.2-0.4-0.1-0.4 0.2-0.5 0.6-1 1.5-3.2 3.9-0.9 1.2-0.6 1.2-0.4 1.5-0.8 2.3-1.2 1.8-2.4 3-2.1 3.1-0.6 0.7-3.5 3-1.5 1.6-1.2 1.5-1 0.5-0.7 0.3-5.4-1.5-28.6-8.3-8.9 1-3.2-0.3-10.5-2.5-2.7-0.2-1.8 1.5-2 2.4-2.1 3-3.9 3.1-1.6 1.6-0.9 1.3 0.5 1.2 0.3 0.5 0.5 1.6-0.4 0.2-1 0.9-1 0.4-1-0.1-1-0.3-1-0.5-0.8-0.6-0.7-0.6-0.6-0.8-0.5-1-0.8-2.2-0.6-1-0.6 0.4-0.7 1.5-0.9 2.8-0.9 1.6-0.4 1-0.4 0.7-0.4 0.3-0.2 0.1-2-0.6 0.5-1.5 0-4.3-0.3-2.3-0.7-2.7-1.7-4.2-1.1-2.3 0-1.3 0.2-4.7 0.9-1.3 0.2-0.2 0.6-0.7 0.1-0.5 0-0.4-0.4-0.8-0.2-0.9 0.7-1.7 0 0.9-0.3 0.4 0.1 0.3 0.3 0 0.4-0.3 0.3-0.7 0.2-0.8-0.1-3.3-0.1-3.2 0.5-1.1 0-1.3 0.1-0.3 0.1-0.1-0.1-0.4-0.5-1.5-0.2-1-0.2-1.2-0.3-0.5-0.3-0.3-2.9 2.2-3.4-3-1.8-1-1-0.2-6.5-0.3-0.5-0.1-0.6 0.8-1.2 3.8-4.8 1.3-0.3 0.1-2.7-6.1 4.9-7 1.3-1.7 2.2-2 1.5-1.1 3.6-3.3 0.8-2.8 0.3-2.7-1.1-2.5 1.4-6 0.4-0.8 1.2-2 0-0.5-0.2-0.4-1.8-1.9-0.6-0.8-0.5-0.9-0.2-1 0-1 0.2-1 1.7-4.7 3.1-4.9 0.5-1.9 0.1-2.1-0.3-2.1-0.7-1.7-1.1-1.4-4.2-3.8-0.8-0.4-0.6-0.2-2.4-0.4-2.5 0.3-0.7 0.2-0.7 0.1-0.4-0.1-0.3-0.3 0-0.9 0-0.5 1-1.5 0.3-1.4 0.6-1.8-0.1-0.5-0.5-0.8 0.2-0.3 1.9-1.4 0.4-0.4 0.2-0.7 0-0.4-0.1-0.4-0.7-1.2-0.1-0.4 0.2-0.4 0.4-0.3 0.7-0.2 1.1 0 0.2-0.2 0.1-0.3-0.1-2.6-0.2-0.4-0.2-0.3 0-0.3 0.3-0.2 0.9-0.2 1.1 0.1 0.4-0.2 0.4-0.3 0.2-0.7 0.4-0.6 0.3-0.4 0.5-0.1 0.2 0.2 0 0.3-0.2 0.6 0 0.1 0.2 0.2 0.3 0 0.3-0.2 0.2-0.3 0.2-0.9 0.4-0.8 1.9-2.8 0.3-0.3 0.9-0.3 1 0 0.3-0.1 0.3-0.2 0.4-0.3 0.4-0.2 0.3 0.1 0.5 0.6 0.2 0.2 0.3-0.1 0.2-0.5 0-2 0.1-0.6 0.7-0.5 0.5-0.1 0.3-0.3 0.1-0.4-0.3-2.2 1.3-0.9-1.1-1.3-0.6-0.3-0.7-0.6-0.9-1-0.5-0.7-0.2-0.6 0-0.5 0.7-1.1 0.9-2 0.6-2.1 0-0.9-0.3-1.1-0.2-0.5-0.1-0.4 0.6-0.7 0.2-0.3 0.4-1 0.1-0.4 0.1-0.3-0.3-0.2-0.3 0-0.5 0.3-0.3 0.1-0.3-0.1-0.2-0.2 0-0.3 0.4-0.5 0.2-0.3 0-0.3-0.3-0.2-0.2 0.1-0.2 0.2-0.2 0.1 0-0.2 0-0.4 0.4-0.7 0.4-0.3 0.4-0.1 0.4-0.1 0.9-0.2 0.3-0.3 0.1-0.4-0.4-0.9-0.4-0.4-0.3-0.1-0.3 0-0.1-0.1 0.1-0.3 1.1-1 0.3-0.9 0-0.6-1.4-3.6 0.1-1 0.1-0.4 0.2-0.6 1-1.4 0.4-0.2 0.8 0.4 1.8 0.8 1.4 0.3 0.8 0.4 1 0.6 3.4 3.1 0.4 0.3 0.3-0.1 0.5-1.3 0.6-1.1 1-1.2 1.5-1.4 1.5-1 1.3-1.2 1.2-1.6 1.4-3.1 0.2-1.6-0.3-1.3-0.5-0.7-0.4-0.7-0.1-0.7 0-0.6 0.4-0.7 0.9-0.8 1.8-1.1 2.6-0.8 1.1-0.5 1.3-1 1.8-1.8 1.2-2.1 0.4-1.2-0.1-0.9-0.1-0.8 0.1-0.7 0.6-0.9 1.1-0.8 2.3-1 3-1.5 4.4-4 4.8 3.2 1.9 1.9 0.9 1.2 0.6 0.5 0.6 0.1 0.5-0.2 2.2-1.2 0.8-0.3 1-0.1 2 0.3 1.1 0.3 0.9 0.5 1.3 1.1 0.7 0.9 0.7 1.1 0.3 1.1 0.3 3.9 0.4 2.5 0 0.7-0.1 0.5 0.1 0.5 0 0.8 0.6 2.5 1 2.9 0 0.4-0.2 0.5-0.4 0.6-1.2 1.4-0.3 0.5-0.1 0.5 0 0.6 0.1 0.7 0.6 1.7 0.1 0.5-0.1 0.6-0.1 0.7-0.3 0.7-0.6 1.2 0 0.5 0.2 0.5 0.3 0.2 0.7 0.2 0.3 0.1 0.3 0 0.4 0 0.2 0.4 0.2 0.5 0.2 1.7 3-1.8 10-12 1.2-1 0.7 0 0.3 0 0.9-0.2 0.6 0 0.8-0.2 0.9-0.4 1.7-0.9 0.7-0.6 0.4-0.6 0.1-0.2 0-0.4 0.3-1 1.1-1.8 0.2-0.6 0.2-0.8 0.1-0.3-0.1-0.3-0.1-0.3 0-0.4 0-0.4 0.1-0.4 0-0.4 0.2-0.6 0.4-0.8 1-1.8 1.2-3.1 0.4-0.6 0.4-0.4 0.6-0.2 0.2-0.4 0.1-0.4 0.8-2.1 0.3-1.3 0.7-1.7 0.9-1 0.4-0.7 0.1-0.5 0.1-0.6 0.2-0.2 0.3-0.1 0.3 0.1 0.3 0 2.4-2.2 0.7-1 2.1-3.4 0.5-1 0.2-0.7 0-0.3 0-0.3 0-0.2-0.1-0.2-0.3-0.2-0.3 0-0.9-0.1-0.3-0.1-0.2-0.7 0.9-0.8 0.3-1.5 0.4-0.5 0.8-0.5 0.4-0.8 0.1-0.4-0.2-0.2-0.2 0.1-0.3 0.1-0.2 0-0.2-0.3-0.1-0.9 0.2-0.6 0.6-1 0.3-0.4 0.3-0.1 0.2 0.2 0.1 0.3 0 0.3 0 0.2 0.2 0.1 0.2-0.1 0.3-0.3 0.2-0.1 0.7-0.4 0.3-0.4 0.4-0.9 0.4-0.7 1-1.2 0.5-0.7 0.4-0.6 0-0.7 0.2-0.6 0.8-0.9 0.5-0.3 0.6 0 0.6 0.3 0.7 0.7 0.4 0.4 0.5 0.8 6.3 6.7 1 1.6-0.3 0.1-0.4 0.2-0.4 0.1-0.4 0-0.4-0.1-0.4-0.1-0.4-0.1-0.7 0.1-0.2-0.1-0.2 0.2-0.2 0.8 0.9 10.2 0.6 1.3z" id="IQDI" name="Diyala">
  </path>
  <path d="M709.9 480.6l0.3 0.1 0.3 0.2 0.3 0.2 3 3.9 1.1 1.9 0.7 2 0.3 2.3 0.1 1.8 0.4 1.6 3.1 2.9 3.6 5.2 2.9 2.3 1.3 1.3 0.8 1.9 0 1.1-0.5 2.1-0.1 0.9 0.4 1 1.1 0.7 0 1-0.6 1.4-1.3 1.5-2.4 2.5-2 1.4-1.4 0.3-1.6-0.1-2 0.2-1.8 1-0.1 1.3 1.3 1.1 4 0.5 1.7 0.7 1.3 1.2 0.5 1.5-0.6 1.9-1.3 1.4-1.5 1.2-1.2 1.3 2 4.4 5.3 0.7 10.8-1.3 9.7 3.1 9.1 4.3 2.6 2.6 8.5 4.9-1.4 2.5-0.9 1.1-2 1.4-0.7 1.1-5.9 18-0.6 5.2 0.1 6.6-0.1 1.2-0.3 1.1-0.3 1.5-0.3 0.7-1.3 2-0.5 1.2-0.1 1 0.8 0.8 1.5 1.3 0.4 0.6 0.4 0.9-0.2 0.9-3.8 11.1-0.5 1.9 0.3 1.6 1.6 1.4 11.2 4.8 1.8 2.7 1.1 2-2.5 16.2-1.9 0.2-3.5-0.8-3.3-1.7-3.6-0.5-11.4 0.5-23.7 0-3.1 1.1-0.4 0.4-0.4 0.8-0.4 0.2-0.6 0.1-1.5-0.3-0.8-0.3-0.8-0.1-0.8 0.3-3.1 2.4-0.5 0.1-0.4-0.4-0.3-0.2-0.2-0.1-0.2 0.1-0.4 0.4-0.4 0.2-0.4 0.1-0.4-0.4-0.5 0-5.6 2.3-9.1-0.5-4.3-10-0.1-0.7 0.4-0.5 0.6-0.6-0.3-1.3-6.3-1.9-5.7-2.1-1.5-0.9-0.9-1.4-1.1-2-1.6-2.2-9.1-8.6-1.4-1.6-0.5-1.7 0.2-1.5 1.2-2.9 0.2-1-0.3-0.9-2-0.6-1.1-1.6-6.4-0.8-2.3-1-0.6-1.7-5.3-0.7-0.2-2.3-0.2-3.4-1.2 0-5.4-0.2-1.6-0.5-1.4-1-1.8-1.8-1.6-2-3.6-8.1-3.9-13-0.5-1.1-1.3-1.4-1.3-1.1-2.3-1.3-3-1.2-0.5-0.9-0.8-0.2-3.3-0.4-4.6-1.4-5.8-3.4-0.7-0.1-12.9-0.9-0.5-0.2-0.5-0.4-0.6-0.6-0.6-1.7-0.6-2.7-0.3-11-0.7-3.2 1.6-0.9 2 0.6 0.2-0.1 0.4-0.3 0.4-0.7 0.4-1 0.9-1.6 0.9-2.8 0.7-1.5 0.6-0.4 0.6 1 0.8 2.2 0.5 1 0.6 0.8 0.7 0.6 0.8 0.6 1 0.5 1 0.3 1 0.1 1-0.4 1-0.9 0.4-0.2-0.5-1.6-0.3-0.5-0.5-1.2 0.9-1.3 1.6-1.6 3.9-3.1 2.1-3 2-2.4 1.8-1.5 2.7 0.2 10.5 2.5 3.2 0.3 8.9-1 28.6 8.3 5.4 1.5 0.7-0.3 1-0.5 1.2-1.5 1.5-1.6 3.5-3 0.6-0.7 2.1-3.1 2.4-3 1.2-1.8 0.8-2.3 0.4-1.5 0.6-1.2 0.9-1.2 3.2-3.9 1-1.5 0.5-0.6 0.4-0.2 0.4 0.1 0.4 0.2 0.3 0.1 0.4-0.1 1.4-0.6 1.1-0.7 0.8-0.7 0.9-1.2 4.3-3.2 0.7-0.3 0.6-0.2 0.5 0 0.8-0.2 1.1-0.5 2.1-1.3 1-0.8 0.7-0.8 1-3.9 0.4-0.7 1.4-2.5 1.6-1.7z" id="IQWA" name="Wasit">
  </path>
  <path d="M768 554l0.3 0.2 4.2 3.4 6 3.7 3.8 4.3 27.5 24 2.9 2.2 2.8 1.5 2.9 0.6 3.2-0.4 1.6-0.6 4.2-2.3 1.3 0.1 5.2 1.8 1.9 1 1.2 1.4 1 1.6 1.5 2 2.5 1.9 0.5 0.8 0.1 1.2-0.3 0.7-0.5 0.6-0.8 2-0.4 0.4 0 0.6 0.6 1.4 0.4 0.7 2.8 2.6 0.4 0.5 0.3 0.7 1.7 2.2 0.5 0.6 0.9 0.5 0.5 1.3 1.8 1.4 0.5 1.4-0.2 1.5-0.5 1-0.5 1-0.4 1.2-0.1 1.5 0 0.8 0.7 0.5 1.4 0.4 1.2 0.8 0.7 1.1 0.8 0.9 1.4 0.2 1.8 0.7 0.2 0.3 1.3 1.9 2.1 4.7 1.4 1.6 3.2 1.6 0.9 1.9 0.4 1.9 3.3 5.9 0.6 0.9 1.7 1 0.7 0.7 0.5 1 0.4 1.9 0.4 0.8 1.4 1.6 3.6 2.7 1.3 1.9 0.2 2.3-0.5 2.5-13.9 37.9-0.2 18.3-0.1 0-12.6-3.2-13.1-1.3-4.1 0.3-12.7 3.3-3.1 1.5-1.9 1.6-1.7 2.7-1 6.5-16-1.1-9.6 0.1-3.6-1.8-1.3-1.3-3.9-3.2-0.7-0.8-0.3-0.8-0.2-0.8-0.1-1.1 0-1.1 0.4-3.8 0.1-1.2-0.1-0.9-0.3-1-0.6-1.1-1.1-1.5-1.1-1.1-1.1-0.8-8.1-5.1-1.5-4.4 0-1 0.1-1.4 0.9-2 0.5-1.3 0.4-2.2-0.3-1.6-0.7-1.7-0.9-1.2-3-2.5-1.5-1.5-2.8-4.6-0.6-0.6-2.8-1.6-3.6-4.1-2.1-5.4 0.3-1.4 0.2-2.6-7.1-11.7-2.4-5.1 0.9-1.8 1.5-0.9 1.5-0.4-0.1-0.9-1.2-1.5-2-2 11.4-0.5 3.6 0.5 3.3 1.7 3.5 0.8 1.9-0.2 2.5-16.2-1.1-2-1.8-2.7-11.2-4.8-1.6-1.4-0.3-1.6 0.5-1.9 3.8-11.1 0.2-0.9-0.4-0.9-0.4-0.6-1.5-1.3-0.8-0.8 0.1-1 0.5-1.2 1.3-2 0.3-0.7 0.3-1.5 0.3-1.1 0.1-1.2-0.1-6.6 0.6-5.2 5.9-18 0.7-1.1 2-1.4 0.9-1.1 1.4-2.5z" id="IQMA" name="Maysan">
  </path>
  <path d="M274 296.6l1.9 0.1 11.8 1.1 15.4 4.4 6.1 1 25 10.4 12.1 4.7 5.9 0.4 12.9-1.7 1.6 0.4 3.2 1.5 2.8 1.2 19.9-2.7 0.7 1.6 0.1 24.3 3.6 16.1 17.8 14.6 3.9 2.2 3 0.4 10.9-6.2 1.7 9.5 0.4 6.9 0.7 3.3 2.4 3.3 1.4 5.9 0.9 5.9 4.8 11.7 6.2 8.3 14.7 14.8 12.5 11 4.9 1.8 9.8 1.7 11.2 4.5 8.3 2.7 15.3-0.3 2.8 0.8 3.1 2.9 1.5 1.6 1.7 3.1 2.8 7.2 2 3.4 0.9 1-3 2.4 3.4 1.1 3.1 2.1 6.7 0.4 2.7 6.1 0.3-0.1 0.1 0.5 0 0.6-0.8 2.1-2.9 3.1-1.1 2.1-0.4 2.1 0 2.3 0.5 2.3 0.9 1.8 1.1 1.1 2.4 1.5 1.1 1.2-2.8 3.8-1.6 1.7-1.9 0.5-2.1-0.6-5.8-3.4-2.3-0.7-2.2-0.3-8.7-0.1-8-2.1-4.2-0.6-3.1 0.4 0.5 2.3 1.2 1.6 4.5 1.1 8.9 4.5 2.8 2.8 2.2 6.5 1.6 8.1 1.1 2.9 2.5 2.9 4 2.8-1 10.3-15.7-4.8-10.5 0-7.7 1-7.2 3.5-17.1 15.2-2.5 1.6-1 0.3-1.9 0.2-11.2 1.6-4.3 1.7-4.9 2.5 0.7 3.3 2.2 3.3 21.5 21.9 15.1 11.3 4.4 3.8 9.6 9.2-0.1 2.1-0.5 3.2-1.6 2-1.6 1.5-8.5 4.7-2.3 1.9-1.2 0.7-1.5 0.6-5.8 0.9-1.1 0.4-2.7 1.8-0.7 0.2-1.9 0.2-1.5 0.7-1.7 1.3-2.6 2.9-14.3 21.1-1.3 2.3-0.1 3.5-0.5 3-1.3 3.9-9.7 20.9-0.9 2.6-0.2 1.8 0 1.4 0.1 0.9 0.4 0.8 0.1 1.6-0.4 2.3-3.6 9.5-0.3 1.3-0.7 5.2-0.6 2.3-0.6 1.5-5.2 7.2-3.1 5.4-0.7 1.6-0.3 1.1-1.1 9.4-1.2 3.7-2.7 6.6-5.9 11-2.4 5.7-0.7 1.1-1.8-1.5-8.6-7.6-8.7-7.5-8.6-7.6-7.8-6.7-7.7-6.7-7.7-6.7-7.7-6.7-6.1-5.2-8.1-4.9-8-4.8-8.1-4.7-8-4.8-8-4.8-8-4.8-8-4.7-8-4.8-8-4.8-8-4.8-8-4.8-8.1-4.8-8-4.8-8-4.8-8-4.8-8-4.8-8-4.8-9.4-5.6-5.1-3-4.9-1.9-31.2-6.1-7.3-1.2-18.1-3.1-18.1-3.1-18-3.1-18.1-3.1-0.2 0-0.3 0.1-0.3 0.1-0.2 0.1 0-0.8 10.9-9.4 2.4-3.4-1.9-7.3-1.4-3.3-1.9-1.1-17.3 4.8-0.9-0.6-0.7-1.6-4.4-15.5-0.1-0.2-0.1-0.2 0.1 0 0.1-0.1 7-2.2-6.1-22.7-4.3-15.9-4.2-15.5-3.1-11.5-3.8-14-4.3-15.6 10.1-6.1 10.1-6.1 10.1-6 10.1-6.1 10.1-6.1 10.1-6.1 10.1-6 10.1-6.1 10.1-6.1 10.1-6.1 10.1-6.1 10.1-6.1 6.6-4 3.5-2.1 10.1-6.1 10.1-6.2 10.1-6.1 13.4-8.1 22.5-6 2.6-1.8 2.1-2.9 3.3-7.3 15.7-30.5 0.8-2.7 0.2-2.9-0.8-19.5-0.5-18.4z" id="IQAN" name="Al-Anbar">
  </path>
  <path d="M514.4 875.8l-4.5-3.6-10.4-8.5-10.5-8.5-10.5-8.6-10.4-8.5-8.1-6.6-8-6.5-8.1-6.6-8-6.6-9.7-7.9-6.9-6 0.7-1.1 2.4-5.7 5.9-11 2.7-6.6 1.2-3.7 1.1-9.4 0.3-1.1 0.7-1.6 3.1-5.4 5.2-7.2 0.6-1.5 0.6-2.3 0.7-5.2 0.3-1.3 3.6-9.5 0.4-2.3-0.1-1.6-0.4-0.8-0.1-0.9 0-1.4 0.2-1.8 0.9-2.6 9.7-20.9 1.3-3.9 0.5-3 0.1-3.5 1.3-2.3 14.3-21.1 2.6-2.9 1.7-1.3 1.5-0.7 1.9-0.2 0.7-0.2 2.7-1.8 1.1-0.4 5.8-0.9 1.5-0.6 1.2-0.7 2.3-1.9 8.5-4.7 1.6-1.5 1.6-2 0.5-3.2 0.1-2.1-9.6-9.2 42.5-12.3 8.6-2.6 2.3-0.3 1.1 0.9 0.8 0.5 0.4-0.6 0.5-1.2 0.1-0.6 1.1-2.8 1.3 5.2 0.6 1.1 0.6 0.5-0.4 1.9-2.2 1.2-0.7 1.1 0.2 1.2 0.7 2 1.7 2.8 0.6 0.7 0.7 1 0.5 0.9 1.4 1.9 3.2-3.1 1.9-1.3 0.4 0 0.8-0.1 0.7 0 4.5-3.2 2.5 1.3 2 1.8 2.7 1.5 4.7 1.5-1.4 4.4-0.3 0.4-0.4 0.5-0.4 0-0.6 0.1-0.9 0.6-0.2 0.6 0 0.6 0.3 0.7 0.4 0.7 0.6 0.5 0.8 0.7 0.6 0.7-0.1 0.5-0.4 0.3-2.7 1-3.3 2.2-1.8 0.8-0.7 1-0.8 2.7-0.6 3.3 3 15.3-0.4 3.5 0 6.7 1.2 8.1-1.8 2.5-1.5-0.9-2.5-1-2 0.5-2 2.3-0.5 2.5 2 3.6 6 7.1 1.7 1.1 17.5 7.3-6.9 37.6-2.2 5.1-4.3 7.8-4.3 3.8-3.5 4.2-4.5 7-0.6 0.4-5.5 2.4-4.5 3.3-1.5 1.4-3.7 4.9-3.3 6.5-16.4 47.5-20.1 35.2-1.1 2z" id="IQNA" name="An-Najaf">
  </path>
  <path d="M382.2 81.4l0.6 2.5 1.3 2.7 1.5 2.4 3.5 3.5 1.6 1.2 1.6-0.1 1.8-2 0 1.7-0.4 2.3 0.1 1.9 1.5 0.3-0.7 2.5 0.2 1.1 0.8 0.8 1 1.9-2.4 0.2-0.4 1.2 1 0.9 1.8-0.7 2.8 1.5 1.6 1.1 1.2 3.5 1.5 0.8 3.8 0 0.5-0.2 0.4-0.5 0.5-0.5 0.8-0.2 1.1 0.2 0.8 0.6 2.8 3.1 1.6 1.5 0.9 0.4 0.7 0.1 0.7 0.2 0.8 0.9-2 0.8-0.9 0.6-0.2 0.9 0.6 0.9 1 0 3.2-1.6 0.7 0 1.4 0.7 0.6 0.6 0.5 0.7 0.8 1.8 0.7-1.4 0.9-0.6 1.1-0.2 1.3-0.1 1.1 0.3 7.5-4.2 11.9-1.6 3.7-0.4 3.1-1.5 1.3-1 0.4-1.8 0.9-2 0.8-2.6 2.7-4.5 2.8-3.4 0.6-1.1 1.3-1 1.5-0.5 3.5 0.4 1.3 0.7 1.5 1.2 1.2 1.3 2.8 2 1.6 1.5 2.9 1.4 13.2 3.6 1.3 0.3 0.7-0.1 0.2-0.5 0.1-0.5 0-0.7 0.2-0.6 0.3-0.4 0.6-0.3 0.9-0.2 1.5 0.5 0.3 0.2 0.4 0 0.3-0.3 0.4-1.3 0.1-0.7 0-0.6-0.1-0.4 0-0.3-0.1-0.6 0-0.3 0-0.3 0-0.3-0.1-0.4-0.2-0.7 0.1-0.2 0.5-0.2 0.4-0.3 0.4-0.5 0.8-1.6 0.2-0.5 0-0.6-0.1-0.5-0.1-0.6-0.2-0.5-0.3-0.4-0.5-0.2-0.6-0.1-1.5-0.5-0.8-0.4-0.7-0.2-1.3 0-0.5-0.2-0.5-0.2-0.9-0.7-0.2-0.4-0.2-0.3 0-0.3-0.3-0.5 0-0.4 0-0.4 0-0.4 0.3-0.9 0.3-0.9 0.1-0.9 0-0.4 0.1-0.4 0.4-0.9 0.3-0.4 0.4-0.4 0.3-0.3 0.3-0.1 0.4 0.1 0.4 0.1 1.7 0.9 1 0.3 6.4 1.1 2.6 1.1 2.8 0.7 5.8 3.1 2.1 0.5 0.6-0.1 0.5 0.1 0.5 0.4 2 2 1.8 1.1 1.3 1 1.2 0.6 0.5 0.5 0.5 0.7 0.1 0.5 0.3 0.6 0.4 0.7-0.1 0.3-0.2 0.2-0.4 0.1-0.2 0.2 0 0.2 0.2 0.2 1.5-0.1 0.3 0 0.4 0.1 0.4 0.3 0.6 0.9 0 0.5-0.1 0.5-0.1 0.3 0.1 0.3 0.7 1.2 0.4 0.3 0.7-0.1 0.4-0.1 0.4-0.1 0.8 0.2 2.8 0.3 0.3 0.1 0.4 0.3 0.3 0.6 0.4 0.5 0.7 0.5 8.6 3.7 1.5 1.3 0.8 0.4 0.5 0.5 0.2 0.5 0.1 0.9 0 0.6 1 0.9 0.3 0.9 0.5 1.3 0.3 0.1 0.2-0.1 0.2-0.2 0.2-0.1 0.2 0 0.2 0.2 0.2 0.3 0.1 0.5-0.1 0.5-0.4 1-3.3 4.4-2.6 2.3-1.4 2.3-1.6 0.5-0.7 0.5-2.5 2.2-1.5 1-1.2 1-1 0.2-0.3-0.2-0.1-0.3 0-0.3-0.1-0.2-0.4-0.2-0.5-0.2-0.5 0-0.4 0.2-1 0.4-0.3 0-0.3 0-0.4 0.1-0.2 0.3-0.1 0.6-0.1 0.4-0.1 0.4-0.3 0.2-0.6-0.2-0.3-0.3-0.1-0.5 0.1-0.4 0.2-0.4 0.1-0.4 0-0.3-0.2-0.1-0.4 0-0.5 0.1-0.5 0.1-0.4 0.1-0.4-0.1-0.4-0.2-0.3-0.3-0.1-0.3-0.1-0.4-0.2-0.3-0.2-0.1-0.2 0.2 0 0.6 0.1 0.4 0.3 0.6-0.1 0.2-0.4 0.1-0.3-0.1-0.2-0.2-0.5 0.2-0.8 0.7-2.3 2.6-0.4 1-0.2 0.4-0.4 0.6-0.9 0.7-0.6 0.9-1.3 0.9-0.6 0.2-0.4-0.1-0.3-0.4-0.3-0.3-0.3-0.3-0.2 0.1-0.3 0.3-0.1 0.8 0.1 1.4-0.2 0.7-0.4 0.6-0.8 0.3-0.6 0.1-2.3-0.3-0.4 0.2-0.2 0.5 0 1.1 0.2 0.5 0.2 0.4 0.2 0.4 0 0.4 0 0.5-0.1 0.6-0.3 0.5-0.9 0.7-0.7 0.4-0.7 0.2-0.6 0-1-0.2-0.4 0.1-0.2 0.3-0.1 0.4 0.4 1 0.2 1.1 0.1 1.6-0.7 2.3-1.6 2.7-3.8 4.6-1.5 1.3-1.6 1.1-0.8 0.4-1.3 1.5-2 0.9-0.7 0.7-0.8 1-1 1.8-0.9 1.1-2.8 2.7-0.5 0.7-0.5 1.3-1.1 2.2-1.7 1.4-0.8 0.1-0.3 0.3-0.5 1-0.2 0.8-0.2 0.8-2 3.6-0.2 1 0 0.7 0.1 2.3-0.1 0.5-0.3 0.6-1.2 1.9-1 1-11.9 4.9-0.7 1.2 0.5 2.8 1 1 1.5 0.2 1.2 0.1 0.3 0.8 0 2.1-0.8 7.8-1 2.2-0.7 0.7-0.7 0.2-0.6 0-0.6 0.3-0.4 0.7-2 4.6-0.4 1.3 0.1 0.9 0.1 0.7 1.5 3.5-0.9 0.8-0.2 0.9-0.3 1.6-0.9 0.5-1.2 0.1-1.3 0.4-0.7 0.9-1.4 2.4-1.3 1-1.8 0.6-1.7 1.2-6 2.5-11.1 7.6-1.5 0.1-0.8 0.3-0.9 0.5-2.1 1.8-1.1 0.8-2.6 1.2-0.3 0-0.3 0-0.1 0-0.2 0.1-0.2 0.1-0.3-0.1-0.3 0-0.3 0-0.3 0.1-0.3 0.4-0.3 0.4-0.3 0.7-0.3 0.2-0.2 0.2 0 0.2 0.8 1.2 0.9 2.2 0.2 0.8-0.1 0.7-0.5 0.9-0.4 0.6-0.2 0.3-0.2 1.5 0 0.8 0.2 0.8 0.5 0.8 0 1.4 0.2 0.8 2.5 3.2 0.7 0.7 1.4 1.1 0.5 0.6 0.4 0.8 0.1 0.8 0.1 0.9 1 2.9 0.2 0.2 0.3 0.1 0.2 0 0.1-0.1 0.2 0 0.1 0.3-0.1 0.5-0.4 0.9-0.1 0.7 0 0.7-0.3 1.9 0 0.8 0.1 0.3 0.1 0.2 0.1 0 0.2-0.1 0.2 0.1 0.5 0.1 0.3 0.8 0.7 1.3 0.1 0.7 0.2 0.2 0.2 0.1 0.3 0.1 0.1 0.1 0 0.4 0.1 0.2 0.2 0 0.3 0 0.1 0.2-0.1 0.3-0.2 0.2 0.1 0.2 0.1 0.1 0.4 0.1 0.3 0 0.3 0 0.3 0.1 0.3-0.1 0.1 0.2 0.3 1 0.1 0.3 0 0.3 0.2 0.7 0.1 0.4-0.1 0.5-0.5 1.3 0 0.2 0.4 0.6 0.2 0.5-0.2 0.7-0.9 0.6-3.4 0.5-32.6 0.2-10.5 2.3-2.3 10.9-19.9 2.7-2.8-1.2-3.2-1.5-1.6-0.4-12.9 1.7-5.9-0.4-12.1-4.7-25-10.4-6.1-1-15.4-4.4-11.8-1.1-1.9-0.1-0.1-2.6 0.9-6.8 3.8-13.8 0.8-11 0.8-3.3 0.1 0 4.3-6.5 3.1-4.7 1.4-3.4 0.5-3.5-0.4-15.5-0.4-3.7-1-3.6-7.1-15.4-2.3-5.5-0.4-2 0-1.9 3-28.4 0.7-3 8.1-15.8 1.8-2.6 2.7-1.2 5.9-1 28.4-6 2.5-1.2 2.4-2.1 12.3-13.2 18.2-19.6 9.5-10.1 5.8-5.6 2.9-2.2z" id="IQNI" name="Ninawa">
  </path>
  <path d="M469.6 233.3l-0.6 3.1-0.2 0.5-0.3 0.7 0.1 0.4 0.2 0.3 0.4 0.5 0.5 0.7 0.4 1.1 0.4 1.4-0.2 0.9-0.2 0.7 0.1 0.4 0.2 0.3 0.4 0.2 0.5 0.1 0.4 0.3 0.6 0.6 0.7 1.3 0.3 1.7 0.4 8.7 0 1.1-0.1 0.7-0.4 1.5-0.1 1.4-0.1 0.6-0.2 0.3-0.3 0.1-0.7 0.2-1.7 0.9-1.5 2.6-0.8 0-0.5-0.2-0.6-0.8 0-0.5 0-0.5-0.4-0.6-0.1-0.3-0.1-0.4-0.2-0.4-0.4-0.3-1.4-0.4-0.6 1.6 0.4 1.1 0 0.6-0.3 0.7-0.1 1.1 0.2 1 0.4 0.6 0.5 0.4 0.2 0.2 0.4 0.9 2.3 2.6 1 0.9 2.6 1 1.3 0.9 0.6 1.4-0.1 0.3-0.3 0.2-0.3 0.1-0.3 0.2-0.3 0.7 0.2 0.4 0.3 0.4 0.1 0.5-0.3 1.6-0.3 0.7-0.6 0.7 4.7 0.8 1.9 0.9-0.4 2.1-0.7 0.6-1.1 0.3-0.9 0.6-0.4 1.2 0.4 1 0.8 1.4 0.9 1.3 0.7 0.5 6 6.5 1.2 1.8 2.4 1.1 1.7 1.2 0.8 1.3 2.1 1.5 7.1 3.2 18.2 11 6 3.6 6.4 2.4 7.8 3.5 5.5 3.4 7.6 7.7 7 5.3 0.9 0.3 1.4 0 2-2.5 0.4-0.6 0-0.3-1-0.1-0.3-0.1-0.2-0.2 0-0.3 0.2-0.5 0-0.2-0.4-0.8-0.1-0.4 0.3-1.2 0.1-0.6 0-1.1 0.1-0.4 0.3-0.5 1.1-1 0.5-0.7 0.3-0.6 0.3-1.1 1.5-2 1-0.6 0.4-0.4 0.1-0.4 0-0.3 0.1-0.3 0.5-0.6 0-0.4-0.1-0.4 0.1-0.2 0-0.3 0.4-0.8 0.3-0.6 0-0.3 0-0.3 0-0.2 0.1-0.3 0.1-0.9 1.4-2.2 2-2 2-2.9 0.7-0.7 1.1-0.7 1.4-0.7 2.5-1.9 0.9-1.3 0-1.7-1.8-4.4-0.1-1.5 0.5-2 0.7-1.2 0.9-1.1 0.7-0.5 0.5-0.2 1.2-0.1 9.2 9.8 1.5 0.7 2 0.5 1.6-0.5 10 0.4 3.4 0.6 7.9 5.5 1.1 1.4 0.2 0.5 0.1 0.4-0.1 0.5-0.3 1.5 0.3 7.9-4.4 4-3 1.5-2.3 1-1.1 0.8-0.6 0.9-0.1 0.7 0.1 0.8 0.1 0.9-0.4 1.2-1.2 2.1-1.8 1.8-1.3 1-1.1 0.5-2.6 0.8-1.8 1.1-0.9 0.8-0.4 0.7 0 0.6 0.1 0.7 0.4 0.7 0.5 0.7 0.3 1.3-0.2 1.6-1.4 3.1-1.2 1.6-1.3 1.2-1.5 1-1.5 1.4-1 1.2-0.6 1.1-0.5 1.3-0.3 0.1-0.4-0.3-3.4-3.1-1-0.6-0.8-0.4-1.4-0.3-1.8-0.8-0.8-0.4-0.4 0.2-1 1.4-0.2 0.6-0.1 0.4-0.1 1 1.4 3.6 0 0.6-0.3 0.9-1.1 1-0.1 0.3 0.1 0.1 0.3 0 0.3 0.1 0.4 0.4 0.4 0.9-0.1 0.4-0.3 0.3-0.9 0.2-0.4 0.1-0.4 0.1-0.4 0.3-0.4 0.7 0 0.4 0 0.2 0.2-0.1 0.2-0.2 0.2-0.1 0.3 0.2 0 0.3-0.2 0.3-0.4 0.5 0 0.3 0.2 0.2 0.3 0.1 0.3-0.1 0.5-0.3 0.3 0 0.3 0.2-0.1 0.3-0.1 0.4-0.4 1-0.2 0.3-0.6 0.7 0.1 0.4 0.2 0.5 0.3 1.1 0 0.9-0.6 2.1-0.9 2-0.7 1.1 0 0.5 0.2 0.6 0.5 0.7 0.9 1 0.7 0.6 0.6 0.3 1.1 1.3-1.3 0.9 0.3 2.2-0.1 0.4-0.3 0.3-0.5 0.1-0.7 0.5-0.1 0.6 0 2-0.2 0.5-0.3 0.1-0.2-0.2-0.5-0.6-0.3-0.1-0.4 0.2-0.4 0.3-0.3 0.2-0.3 0.1-1 0-0.9 0.3-0.3 0.3-1.9 2.8-0.4 0.8-0.2 0.9-0.2 0.3-0.3 0.2-0.3 0-0.2-0.2 0-0.1 0.2-0.6 0-0.3-0.2-0.2-0.5 0.1-0.3 0.4-0.4 0.6-0.2 0.7-0.4 0.3-0.4 0.2-1.1-0.1-0.9 0.2-0.3 0.2 0 0.3 0.2 0.3 0.2 0.4 0.1 2.6-0.1 0.3-0.2 0.2-1.1 0-0.7 0.2-0.4 0.3-0.2 0.4 0.1 0.4 0.7 1.2 0.1 0.4 0 0.4-0.2 0.7-0.4 0.4-1.9 1.4-0.2 0.3 0.5 0.8 0.1 0.5-0.6 1.8-0.3 1.4-1 1.5 0 0.5 0 0.9 0.3 0.3 0.4 0.1 0.7-0.1 0.7-0.2 2.5-0.3 2.4 0.4 0.6 0.2 0.8 0.4 4.2 3.8 1.1 1.4 0.7 1.7 0.3 2.1-0.1 2.1-0.5 1.9-3.1 4.9-1.7 4.7-0.2 1 0 1 0.2 1 0.5 0.9 0.6 0.8 1.8 1.9 0.2 0.4 0 0.5-1.2 2-0.4 0.8-1.4 6 1.1 2.5-0.3 2.7-0.8 2.8-3.6 3.3-1.5 1.1-2.2 2-1.3 1.7-4.9 7-6.7-0.4-3.1-2.1-3.4-1.1 3-2.4-0.9-1-2-3.4-2.8-7.2-1.7-3.1-1.5-1.6-3.1-2.9-2.8-0.8-15.3 0.3-8.3-2.7-11.2-4.5-9.8-1.7-4.9-1.8-12.5-11-14.7-14.8-6.2-8.3-4.8-11.7-0.9-5.9-1.4-5.9-2.4-3.3-0.7-3.3-0.4-6.9-1.7-9.5-10.9 6.2-3-0.4-3.9-2.2-17.8-14.6-3.6-16.1-0.1-24.3-0.7-1.6 2.3-10.9 10.5-2.3 32.6-0.2 3.4-0.5 0.9-0.6 0.2-0.7-0.2-0.5-0.4-0.6 0-0.2 0.5-1.3 0.1-0.5-0.1-0.4-0.2-0.7 0-0.3-0.1-0.3-0.3-1-0.1-0.2-0.3 0.1-0.3-0.1-0.3 0-0.3 0-0.4-0.1-0.1-0.1-0.1-0.2 0.2-0.2 0.1-0.3-0.1-0.2-0.3 0-0.2 0-0.1-0.2 0-0.4-0.1-0.1-0.3-0.1-0.2-0.1-0.2-0.2-0.1-0.7-0.7-1.3-0.3-0.8-0.5-0.1-0.2-0.1-0.2 0.1-0.1 0-0.1-0.2-0.1-0.3 0-0.8 0.3-1.9 0-0.7 0.1-0.7 0.4-0.9 0.1-0.5-0.1-0.3-0.2 0-0.1 0.1-0.2 0-0.3-0.1-0.2-0.2-1-2.9-0.1-0.9-0.1-0.8-0.4-0.8-0.5-0.6-1.4-1.1-0.7-0.7-2.5-3.2-0.2-0.8 0-1.4-0.5-0.8-0.2-0.8 0-0.8 0.2-1.5 0.2-0.3 0.4-0.6 0.5-0.9 0.1-0.7-0.2-0.8-0.9-2.2-0.8-1.2 0-0.2 0.2-0.2 0.3-0.2 0.3-0.7 0.3-0.4 0.3-0.4 0.3-0.1 0.3 0 0.3 0 0.3 0.1 0.2-0.1 0.2-0.1 0.1 0 0.3 0 0.3 0 2.6-1.2 1.1-0.8 2.1-1.8 0.9-0.5 0.8-0.3 1.5-0.1 11.1-7.6 6-2.5 1.7-1.2 1.8-0.6 1.3-1 1.4-2.4 0.7-0.9 1.3-0.4 1.2-0.1 0.9-0.5 0.3-1.6 0.2-0.9 0.9-0.8z" id="IQSD" name="Sala ad-Din">
  </path>
  <path d="M471.8 263.1l4.1 2.6 0.9 0.5 1.9 0.5 1 0 0.9-0.2 1.8-1.6 1.4-0.4 3.9-0.2 1.8-0.3 1.5-0.8 0.8-1.4 1-3.2 0.9-1.2 1.3-0.6 2 0.1 3-0.3 3-1.8 2-0.2 0.9-0.4 0.9-1.2 1-3.3 0.5-2.8 0.6-1.3 1.4-1.8 1.2-1.1 0.8-1 0-1.2-0.4-1.1-0.5-1-2-2.3-0.6-0.5-0.1-0.7 0.6-1 5.6-4.7 6.6-7.2 0.9-2.5 1.4-0.2 2.1 0.7 9.6 7 3.4-0.2 2-0.3 0.8-0.6 0.8-1.6 1.3-3.6 2.1-0.8 1.6-0.3 5 0.9 2 0.4 1.7 0.9 0.5 0.1 0.8 0 0.9-0.3 1.3-0.7 0.5-0.4 0.5-0.8 0.3 0 1.1 0.6 0.6 0.2 1.4 0.2 0.4 0.2 0.3 0.1 0.3-0.1 0.5-1 0.3-0.2 1.7-0.7 0.5-0.3 0.4-0.4 0.5-0.4 0.6-0.1 1.2 0.2 0.8 0 1.9-1.1 2 0.6 0.3 0.3 0.3 0.2 0.4-0.1 0.8-0.4 0.5-0.2 0.7 0.2 0.4 0.4 0.5 0.9 0.4 0.2 0.3 0 0.2-0.6-0.1-0.3-0.1-0.4-0.1-0.4 0.1-0.3 0.3-0.3 0.4-0.1 1 0.6 0.3 0.1 0.5-0.5 0.4-0.5 0.5-0.6 0.8-0.6 0.3-0.5 0.3-0.9 0.3-0.4 0.4-0.3 1-0.5 0.3 0.1 0.3 0.4 0 1.1 0.5 0.9 5.1 11.2 2.3 2.5 2.1 2.9 4.2 3.7 0.8 2.3 0.1 1.9-1.6 2.7-0.4 1.2-0.2 2.9-0.3 1.3-0.3 4-0.3 3.3 0.2 1.1 0.6 1.1 2 2.2 1.7 2.4 0.1 1.3-0.5 1.6-0.9 1.9-3.3 4.5-0.7 2.2 0.2 1.6 0.6 1.9 0.4 1.7-0.4 1.7-1 2.4-0.3 1.5-0.2 0.7-0.3 0.5-0.7 0.2-0.9 0.5-1.1 0.7-0.9 1.4-0.4 1.1 0 0.9 0.1 0.8 0.7 1.6-0.3 0.9-1 1-7.1 2.2-4 3.4-1.2 0.1-0.5 0.2-0.7 0.5-0.9 1.1-0.7 1.2-0.5 2 0.1 1.5 1.8 4.4 0 1.7-0.9 1.3-2.5 1.9-1.4 0.7-1.1 0.7-0.7 0.7-2 2.9-2 2-1.4 2.2-0.1 0.9-0.1 0.3 0 0.2 0 0.3 0 0.3-0.3 0.6-0.4 0.8 0 0.3-0.1 0.2 0.1 0.4 0 0.4-0.5 0.6-0.1 0.3 0 0.3-0.1 0.4-0.4 0.4-1 0.6-1.5 2-0.3 1.1-0.3 0.6-0.5 0.7-1.1 1-0.3 0.5-0.1 0.4 0 1.1-0.1 0.6-0.3 1.2 0.1 0.4 0.4 0.8 0 0.2-0.2 0.5 0 0.3 0.2 0.2 0.3 0.1 1 0.1 0 0.3-0.4 0.6-2 2.5-1.4 0-0.9-0.3-7-5.3-7.6-7.7-5.5-3.4-7.8-3.5-6.4-2.4-6-3.6-18.2-11-7.1-3.2-2.1-1.5-0.8-1.3-1.7-1.2-2.4-1.1-1.2-1.8-6-6.5-0.7-0.5-0.9-1.3-0.8-1.4-0.4-1 0.4-1.2 0.9-0.6 1.1-0.3 0.7-0.6 0.4-2.1-1.9-0.9-4.7-0.8 0.6-0.7 0.3-0.7 0.3-1.6-0.1-0.5-0.3-0.4-0.2-0.4 0.3-0.7 0.3-0.2 0.3-0.1 0.3-0.2 0.1-0.3-0.6-1.4-1.3-0.9-2.6-1-1-0.9-2.3-2.6-0.4-0.9-0.2-0.2-0.5-0.4-0.4-0.6-0.2-1 0.1-1.1 0.3-0.7 0-0.6-0.4-1.1 0.6-1.6 1.4 0.4 0.4 0.3 0.2 0.4 0.1 0.4 0.1 0.3 0.4 0.6 0 0.5 0 0.5 0.6 0.8 0.5 0.2 0.8 0 1.5-2.6 1.7-0.9z" id="IQTS" name="At-Ta'mim">
  </path>
  <path d="M555.8 493.4l4.8-1.3 1.2-3.8 0.6-0.8 0.5 0.1 6.5 0.3 1 0.2 1.8 1 3.4 3 2.9-2.2 0.3 0.3 0.3 0.5 0.2 1.2 0.2 1 0.5 1.5 0.1 0.4-0.1 0.1-0.1 0.3 0 1.3-0.5 1.1 0.1 3.2 0.1 3.3-0.2 0.8-0.3 0.7-0.4 0.3-0.3 0-0.1-0.3 0.3-0.4 0-0.9-0.7 1.7 0.2 0.9 0.4 0.8 0 0.4-0.1 0.5-0.6 0.7-0.2 0.2-0.9 1.3-0.2 4.7-15.1-0.7-2.4-0.7-1.1-0.2-1.2 0.2-1.1-1.2-2.4-1.5-1.1-1.1-0.9-1.8-0.5-2.3 0-2.3 0.4-2.1 1.1-2.1 2.9-3.1 0.8-2.1 0-0.6-0.1-0.5z" id="IQBG" name="Baghdad">
  </path>
  <path d="M576.5 515.5l0 1.3 1.1 2.3 1.7 4.2 0.7 2.7 0.3 2.3 0 4.3-0.5 1.5-1.6 0.9 0.7 3.2 0.3 11 0.6 2.7 0.6 1.7 0.6 0.6 0.5 0.4 0.5 0.2 12.9 0.9 0.7 0.1 5.8 3.4 4.6 1.4 3.3 0.4 0.8 0.2 0.5 0.9 3 1.2 2.3 1.3 1.3 1.1 1.3 1.4 0.5 1.1 3.9 13 3.6 8.1 1.6 2 1.8 1.8 1.4 1 1.6 0.5 5.4 0.2 1.2 0 0.2 3.4 0.2 2.3-1.3-0.1-0.8 0.2-1.3 0.5-4.1 2.5-1.1 0.8-1.1 1.4-0.6 0.6-7.9 5.2-5.9 2.4-4 3.1-2.6 2.5-0.7 0.4-0.5-0.3-1.1-1-0.5-0.5-0.5 0-0.7 0.3-0.9 0.9-0.5 1-0.3 0.7 0.2 0.5 0.3 0.5 0.8 0.6 0.1 1-0.1 0.8-0.4 0.6-0.4 0.4-1.4 0.8-0.6 0.5-1.7 2.1-0.6 0.6-0.8 0.4-0.9 0.3-1 0-1.2-0.4-5.1-3.1-2.7-0.9-4.7-1.5-2.7-1.5-2-1.8-2.5-1.3-4.5 3.2-0.7 0-0.8 0.1-0.4 0-1.9 1.3-3.2 3.1-1.4-1.9-0.5-0.9-0.7-1-0.6-0.7-1.7-2.8-0.7-2-0.2-1.2 0.7-1.1 2.2-1.2 0.4-1.9-0.6-0.5-0.6-1.1-1.3-5.2-0.3-1.1-1.9-3.8-0.7-2.2 0.5-1.8 0.9-2.2-0.7-2.1-5.1-7.6-1.5-3.7-0.2-4 3.2-11.8 0.8-0.9 0-1.2 0-0.7-0.4-0.8-2.2-2.3-0.7-0.5-0.5-0.2-0.4 0-0.5 0.2-1 0.6-0.4 0.1-0.5-0.1-3.2-0.9-2.5-0.4 1-10.3-4-2.8-2.5-2.9-1.1-2.9-1.6-8.1-2.2-6.5-2.8-2.8-8.9-4.5-4.5-1.1-1.2-1.6-0.5-2.3 3.1-0.4 4.2 0.6 8 2.1 8.7 0.1 2.2 0.3 2.3 0.7 5.8 3.4 2.1 0.6 1.9-0.5 1.6-1.7 2.8-3.8 1.2-0.2 1.1 0.2 2.4 0.7 15.1 0.7z" id="IQBB" name="Babil">
  </path>
  <path d="M693.5 680.5l-0.7 0.8-2 0.7-3.9 0-16.2-5.3-22.3-4.4-6.5-0.2-1 1.6-14.7 3.6-2.2 0.2 1.1 1.1 0.9 0.5 1.6 0.6 0.6 0.4 0.6 0.9 0.4 1.3 0.6 1 2 1-0.1 1.6-1.4 3.8-2.9 5.6-5.7 15.7-1.9 11.1-7.4-3.9-15.6-11.5-17.5-7.3-1.7-1.1-6-7.1-2-3.6 0.5-2.5 2-2.3 2-0.5 2.5 1 1.5 0.9 1.8-2.5-1.2-8.1 0-6.7 0.4-3.5-3-15.3 0.6-3.3 0.8-2.7 0.7-1 1.8-0.8 3.3-2.2 2.7-1 0.4-0.3 0.1-0.5-0.6-0.7-0.8-0.7-0.6-0.5-0.4-0.7-0.3-0.7 0-0.6 0.2-0.6 0.9-0.6 0.6-0.1 0.4 0 0.4-0.5 0.3-0.4 1.4-4.4 2.7 0.9 5.1 3.1 1.2 0.4 1 0 0.9-0.3 0.8-0.4 0.6-0.6 1.7-2.1 0.6-0.5 1.4-0.8 0.4-0.4 0.4-0.6 0.1-0.8-0.1-1-0.8-0.6-0.3-0.5-0.2-0.5 0.3-0.7 0.5-1 0.9-0.9 0.7-0.3 0.5 0 0.5 0.5 1.1 1 0.5 0.3 0.7-0.4 2.6-2.5 4-3.1 5.9-2.4 7.9-5.2 0.6-0.6 1.1-1.4 1.1-0.8 4.1-2.5 1.3-0.5 0.8-0.2 1.3 0.1 5.3 0.7 0.6 1.7 2.3 1 6.4 0.8 1.1 1.6 2 0.6 0.3 0.9-0.2 1-1.2 2.9-0.2 1.5 0.5 1.7 1.4 1.6 9.1 8.6 1.6 2.2 1.1 2 0.9 1.4 1.5 0.9 5.7 2.1 6.3 1.9 0.3 1.3-0.6 0.6-0.4 0.5 0.1 0.7 4.3 10-0.7 2.6-0.1 1.5 0.1 2.3 3.6 11.2 2.5 14.2z" id="IQQA" name="Al-Qādisiyyah">
  </path>
  <path d="M816 736.3l0.8 8.9-1.2 22.1-2.3 12.1-0.6 3-0.1 2.4 0.5 7.7-0.6 3-2.7 0.5-12.7-2.3-1.7-0.1-29.8 8.2-3 0.7-1.2 0-1.2-0.9-1-1.4-3.8-7.8-8.4-13.9-14.6-5.2-44.9-5.8-1.2-14.9 0.5-2.3 0.4-3.2 0.5-2 0.4-2.7 0.7-1.4 1.4-0.2 1.8 0.7 1.2-0.2 0.6-1.1 0.5-3.3 0.1-1.9-0.3-1-0.5-0.3-0.7-0.4-1.1-0.8-0.4-0.4-1.7-0.7-0.3-1.2 1.1-3.4 5.2-12.5-5-0.2-2.6-0.4-0.2-1.5 1-2 6.3-7.9 0.3-1.2-0.1-1.5-0.6-3.2-0.5-1.3-0.5-0.7-0.6-0.1-0.4-0.2-0.4-0.6 0-1 0.6-2.3 0.4-0.8 0.6-0.4 0.5 0.2 0.5 0.3 0.9 0.7 0.4 0.1 0.3-0.1 0.2-0.6 0.1-0.7-0.1-1.5 0-1.5 0.1-0.5-0.5-1.6-2.9-3.3-2.5-14.2-3.6-11.2-0.1-2.3 0.1-1.5 0.7-2.6 9.1 0.5 5.6-2.3 0.5 0 0.4 0.4 0.4-0.1 0.4-0.2 0.4-0.4 0.2-0.1 0.2 0.1 0.3 0.2 0.4 0.4 0.5-0.1 3.1-2.4 0.8-0.3 0.8 0.1 0.8 0.3 1.5 0.3 0.6-0.1 0.4-0.2 0.4-0.8 0.4-0.4 3.1-1.1 23.7 0 2 2 1.2 1.5 0.1 0.9-1.5 0.4-1.5 0.9-0.9 1.8 2.4 5.1 7.1 11.7-0.2 2.6-0.3 1.4 2.1 5.4 3.6 4.1 2.8 1.6 0.6 0.6 2.8 4.6 1.5 1.5 3 2.5 0.9 1.2 0.7 1.7 0.3 1.6-0.4 2.2-0.5 1.3-0.9 2-0.1 1.4 0 1 1.5 4.4 8.1 5.1 1.1 0.8 1.1 1.1 1.1 1.5 0.6 1.1 0.3 1 0.1 0.9-0.1 1.2-0.4 3.8 0 1.1 0.1 1.1 0.2 0.8 0.3 0.8 0.7 0.8 3.9 3.2 1.3 1.3 3.6 1.8 9.6-0.1 16 1.1z" id="IQDQ" name="Dhi-Qar">
  </path>
  <path d="M502.2 624.9l-4.4-3.8-15.1-11.3-21.5-21.9-2.2-3.3-0.7-3.3 4.9-2.5 4.3-1.7 11.2-1.6 1.9-0.2 1-0.3 2.5-1.6 17.1-15.2 7.2-3.5 7.7-1 10.5 0 15.7 4.8 2.5 0.4 3.2 0.9 0.5 0.1 0.4-0.1 1-0.6 0.5-0.2 0.4 0 0.5 0.2 0.7 0.5 2.2 2.3 0.4 0.8 0 0.7 0 1.2-0.8 0.9-3.2 11.8 0.2 4 1.5 3.7 5.1 7.6 0.7 2.1-0.9 2.2-0.5 1.8 0.7 2.2 1.9 3.8 0.3 1.1-1.1 2.8-0.1 0.6-0.5 1.2-0.4 0.6-0.8-0.5-1.1-0.9-2.3 0.3-8.6 2.6-42.5 12.3z" id="IQKA" name="Karbala'">
  </path>
 </g>
 <g id="points">
  <circle class="29.47875469035241|39.26374855521409" cx="97.8" cy="911" id="0">
  </circle>
  <circle class="32.8036990434121|44.15612058098439" cx="544.7" cy="556.1" id="1">
  </circle>
  <circle class="36.95987948473672|48.07001820160063" cx="902.2" cy="93.1" id="2">
  </circle>
 </g>
 <g id="label_points">
  <circle class="Dihok" cx="439.7" cy="82.9" id="IQDA">
  </circle>
  <circle class="Arbil" cx="547.6" cy="175" id="IQAR">
  </circle>
  <circle class="Al-Basrah" cx="849.8" cy="803" id="IQBA">
  </circle>
  <circle class="Al-Muthannia" cx="640" cy="845.7" id="IQMU">
  </circle>
  <circle class="As-Sulaymaniyah" cx="650.7" cy="262.6" id="IQSU">
  </circle>
  <circle class="Diyala" cx="615.2" cy="450.8" id="IQDI">
  </circle>
  <circle class="Wasit" cx="688.9" cy="574.6" id="IQWA">
  </circle>
  <circle class="Maysan" cx="814.2" cy="664.7" id="IQMA">
  </circle>
  <circle class="Al-Anbar" cx="317" cy="528.7" id="IQAN">
  </circle>
  <circle class="An-Najaf" cx="511.2" cy="733.4" id="IQNA">
  </circle>
  <circle class="Ninawa" cx="381.4" cy="193.3" id="IQNI">
  </circle>
  <circle class="Sala ad-Din" cx="496" cy="382.8" id="IQSD">
  </circle>
  <circle class="At-Ta'mim" cx="541.9" cy="279.7" id="IQTS">
  </circle>
  <circle class="Baghdad" cx="567.3" cy="502.4" id="IQBG">
  </circle>
  <circle class="Babil" cx="590" cy="591" id="IQBB">
  </circle>
  <circle class="Al-Qādisiyyah" cx="622.5" cy="646.9" id="IQQA">
  </circle>
  <circle class="Dhi-Qar" cx="736.5" cy="730.7" id="IQDQ">
  </circle>
  <circle class="Karbala'" cx="514.3" cy="587.7" id="IQKA">
  </circle>
 </g>
</svg>