<svg width="700" height="700" viewBox="0 0 700 700" fill="none" xmlns="http://www.w3.org/2000/svg">
<path d="M375.691 36.8216L375.411 37.9416L375.621 38.3616L375.831 38.4316L375.971 38.5716L376.111 38.9216L376.181 39.0616L376.251 39.1316L376.391 39.2016L376.531 39.2716L376.671 39.4116L376.881 39.4816L376.951 39.6916V39.9716L376.391 41.1616L376.181 41.6516V42.0016V42.2816L376.251 42.7716L376.321 43.2616L376.461 43.4716L376.601 43.6116L376.881 43.6816H377.231L377.371 43.7516L377.511 43.8916L377.651 44.8016V45.0816L377.581 45.2916L376.881 45.6416L376.181 46.2016L375.691 46.6916L374.921 47.6716L374.711 48.1616V48.4416L374.991 49.0016L374.851 49.2816L374.501 49.4916L373.731 49.8416L372.401 50.5416L372.051 50.8916L371.071 52.2216L370.791 52.6416L370.441 52.9916L369.951 53.3416L368.761 53.9016L368.271 54.1116L367.991 54.2516L368.061 54.5316L368.201 54.6716V54.8816L367.921 55.0216L365.541 56.0016L364.421 56.6316L364.001 56.9816L363.791 57.4716L363.511 58.3116L363.301 58.7316L362.951 59.0116L362.461 59.1516L361.551 59.5716L360.291 61.0416L358.331 60.5516L356.511 59.7816L352.031 59.0116L351.331 58.8016L350.141 58.1716L349.861 58.1016L349.581 58.0316L349.371 58.1016L349.161 58.3116L348.881 58.5916L348.671 58.8716L348.391 59.5016L348.321 59.7816V60.0616L348.251 60.6916L348.041 61.3216L347.831 61.9516V62.2316V62.5116V62.7916L348.041 63.1416V63.3516L348.181 63.5616L348.321 63.8416L348.951 64.3316L349.301 64.4716L349.651 64.6116H350.561L351.051 64.7516L351.611 65.0316L352.661 65.3816L353.081 65.4516L353.431 65.5916L353.641 65.8716L353.781 66.2216L353.851 66.6416L353.921 66.9916V67.4116L353.781 67.7616L353.221 68.8816L352.941 69.2316L352.661 69.4416L352.311 69.5816L352.241 69.7216L352.381 70.2116L352.451 70.4916V70.7016V70.9116V71.1216L352.521 71.5416V71.7516L352.591 72.0316V72.4516L352.521 72.9416L352.241 73.8516L352.031 74.0616H351.751L351.541 73.9216L350.491 73.5716L349.861 73.7116L349.441 73.9216L349.231 74.2016L349.091 74.6216V75.1116L349.021 75.4616L348.881 75.8116L348.391 75.8816L347.481 75.6716L338.241 73.1516L336.211 72.1716L335.091 71.1216L333.131 69.7216L332.291 68.8116L331.241 67.9716L330.331 67.4816L327.881 67.2016L326.831 67.5516L325.921 68.2516L325.501 69.0216L323.541 71.4016L321.651 74.5516L321.091 76.3716L320.461 77.7716L320.181 79.0316L319.271 79.7316L317.101 80.7816L314.511 81.0616L306.181 82.1816L300.931 85.1216L300.161 84.9116L299.251 84.9816L298.481 85.1216L297.851 85.5416L297.361 86.5216L296.801 85.2616L296.451 84.7716L296.031 84.3516L295.051 83.8616H294.561L292.321 84.9816H291.621L291.201 84.3516L291.341 83.7216L291.971 83.3016L293.371 82.7416L292.811 82.1116L292.321 81.9716L291.831 81.9016L291.201 81.6216L290.081 80.5716L288.121 78.4016L287.561 77.9816L286.791 77.8416L286.231 77.9816L285.881 78.3316L285.601 78.6816L285.251 78.8216H282.591L281.541 78.2616L280.701 75.8116L279.581 75.0416L277.621 73.9916L276.361 74.4816L275.661 73.8516L275.941 73.0116L277.621 72.8716L276.921 71.5416L276.361 70.9816L276.221 70.2116L276.711 68.4616L275.661 68.2516L275.591 66.9216L275.871 65.3116V64.1216L274.611 65.5216L273.491 65.5916L272.371 64.7516L269.921 62.3016L268.871 60.6216L267.961 58.7316L267.541 56.9816V55.7916L267.121 54.8816L266.701 54.1116L266.281 53.1316L269.081 52.7816L272.791 51.5916L278.251 50.6816L279.301 50.1916L279.511 49.7716L280.281 47.6016L288.331 35.8416L288.541 35.2116L288.681 34.6516L288.751 34.0916L289.171 33.4616L289.591 33.1816L292.741 31.8516H293.301L294.071 31.9216L294.631 32.3416L294.911 33.7416L295.471 34.1616L300.791 35.9116L303.311 36.2616L306.041 35.3516L307.721 34.0916L310.171 33.0416L312.691 32.3416L314.721 32.2016L315.771 32.4816L324.171 37.0316L324.661 37.1716L325.151 37.2416L325.711 37.1716L326.341 36.5416L326.901 36.2616L328.091 36.1216L328.861 36.2616L330.541 37.5916L331.381 38.2216L334.041 39.5516L336.981 42.0016L338.031 42.4216L338.871 42.3516L340.411 41.7216L341.251 41.5816L342.021 41.7216L342.581 42.0016L343.701 42.9116L345.381 43.5416L346.921 43.7516L353.431 43.3316L355.111 43.4716L356.651 43.8216L357.281 44.3116L358.611 45.6416L359.101 45.9216L359.941 45.7116L361.061 44.5216L364.491 43.8916L366.451 41.6516L368.341 38.9216L370.651 36.8916L373.591 36.4016L375.691 36.8216Z" fill="#F6F6F6" stroke="#BBBBBB" stroke-width="0.35" stroke-linecap="round" stroke-linejoin="round"/>
<path d="M375.691 36.8203L376.951 36.9603L383.111 39.5503L384.511 40.5303L385.561 41.5803L386.331 42.9803L386.891 44.8003L387.171 46.5503L387.241 47.6003L387.171 48.3703L386.681 49.2803L386.051 49.5603L385.281 49.7003L384.441 50.1903L383.391 51.5903L382.831 53.2003V54.9503L383.321 56.5603L385.841 62.4403L386.261 63.2803L386.821 63.7703L389.481 64.4003L390.321 64.3303L390.881 63.7703L391.511 62.4403L392.491 60.6903L392.701 59.4303L393.261 58.5903L398.651 56.7703L400.331 55.8603L401.941 54.6003L403.481 52.6403L405.791 50.4703L408.241 48.6503L410.341 47.6703L411.531 47.6003L418.251 48.5803L419.511 49.2103L420.281 50.6103L419.441 52.9203V53.6903L419.931 55.0903L420.281 55.6503L420.771 55.8603L421.261 56.0003L421.681 56.3503L421.961 56.8403L422.311 58.1003L422.591 58.4503L423.151 58.5903L424.411 58.2403L425.041 58.1703L425.461 58.4503L426.231 59.2203L427.631 59.9903L428.051 60.6903L427.911 61.5303L427.211 62.4403L426.861 64.5403L427.211 66.0103L427.841 67.2703L428.121 69.0903L427.771 70.9803L426.931 72.4503L424.621 75.2503L423.921 77.2103L424.481 78.6103L425.741 79.4503L427.421 79.8003L429.381 79.7303L430.291 79.8703L431.131 80.5703L431.691 81.2703L432.321 81.7603L433.091 81.9703L433.931 82.0403L434.981 82.6003L435.961 83.8603L437.501 86.7303L438.201 88.4803L438.061 89.9503L436.801 92.8203L436.171 95.5503L436.101 97.2303L435.891 97.3703L435.121 97.7203L434.841 97.9303L434.701 99.1903L435.611 100.38L435.821 100.59L435.611 101.36L435.261 102.13L434.351 103.46L433.651 103.95L432.741 104.3L430.501 104.16L427.771 103.46H426.511L425.111 103.81L421.751 105.49L418.951 106.19L416.081 106.68L414.191 106.12L413.141 105.98L411.811 106.4L409.851 107.94L408.661 109.34L407.961 110.39L405.791 112.28V113.96L406.141 114.87L409.851 120.54L410.481 119.77L410.901 119.49H411.531L412.161 120.05L415.381 123.97L415.731 124.53L415.941 125.23L415.311 125.86L413.841 126.56L413.351 126.98L413.001 127.61L412.651 128.1L412.161 128.66L410.761 129.71L411.041 130.76L411.391 131.46L417.831 136.08L419.301 136.71L420.071 137.2L420.631 137.69L425.321 143.36L427.351 145.25L428.961 146.37L433.301 148.54L433.721 149.03L433.791 149.31V149.52V149.66L433.651 149.87L433.511 150.36L433.441 150.57L433.021 150.85L432.531 151.06L431.901 151.13H430.431L429.801 150.92L429.451 150.71L429.311 150.57L429.171 150.43L429.031 150.36L428.751 150.01L428.541 149.87H428.261L427.561 149.94L427.351 149.87L426.931 149.73H426.721L426.231 149.8L426.021 149.94L425.951 150.15L426.651 151.41L426.721 151.62L426.371 152.11L425.391 152.46L424.761 153.09L424.621 153.16L424.411 153.02L424.271 152.6V151.41L424.131 151.2L423.921 151.06L423.711 150.99H423.501L423.221 151.2L423.011 151.48L422.941 151.69L422.871 152.25L422.801 152.53L422.591 152.67H422.311L421.821 152.25L421.541 151.9L421.261 151.55L420.981 151.48L420.631 151.41L420.071 151.62L419.721 151.83L419.371 151.97H419.021L418.671 151.62L418.321 151.13L417.971 150.99H417.481L415.941 151.48L415.591 151.55L415.241 151.48L415.031 151.13V150.92V150.71V150.5L414.891 150.36L414.681 150.22H414.471L413.701 150.64H413.491L413.211 150.43L413.071 150.15L412.791 150.01H412.581L411.391 150.5L411.041 149.87V149.1L410.831 148.82L410.621 148.75L409.921 149.1L409.641 149.31L409.431 149.59L409.221 150.22L409.011 150.57L408.451 150.99L408.101 151.41L407.821 151.76L407.471 152.11L407.261 152.04L406.561 151.62L406.281 151.69L406.071 151.9L406.001 152.11L406.071 152.39L406.141 152.67L406.211 152.88L406.071 153.3H405.861L405.581 153.16L405.231 152.53L404.951 152.25L404.461 152.11L404.111 152.25L403.551 152.53L403.271 152.6L403.061 152.46L402.851 152.25L401.451 151.83L400.121 152.6H399.561L398.721 152.46L398.301 152.53L397.951 152.81L397.671 153.09L397.321 153.3L396.131 153.79L395.921 153.93L395.571 154.63L395.361 154.7L395.151 154.63L394.871 154.49L393.891 154.35L393.471 154.21L392.701 153.79H392.491L392.141 154.35L391.791 154.63L390.881 155.12L390.251 155.33H389.691L389.341 155.26L388.151 154.63L386.751 154.35L383.251 153.72L382.131 153.93L380.661 154.49L379.751 157.01L379.191 158.13L378.631 158.55L377.231 158.76L374.851 158.9L368.131 154L366.661 153.51L365.681 153.65L365.051 155.4L360.431 160.44L356.511 163.73L356.091 164.43L356.161 164.92L356.581 165.27L357.981 166.88L358.331 167.58L358.611 168.35V169.19L358.051 169.89L357.211 170.66L356.231 171.92L355.811 172.83L355.461 174.79L354.761 177.1L354.131 177.94L353.501 178.22L352.101 178.36L350.001 179.62L347.901 179.83L346.501 179.76L345.591 180.18L344.961 181.02L344.261 183.26L343.701 184.24L342.651 184.8L341.391 185.01L338.661 185.15L337.681 185.43L336.421 186.55L335.791 186.69H335.091L333.761 186.34L333.131 185.99L330.261 184.17L330.751 184.03L330.961 183.96L331.101 183.75L331.171 183.33L331.241 182.35L331.521 181.3L331.591 180.81V180.04L331.311 173.95L331.101 172.76L330.611 171.85L330.191 171.43L329.911 171.22L329.561 171.15L329.281 171.01L329.141 170.8L329.071 170.52L329.211 170.03L329.351 169.4L329.071 168.42L328.791 167.65L328.441 167.16L328.161 166.81L328.021 166.6L327.951 166.32L328.161 165.83L328.301 165.48L328.721 163.31L327.671 160.86L327.601 160.37L327.531 159.74L327.811 158.83L329.211 155.61L329.491 155.12L329.911 154.91H330.331L330.821 154.77L331.311 154.28L332.011 152.74L332.571 147.28V145.81L332.361 145.25L331.521 145.18L330.471 145.04L329.771 144.34L329.421 142.38L329.911 141.54L338.241 138.11L338.941 137.41L339.781 136.08L339.991 135.66L340.061 135.31L339.991 133.7V133.21L340.131 132.51L341.531 129.99L341.671 129.43L341.811 128.87L342.161 128.17L342.371 127.96L342.931 127.89L344.121 126.91L344.891 125.37L345.241 124.46L345.591 123.97L347.551 122.08L348.181 121.31L348.881 120.05L349.441 119.35L349.931 118.86L351.331 118.23L352.241 117.18L352.801 116.9L353.921 116.13L354.971 115.22L357.631 112L358.751 110.11L359.241 108.5L359.171 107.38L359.031 106.61L358.751 105.91L358.821 105.63L358.961 105.42L359.241 105.35L359.941 105.49H360.361L360.851 105.35L361.341 105.07L361.971 104.58L362.181 104.23L362.251 103.81V103.46V103.18L362.111 102.9L361.971 102.62L361.831 102.27V101.5L361.971 101.15L362.251 101.01L363.861 101.22L364.281 101.15L364.841 100.94L365.121 100.52L365.261 100.03L365.191 99.0503L365.261 98.4903L365.471 98.2803L365.611 98.2103L365.821 98.4203L366.031 98.6303L366.241 98.9103L366.521 98.9803L366.941 98.8403L367.851 98.2103L368.271 97.5803L368.901 97.0903L369.181 96.6703L369.321 96.3903L369.601 95.6903L371.211 93.8703L371.771 93.3803L372.121 93.2403L372.261 93.3803L372.471 93.4503L372.751 93.3803L372.821 93.2403L372.611 92.8203L372.541 92.5403V92.1203L372.681 91.9803L372.821 92.0503L372.961 92.2603L373.031 92.5403L373.101 92.7503L373.311 92.9603L373.591 93.1003L373.871 93.1703L374.151 93.1003L374.501 93.0303L374.851 92.9603H375.131L375.271 93.0303V93.2403L375.201 93.5203L375.061 93.8003L374.991 94.0803L375.061 94.4303L375.271 94.6403L375.691 94.7803L375.901 94.6403L375.971 94.3603L376.041 94.0803L376.111 93.6603L376.251 93.4503L376.531 93.3803H376.741H376.951L377.651 93.1003L377.931 92.9603H378.281L378.631 93.1003L378.911 93.2403L378.981 93.3803V93.5903L379.051 93.8003L379.261 93.9403L379.961 93.8003L380.801 93.1003L381.851 92.4003L383.601 90.8603L384.091 90.5103L385.211 90.1603L386.191 88.5503L388.011 86.9403L390.321 83.8603L390.601 83.1603L390.671 82.8103L390.601 82.4603L390.461 82.2503L390.321 82.1103H390.181L390.041 82.1803L389.901 82.3203L389.761 82.3903L389.551 82.3203L389.201 81.4103L388.991 80.7803L388.291 80.1503V79.7303L388.221 79.1003L388.081 78.7503L387.731 78.4003L387.171 78.1203L386.121 77.2103L380.101 74.6203L379.611 74.2703L379.331 73.9203L379.121 73.5003L378.841 73.2903L378.631 73.2203L376.671 73.0103L376.111 72.8703L375.831 72.9403L375.551 73.0103L375.061 73.0803L374.781 72.8703L374.291 72.0303L374.221 71.8203L374.291 71.6103L374.361 71.2603V70.9103L373.941 70.2803L373.661 70.0703L373.381 70.0003H373.171L372.121 70.0703L371.981 69.9303V69.7903L372.121 69.6503L372.401 69.5803L372.541 69.4403L372.611 69.2303L372.331 68.7403L372.121 68.3203L372.051 67.9703L371.701 67.4803L371.351 67.1303L370.511 66.7103L369.601 66.0103L368.341 65.2403L366.941 63.8403L366.591 63.5603L366.241 63.4903L365.821 63.5603L364.351 63.2103L360.291 61.0403L361.551 59.5703L362.461 59.1503L362.951 59.0103L363.301 58.7303L363.511 58.3103L363.791 57.4703L364.001 56.9803L364.421 56.6303L365.541 56.0003L367.921 55.0203L368.201 54.8803V54.6703L368.061 54.5303L367.991 54.2503L368.271 54.1103L368.761 53.9003L369.951 53.3403L370.441 52.9903L370.791 52.6403L371.071 52.2203L372.051 50.8903L372.401 50.5403L373.731 49.8403L374.501 49.4903L374.851 49.2803L374.991 49.0003L374.711 48.4403V48.1603L374.921 47.6703L375.691 46.6903L376.181 46.2003L376.881 45.6403L377.581 45.2903L377.651 45.0803V44.8003L377.511 43.8903L377.371 43.7503L377.231 43.6803H376.881L376.601 43.6103L376.461 43.4703L376.321 43.2603L376.251 42.7703L376.181 42.2803V42.0003V41.6503L376.391 41.1603L376.951 39.9703V39.6903L376.881 39.4803L376.671 39.4103L376.531 39.2703L376.391 39.2003L376.251 39.1303L376.181 39.0603L376.111 38.9203L375.971 38.5703L375.831 38.4303L375.621 38.3603L375.411 37.9403L375.691 36.8203Z" fill="#F6F6F6" stroke="#BBBBBB" stroke-width="0.35" stroke-linecap="round" stroke-linejoin="round"/>
<path d="M535.082 663.741V663.671L535.432 661.851L536.832 647.081L537.322 645.191L538.092 643.511L540.472 639.381L540.682 637.491L540.752 628.111L541.592 620.691L546.772 592.761V590.661L546.632 588.701L546.212 587.231L545.652 585.831L539.352 576.661L538.582 574.841L538.022 572.741L536.972 565.881L535.922 561.261L556.782 555.521L557.972 555.591L566.862 557.201L568.752 556.851L569.172 554.751L568.822 549.361L568.892 547.681L569.312 545.581L570.922 537.111L571.762 521.641L571.202 515.411L571.902 510.861L573.092 508.971L574.422 507.851L576.592 506.801L585.482 504.491L588.352 504.281L597.522 505.191L606.342 507.431H606.412L606.132 525.491H627.132L627.832 525.911L628.042 526.891L627.832 562.731L627.902 564.971L634.692 565.951L635.392 566.231L636.092 566.651L637.142 567.771L637.982 569.241L638.542 570.851L639.032 574.141L639.382 574.841L639.872 575.401L640.572 575.681L641.342 575.821L642.112 575.751L644.422 575.401H645.262L646.032 575.681L646.592 576.171L647.922 578.341L649.952 580.721L652.472 583.031L652.892 583.591L653.172 584.361L653.312 585.201L653.172 585.971L652.682 586.601L652.052 587.161L651.562 587.791L651.422 588.561L651.562 589.121L652.332 590.801L653.662 592.271L654.012 593.041L654.152 593.181L655.342 596.821L655.482 597.801L656.042 599.201L656.322 599.691L656.742 600.111L657.652 600.811L658.562 601.441L660.592 602.001L661.012 602.211V602.561H662.552L662.832 603.261L662.062 604.171L660.382 604.591L653.382 603.891L648.482 602.211L646.242 600.461L644.002 599.761L640.432 597.521L637.632 596.541L634.692 595.981H631.962L629.512 596.611L625.102 599.061L624.612 597.101L624.402 594.861L623.982 592.831L622.932 591.431L623.702 593.811L623.772 594.721L623.632 595.701L623.352 596.611L623.282 597.381L623.772 598.011V599.761L609.912 592.761L606.202 592.061H589.682L586.042 592.551L575.752 596.821L572.392 599.061L570.222 602.211L564.762 616.141L562.382 620.551L562.102 621.601L561.822 623.771L561.682 624.541L560.422 627.271L555.662 635.251L553.772 640.221L552.792 641.691L548.732 646.171L544.672 652.961L535.082 663.741Z" fill="#F6F6F6" stroke="#BBBBBB" stroke-width="0.35" stroke-linecap="round" stroke-linejoin="round"/>
<path d="M360.082 613.059L360.852 611.659L374.922 587.019L386.402 553.769L388.712 549.219L391.302 545.789L392.352 544.809L395.502 542.499L399.352 540.819L399.772 540.539L402.922 535.639L405.372 532.699L408.382 530.039L411.392 524.579L412.932 521.009L417.762 494.689L428.682 502.739L433.862 505.469L435.192 497.699L439.182 486.709L441.212 482.789L442.192 480.129L442.262 479.009L440.862 478.309L440.442 477.609L440.162 476.699L439.742 476.069L439.322 475.789L438.202 475.369L437.572 475.019L436.802 474.249L438.342 474.109L448.632 471.589L449.332 470.469L453.882 470.609L469.492 473.689L480.832 477.399H483.562L484.962 476.909L485.452 476.349L487.482 478.659L487.832 479.779L487.762 480.129V481.179L487.832 482.229L487.762 482.719L487.622 483.139L487.412 483.209L487.132 483.139L486.502 482.649L486.152 482.439L485.802 482.299L485.382 482.579L485.102 483.139L484.682 484.749V485.449L484.962 485.869L485.242 486.009L485.662 486.079L486.012 486.569L486.362 487.479L486.782 489.719L486.852 490.769L486.642 491.609L482.232 497.139L481.532 498.539L481.672 499.589L483.492 499.869L486.992 500.009L483.352 508.759L482.582 511.139L482.792 511.979L483.982 512.469L484.262 512.749L485.032 513.309L485.522 513.589L485.872 513.799L486.082 514.499L486.012 515.829L485.662 518.139L485.242 518.909L484.402 519.049L483.142 518.559L482.162 518.699L481.672 519.679L481.392 521.569L481.042 522.969L480.762 525.209L480.412 526.819L481.252 537.249L512.682 541.309L522.902 544.949L528.782 554.679L531.442 560.139L532.142 561.119L532.982 561.749H533.822L535.922 561.259L536.972 565.879L538.022 572.739L538.582 574.839L539.352 576.659L545.652 585.829L546.212 587.229L546.632 588.699L546.772 590.659V592.759L541.592 620.689L540.752 628.109L540.682 637.489L540.472 639.379L538.092 643.509L537.322 645.189L536.832 647.079L535.432 661.849L535.082 663.669V663.739L533.262 665.769L530.392 666.399L527.662 666.959L526.542 667.239L524.862 667.589L522.062 668.149L515.272 667.589L510.442 667.099L505.542 666.679L500.712 666.259L495.812 665.769L489.302 665.209L482.722 664.649L476.142 664.019L469.632 663.459L463.052 662.829L456.472 662.269L449.962 661.639L443.382 661.079L438.272 660.589L433.232 660.099L428.122 659.679L423.012 659.189L417.202 658.699L416.782 658.489L416.362 658.349L415.942 658.209L415.522 657.999L410.622 654.079L404.532 649.109L398.442 644.209L392.352 639.239L386.262 634.339L378.912 628.389L371.632 622.439L364.282 616.489L360.082 613.059Z" fill="#F6F6F6" stroke="#BBBBBB" stroke-width="0.35" stroke-linecap="round" stroke-linejoin="round"/>
<path d="M435.823 100.594L436.873 101.434L437.713 102.344V103.464L438.133 104.094L438.693 104.654L439.183 105.424L439.533 106.474L439.603 107.244L439.883 107.944L440.583 108.784L442.333 109.624L444.223 109.484L447.793 108.014L449.403 108.154L450.523 109.554L451.223 111.584L451.503 113.404L451.643 116.834L452.133 118.234L453.323 119.774L451.783 120.754L452.133 121.734L453.323 122.644L454.233 123.554L454.583 125.094L454.373 128.734L454.723 130.414L456.683 133.004L457.523 134.614L457.243 136.154L456.473 137.414L455.703 139.024L455.283 140.704L455.703 141.964H455.773L456.893 143.154L458.223 143.364L459.623 142.874L460.953 141.964L462.073 141.614L464.243 140.564H465.923L467.323 141.054L469.773 141.964L472.153 144.204L472.993 144.694L474.673 145.044L476.633 146.794L479.573 150.994L481.183 155.054L481.953 156.104L483.143 156.454L485.523 155.684L486.293 155.824L487.273 156.524L488.603 156.454L489.863 155.824L491.403 154.494L492.033 154.564L492.733 154.774L493.363 154.844L495.463 154.144L499.523 154.284L500.783 153.864L502.043 153.164L503.023 152.744L504.073 152.814L506.103 153.584L506.523 153.654L506.873 153.934L507.153 155.544L507.433 156.034L507.853 156.524L508.343 156.944L509.673 157.504L511.003 157.434L513.733 156.874L514.923 156.384L516.043 155.614L517.163 155.054L518.563 155.194L519.613 155.964L520.103 157.014L519.963 158.274L519.193 159.534L518.213 160.444L516.253 161.704L515.413 162.964L514.363 163.944L513.033 164.084L510.583 163.944L507.363 165.694L506.033 165.974L501.553 165.834L500.223 166.324L499.453 167.164L498.893 168.424L498.683 169.824V171.154L499.313 174.164L499.103 175.214L497.213 174.654H496.863L496.583 174.724L497.143 176.334L497.843 177.804L498.123 178.154L498.193 178.434L498.123 178.784L497.843 179.064L497.353 179.484L497.003 179.974L496.863 180.604V181.374L497.703 183.614L501.833 190.194L505.333 193.344L506.873 195.164L507.363 197.474L507.223 197.754L506.873 198.524L506.103 199.504L505.473 200.484L505.683 201.744L506.593 202.374L509.043 202.304L510.023 203.144L509.743 205.174L508.413 207.554L507.503 209.794L508.833 211.334L508.343 212.244L507.643 212.664L506.873 212.804L505.263 213.364L504.073 213.014L503.443 213.084L501.693 214.134L500.783 215.044L499.803 215.324L497.843 214.484L497.003 214.554L496.373 214.274L495.043 213.364L494.063 213.014L493.643 213.224L492.733 214.694L492.663 215.044L492.873 216.024L492.733 216.374L492.383 216.584L491.473 216.654L491.053 216.794L490.353 217.494L490.073 218.404L490.003 219.454L490.213 220.504L490.773 222.534L490.633 224.004L490.073 225.404L489.583 227.294L488.603 228.624L486.923 227.994L486.153 227.644L485.733 226.734L485.103 219.594L485.243 219.034L485.383 218.894L485.523 218.964L486.013 218.894L486.293 218.964L486.573 219.034L486.853 219.104H487.133L487.413 219.034L487.693 218.894L487.903 218.824L487.203 217.704L482.793 213.014L482.443 212.454L482.163 212.174L481.673 211.684L481.253 211.474H480.833L480.483 211.684L479.923 212.314L479.783 212.734V213.224L479.503 213.644L479.153 214.134L478.453 214.974L478.173 215.464L477.893 216.094L477.683 216.374L477.193 216.654L477.053 216.724L476.843 216.934L476.703 217.004L476.563 216.934V216.794V216.584L476.493 216.374L476.353 216.234L476.143 216.304L475.933 216.584L475.513 217.284L475.373 217.704L475.443 218.334L475.583 218.544H475.723L475.933 218.474L476.073 218.404L476.213 218.544L476.143 218.824L475.863 219.384L475.303 219.734L475.023 220.084L474.813 221.134L474.183 221.694L474.323 222.184L474.533 222.254L475.163 222.324H475.373L475.583 222.464L475.653 222.604V222.744V222.954V223.164L475.513 223.654L475.163 224.354L473.693 226.734L473.203 227.434L471.523 228.974H471.313L471.103 228.904L470.893 228.974L470.753 229.114L470.683 229.534L470.613 229.884L470.333 230.374L469.703 231.074L469.213 232.264L469.003 233.174L468.443 234.644L468.373 234.924L468.233 235.204L467.813 235.344L467.533 235.624L467.253 236.044L466.413 238.214L465.713 239.474L465.433 240.034L465.293 240.454V240.734L465.223 241.014V241.294V241.574L465.293 241.784L465.363 241.994L465.293 242.204L465.153 242.764L465.013 243.184L464.243 244.444L464.033 245.144V245.424L463.963 245.564L463.683 245.984L463.193 246.404L462.003 247.034L461.373 247.314L460.813 247.454H460.393L459.763 247.594H459.553H459.063L458.223 248.294L451.223 256.694L449.123 257.954L448.983 256.764L448.843 256.414L448.703 256.134H448.423H448.213L448.003 256.064L447.513 255.924L447.303 255.784L447.163 255.434V255.084L447.583 254.244L447.793 253.754L447.863 253.264L447.933 252.844L447.863 252.494L447.443 251.304L447.373 250.814V250.394L447.443 250.044L447.653 249.694L448.493 248.714L448.773 248.294L448.913 247.944V247.664L448.213 245.634L447.793 243.884V243.324L447.723 242.974L447.793 242.624V242.134L447.513 240.384L447.303 237.654L447.093 236.884L446.603 236.114L446.113 235.484L445.203 234.714L444.573 234.364L443.803 234.154L442.403 233.944L441.703 234.014L441.143 234.224L439.603 235.064L439.253 235.204L438.833 235.134L438.413 234.784L437.783 233.944L436.453 232.614L433.093 230.374L432.883 224.844L433.093 223.794L433.163 223.444L433.093 223.164L432.953 222.814L432.183 221.834L426.653 217.984L424.273 217.564L417.273 217.284L416.153 217.634L414.753 217.284L413.703 216.794L407.263 209.934L410.063 207.554L415.033 206.014L415.733 205.314L415.943 204.684L415.453 203.564L415.383 203.004V202.374L415.663 201.604L416.293 200.624L417.063 200.134L417.693 199.784L418.183 199.644L418.393 199.294L418.533 198.804L418.743 197.754L419.443 196.074L419.723 194.884L419.443 193.694L419.023 192.364L418.883 191.244L419.373 189.704L421.683 186.554L422.313 185.224L422.663 184.104L422.593 183.194L421.403 181.514L420.003 179.974L419.583 179.204L419.443 178.434L419.653 176.124L419.863 173.324L420.073 172.414L420.213 170.384L420.493 169.544L421.613 167.654L421.543 166.324L420.983 164.714L418.043 162.124L416.573 160.094L414.963 158.344L411.393 150.504L412.583 150.014H412.793L413.073 150.154L413.213 150.434L413.493 150.644H413.703L414.473 150.224H414.683L414.893 150.364L415.033 150.504V150.714V150.924V151.134L415.243 151.484L415.593 151.554L415.943 151.484L417.483 150.994H417.973L418.323 151.134L418.673 151.624L419.023 151.974H419.373L419.723 151.834L420.073 151.624L420.633 151.414L420.983 151.484L421.263 151.554L421.543 151.904L421.823 152.254L422.313 152.674H422.593L422.803 152.534L422.873 152.254L422.943 151.694L423.013 151.484L423.223 151.204L423.503 150.994H423.713L423.923 151.064L424.133 151.204L424.273 151.414V152.604L424.413 153.024L424.623 153.164L424.763 153.094L425.393 152.464L426.373 152.114L426.723 151.624L426.653 151.414L425.953 150.154L426.023 149.944L426.233 149.804L426.723 149.734H426.933L427.353 149.874L427.563 149.944L428.263 149.874H428.543L428.753 150.014L429.033 150.364L429.173 150.434L429.313 150.574L429.453 150.714L429.803 150.924L430.433 151.134H431.903L432.533 151.064L433.023 150.854L433.443 150.574L433.513 150.364L433.653 149.874L433.793 149.664V149.524V149.314L433.723 149.034L433.303 148.544L428.963 146.374L427.353 145.254L425.323 143.364L420.633 137.694L420.073 137.204L419.303 136.714L417.833 136.084L411.393 131.464L411.043 130.764L410.763 129.714L412.163 128.664L412.653 128.104L413.003 127.614L413.353 126.984L413.843 126.564L415.313 125.864L415.943 125.234L415.733 124.534L415.383 123.974L412.163 120.054L411.533 119.494H410.903L410.483 119.774L409.853 120.544L406.143 114.874L405.793 113.964V112.284L407.963 110.394L408.663 109.344L409.853 107.944L411.813 106.404L413.143 105.984L414.193 106.124L416.083 106.684L418.953 106.194L421.753 105.494L425.113 103.814L426.513 103.464H427.773L430.503 104.164L432.743 104.304L433.653 103.954L434.353 103.464L435.263 102.134L435.613 101.364L435.823 100.594Z" fill="#F6F6F6" stroke="#BBBBBB" stroke-width="0.35" stroke-linecap="round" stroke-linejoin="round"/>
<path d="M486.151 227.639L485.031 227.009L483.491 227.079L483.071 228.549L483.211 230.509L482.931 232.469L481.111 233.659L479.291 233.869L478.521 234.219L477.891 235.129L477.681 236.039L477.821 237.579L477.611 238.489L475.861 240.519L475.371 241.779L476.281 242.899L476.841 243.179L477.401 243.599L477.891 244.229L478.101 244.859L478.311 245.629L478.591 246.119L478.941 246.539L479.221 247.029L479.431 248.499V249.969L479.641 251.299L480.341 252.279L480.551 252.839V253.679L480.341 254.449L480.131 254.939L479.711 255.079L478.311 254.589L473.901 254.239L471.941 253.749L469.771 252.559L467.251 251.859L466.971 253.959L467.531 257.109L467.461 259.419L467.111 260.049L466.761 260.609L466.341 261.099L465.921 261.519L462.561 262.219L461.931 263.269L463.891 269.639L464.731 271.319L465.921 272.229L467.181 271.179H468.581L469.911 272.019L470.891 273.559L471.241 275.309L471.101 277.199L470.261 280.909L469.911 281.609L469.071 283.079L468.931 283.779L469.211 284.689L469.701 285.319L470.051 286.019V286.859L469.421 287.769L466.831 289.869L465.921 290.849L464.311 292.249L463.611 293.929L463.051 295.889L462.071 298.059L461.581 298.619L460.951 299.039L459.551 299.669L460.881 301.559L462.351 302.329L464.031 302.469L465.921 302.189H466.061L466.201 302.259L466.271 302.329L472.011 312.759L472.851 313.669L473.831 314.509L474.671 315.419L475.161 316.749L475.441 318.289L475.861 319.619L476.491 320.879L477.331 322.139L478.311 323.119L481.321 325.289L481.601 325.849L481.811 326.409L481.741 329.139L482.231 329.699L483.351 329.419L484.401 328.719L486.221 326.899L487.411 326.409H490.491L491.891 326.059L491.611 328.369L492.801 329.559L494.131 330.469L494.551 332.149L493.781 333.339L490.771 335.229L489.791 336.489L490.841 337.469L492.731 337.889L494.691 337.679L495.881 336.489L496.161 336.349L496.511 336.279L496.861 336.349L496.931 336.419L495.811 337.609L494.831 339.359L494.551 339.849L493.851 342.579L493.361 343.139L492.661 343.699L491.191 344.609L490.421 344.959L489.861 345.099H489.511L489.091 345.239L488.601 345.449L485.591 347.689L484.961 348.529L484.401 349.019L483.631 349.509L482.651 349.929L482.371 349.999L482.161 349.929L481.881 349.789L481.601 349.719L481.321 349.859L480.971 350.279L480.271 351.329L478.031 354.059L477.401 354.899L476.981 355.739L476.701 356.789L476.141 358.399L475.301 359.659L473.621 361.759L472.151 363.929L471.731 364.419L469.281 366.519L468.231 367.639L467.391 368.689L466.691 369.039L466.201 369.249L462.421 368.199L442.401 362.389L436.171 363.089L433.931 362.879L426.581 361.129L424.691 360.989L423.431 362.039L422.031 363.719L420.561 365.819L417.831 367.989L416.711 369.109L416.081 370.019L416.431 370.859L416.641 371.209L416.991 372.329L416.711 372.469L416.011 373.099L415.311 373.379L414.611 373.309L413.911 373.099L413.211 372.749L412.651 372.329L412.161 371.909L411.741 371.349L411.391 370.649L410.831 369.109L410.411 368.409L409.991 368.689L409.501 369.739L408.871 371.699L408.241 372.819L407.961 373.519L407.681 374.009L407.401 374.219L407.261 374.289L405.861 373.869L406.211 372.819V369.809L406.001 368.199L405.511 366.309L404.321 363.369L403.551 361.759V360.849L403.691 357.559L404.321 356.649L404.461 356.509L404.881 356.019L404.951 355.669V355.389L404.671 354.829L404.531 354.199L405.021 353.009V353.639L404.811 353.919L404.881 354.129H405.091L405.371 353.919L405.581 353.429L405.721 352.869L405.651 350.559L405.581 348.319L405.931 347.549V346.639L406.001 346.429L406.071 346.359L406.001 346.079L405.651 345.029L405.511 344.329L405.371 343.489L405.161 343.139L404.951 342.929L402.921 344.469L400.541 342.369L399.281 341.669L398.581 341.529L394.031 341.319L393.681 341.249L393.261 341.809L392.421 344.469L389.061 345.379L388.851 345.449L386.961 341.179L390.391 336.279L391.301 335.089L392.841 333.689L393.891 332.919L396.411 330.609L396.971 328.649L397.181 326.759L396.411 325.009L397.391 320.809L397.671 320.249L398.511 318.849V318.499L398.371 318.219L397.111 316.889L396.691 316.329L396.341 315.699L396.201 314.999V314.299L396.341 313.599L397.531 310.309L399.701 306.879L400.051 305.549L400.121 304.079L399.911 302.609L399.421 301.419L398.651 300.439L395.711 297.779L395.151 297.499L394.731 297.359L393.051 297.079L391.301 297.289L390.811 297.429L390.321 297.499L390.041 297.429L389.831 297.219V296.589V296.239L390.531 295.189L390.741 294.209L391.161 292.949L391.091 292.599L390.741 292.039L390.881 291.829L392.211 290.849L392.491 290.569L392.631 290.079V289.799L392.561 289.519L392.071 288.679L392.001 288.399L392.141 288.119L392.421 287.909L392.911 287.769H393.681L393.821 287.629L393.891 287.419L393.821 285.599L393.681 285.319L393.541 285.109V284.899L393.751 284.759L394.381 284.619L395.151 284.689L395.431 284.549L395.711 284.339L395.851 283.849L396.131 283.429L396.341 283.149L396.691 283.079L396.831 283.219V283.429L396.691 283.849V283.919L396.831 284.059H397.041L397.251 283.919L397.391 283.709L397.531 283.079L397.811 282.519L399.141 280.559L399.351 280.349L399.981 280.139H400.681L400.891 280.069L401.101 279.929L401.381 279.719L401.661 279.579L401.871 279.649L402.221 280.069L402.361 280.209L402.571 280.139L402.711 279.789V278.389L402.781 277.969L403.271 277.619L403.621 277.549L403.831 277.339L403.901 277.059L403.691 275.519L404.601 274.889L403.831 273.979L403.411 273.769L402.921 273.349L402.291 272.649L401.941 272.159L401.801 271.739V271.389L402.291 270.619L402.921 269.219L403.341 267.749V267.119L403.131 266.349L402.991 265.999L402.921 265.719L403.341 265.229L403.481 265.019L403.761 264.319L403.831 264.039L403.901 263.829L403.691 263.689H403.481L403.131 263.899L402.921 263.969L402.711 263.899L402.571 263.759V263.549L402.851 263.199L402.991 262.989V262.779L402.781 262.639L402.641 262.709L402.501 262.849L402.361 262.919V262.779V262.499L402.641 262.009L402.921 261.799L403.201 261.729L403.481 261.659L404.111 261.519L404.321 261.309L404.391 261.029L404.111 260.399L403.831 260.119L403.621 260.049H403.411L403.341 259.979L403.411 259.769L404.181 259.069L404.391 258.439V258.019L403.411 255.499L403.481 254.799L403.551 254.519L403.691 254.099L404.391 253.119L404.671 252.979L405.231 253.259L406.491 253.819L407.471 254.029L408.031 254.309L408.731 254.729L411.111 256.899L411.391 257.109L411.601 257.039L411.951 256.129L412.371 255.359L413.071 254.519L414.121 253.539L415.171 252.839L416.081 251.999L416.921 250.879L417.901 248.709L418.041 247.589L417.831 246.679L417.481 246.189L417.201 245.699L417.131 245.209V244.789L417.411 244.299L418.041 243.739L419.301 242.969L421.121 242.409L421.891 242.059L422.801 241.359L424.061 240.099L424.901 238.629L425.181 237.789L425.111 237.159L425.041 236.599L425.111 236.109L425.531 235.479L426.301 234.919L427.911 234.219L430.011 233.169L433.091 230.369L436.451 232.609L437.781 233.939L438.411 234.779L438.831 235.129L439.251 235.199L439.601 235.059L441.141 234.219L441.701 234.009L442.401 233.939L443.801 234.149L444.571 234.359L445.201 234.709L446.111 235.479L446.601 236.109L447.091 236.879L447.301 237.649L447.511 240.379L447.791 242.129V242.619L447.721 242.969L447.791 243.319V243.879L448.211 245.629L448.911 247.659V247.939L448.771 248.289L448.491 248.709L447.651 249.689L447.441 250.039L447.371 250.389V250.809L447.441 251.299L447.861 252.489L447.931 252.839L447.861 253.259L447.791 253.749L447.581 254.239L447.161 255.079V255.429L447.301 255.779L447.511 255.919L448.001 256.059L448.211 256.129H448.421H448.701L448.841 256.409L448.981 256.759L449.121 257.949L451.221 256.689L458.221 248.289L459.061 247.589H459.551H459.761L460.391 247.449H460.811L461.371 247.309L462.001 247.029L463.191 246.399L463.681 245.979L463.961 245.559L464.031 245.419V245.139L464.241 244.439L465.011 243.179L465.151 242.759L465.291 242.199L465.361 241.989L465.291 241.779L465.221 241.569V241.289V241.009L465.291 240.729V240.449L465.431 240.029L465.711 239.469L466.411 238.209L467.251 236.039L467.531 235.619L467.811 235.339L468.231 235.199L468.371 234.919L468.441 234.639L469.001 233.169L469.211 232.259L469.701 231.069L470.331 230.369L470.611 229.879L470.681 229.529L470.751 229.109L470.891 228.969L471.101 228.899L471.311 228.969H471.521L473.201 227.429L473.691 226.729L475.161 224.349L475.511 223.649L475.651 223.159V222.949V222.739V222.599L475.581 222.459L475.371 222.319H475.161L474.531 222.249L474.321 222.179L474.181 221.689L474.811 221.129L475.021 220.079L475.301 219.729L475.861 219.379L476.141 218.819L476.211 218.539L476.071 218.399L475.931 218.469L475.721 218.539H475.581L475.441 218.329L475.371 217.699L475.511 217.279L475.931 216.579L476.141 216.299L476.351 216.229L476.491 216.369L476.561 216.579V216.789V216.929L476.701 216.999L476.841 216.929L477.051 216.719L477.191 216.649L477.681 216.369L477.891 216.089L478.171 215.459L478.451 214.969L479.151 214.129L479.501 213.639L479.781 213.219V212.729L479.921 212.309L480.481 211.679L480.831 211.469H481.251L481.671 211.679L482.161 212.169L482.441 212.449L482.791 213.009L487.201 217.699L487.901 218.819L487.691 218.889L487.411 219.029L487.131 219.099H486.851L486.571 219.029L486.291 218.959L486.011 218.889L485.521 218.959L485.381 218.889L485.241 219.029L485.101 219.589L485.731 226.729L486.151 227.639Z" fill="#F6F6F6" stroke="#BBBBBB" stroke-width="0.35" stroke-linecap="round" stroke-linejoin="round"/>
<path d="M496.932 336.422L497.142 336.492L497.352 336.632L497.562 336.772L499.662 339.502L500.432 340.832L500.922 342.232L501.132 343.842L501.202 345.102L501.482 346.222L503.652 348.252L506.172 351.892L508.202 353.502L509.112 354.412L509.672 355.742V356.512L509.322 357.982L509.252 358.612L509.532 359.312L510.302 359.802V360.502L509.882 361.482L508.972 362.532L507.292 364.282L505.892 365.262L504.912 365.472L503.792 365.402L502.392 365.542L501.132 366.242L501.062 367.152L501.972 367.922L504.772 368.272L505.962 368.762L506.872 369.602L507.222 370.652L506.802 371.982L505.892 372.962L504.842 373.802L504.002 374.712L505.402 377.792L509.112 378.282L516.672 377.372L523.462 379.542L529.832 382.552L531.652 384.372L537.602 387.802L536.622 389.552L535.992 390.322L534.592 391.302L534.102 392.072L529.972 404.672L529.552 408.312L529.622 412.932L529.552 413.772L529.342 414.542L529.132 415.592L528.922 416.082L528.012 417.482L527.662 418.322L527.592 419.022L528.152 419.582L529.202 420.492L529.482 420.912L529.762 421.542L529.622 422.172L526.962 429.942L526.612 431.272L526.822 432.392L527.942 433.372L535.782 436.732L537.042 438.622L537.812 440.022L536.062 451.362L534.732 451.502L532.282 450.942L529.972 449.752L527.452 449.402L519.472 449.752H502.882L500.712 450.522L500.432 450.802L500.152 451.362L499.872 451.502L499.452 451.572L498.402 451.362L497.842 451.152L497.282 451.082L496.722 451.292L494.552 452.972L494.202 453.042L493.922 452.762L493.712 452.622L493.572 452.552L493.432 452.622L493.152 452.902L492.872 453.042L492.592 453.112L492.312 452.832H491.962L488.042 454.442L481.672 454.092L478.662 447.092L478.592 446.602L478.872 446.252L479.292 445.832L479.082 444.922L474.672 443.592L470.682 442.122L469.632 441.492L469.002 440.512L468.232 439.112L467.112 437.572L460.742 431.552L459.762 430.432L459.412 429.242L459.552 428.192L460.392 426.162L460.532 425.462L460.322 424.832L458.922 424.412L458.152 423.292L453.672 422.732L452.062 422.032L451.642 420.842L447.932 420.352L447.792 418.742L447.652 416.362H446.812L443.032 416.222L441.912 415.872L440.932 415.172L439.672 413.912L438.552 412.512L436.032 406.842L433.302 397.742L432.952 396.972L432.042 395.992L431.132 395.222L429.522 394.312L427.422 393.472L427.072 392.842L426.512 392.702L424.202 392.422L420.982 391.442L416.922 389.062L416.432 388.992L407.402 388.362L407.052 388.222L406.702 387.942L406.282 387.522L405.862 386.332L405.442 384.442L405.232 376.742L404.742 374.502L405.862 373.872L407.262 374.292L407.402 374.222L407.682 374.012L407.962 373.522L408.242 372.822L408.872 371.702L409.502 369.742L409.992 368.692L410.412 368.412L410.832 369.112L411.392 370.652L411.742 371.352L412.162 371.912L412.652 372.332L413.212 372.752L413.912 373.102L414.612 373.312L415.312 373.382L416.012 373.102L416.712 372.472L416.992 372.332L416.642 371.212L416.432 370.862L416.082 370.022L416.712 369.112L417.832 367.992L420.562 365.822L422.032 363.722L423.432 362.042L424.692 360.992L426.582 361.132L433.932 362.882L436.172 363.092L442.402 362.392L462.422 368.202L466.202 369.252L466.692 369.042L467.392 368.692L468.232 367.642L469.282 366.522L471.732 364.422L472.152 363.932L473.622 361.762L475.302 359.662L476.142 358.402L476.702 356.792L476.982 355.742L477.402 354.902L478.032 354.062L480.272 351.332L480.972 350.282L481.322 349.862L481.602 349.722L481.882 349.792L482.162 349.932L482.372 350.002L482.652 349.932L483.632 349.512L484.402 349.022L484.962 348.532L485.592 347.692L488.602 345.452L489.092 345.242L489.512 345.102H489.862L490.422 344.962L491.192 344.612L492.662 343.702L493.362 343.142L493.852 342.582L494.552 339.852L494.832 339.362L495.812 337.612L496.932 336.422Z" fill="#F6F6F6" stroke="#BBBBBB" stroke-width="0.35" stroke-linecap="round" stroke-linejoin="round"/>
<path d="M537.601 387.805L537.811 387.945L540.751 390.325L544.951 392.915L547.611 395.925L566.861 412.725L568.891 414.265L570.851 415.315L572.881 415.735L575.121 415.455L576.241 415.035L579.181 413.425L580.091 413.495L583.731 414.755L585.061 415.455L585.901 416.435L586.601 417.555L587.651 418.955L589.401 420.285L589.751 420.845L589.821 421.685L589.611 422.175L589.261 422.595L588.701 423.995L588.421 424.275V424.695L588.841 425.675L589.121 426.165L591.081 427.985L591.361 428.335L591.571 428.825L592.761 430.365L593.111 430.785L593.741 431.135L594.091 432.045L595.351 433.025L595.701 434.005L595.561 435.055L595.211 435.755L594.861 436.455L594.581 437.295L594.511 438.345V438.905L595.001 439.255L595.981 439.535L596.821 440.095L597.311 440.865L597.871 441.495L598.851 441.635L600.111 442.125L600.251 442.335L601.161 443.665L602.631 446.955L603.611 448.075L605.851 449.195L606.481 450.525L606.761 451.855L609.071 455.985L609.491 456.615L610.681 457.315L611.171 457.805L611.521 458.505L611.801 459.835L612.081 460.395L613.061 461.515L615.581 463.405L616.491 464.735L616.631 466.345L616.281 468.095L606.551 494.625L606.411 507.435H606.341L597.521 505.195L588.351 504.285L585.481 504.495L576.591 506.805L574.421 507.855L573.091 508.975L571.901 510.865L571.201 515.415L560.001 514.645L553.281 514.715L550.761 513.455L549.851 512.545L547.121 510.305L546.631 509.745L546.421 509.185L546.281 508.625L546.211 507.855V507.085L546.491 504.425L546.561 503.585L546.491 502.955L546.281 502.255L545.861 501.485L545.091 500.435L544.321 499.665L543.551 499.105L537.881 495.535L536.831 492.455V491.755L536.901 490.775L537.531 489.375L537.881 488.465L538.161 486.925L537.951 485.805L537.461 484.615L536.831 483.775L534.731 482.025L533.681 480.975L531.721 477.755L531.301 477.335L529.341 476.215L526.821 473.345L525.351 469.565L525.561 468.585L525.701 466.765L520.731 458.575L519.051 455.005L519.681 453.745L520.731 453.115L521.781 452.835L521.711 452.205L520.871 451.155L519.471 449.755L527.451 449.405L529.971 449.755L532.281 450.945L534.731 451.505L536.061 451.365L537.811 440.025L537.041 438.625L535.781 436.735L527.941 433.375L526.821 432.395L526.611 431.275L526.961 429.945L529.621 422.175L529.761 421.545L529.481 420.915L529.201 420.495L528.151 419.585L527.591 419.025L527.661 418.325L528.011 417.485L528.921 416.085L529.131 415.595L529.341 414.545L529.551 413.775L529.621 412.935L529.551 408.315L529.971 404.675L534.101 392.075L534.591 391.305L535.991 390.325L536.621 389.555L537.601 387.805Z" fill="#F6F6F6" stroke="#BBBBBB" stroke-width="0.35" stroke-linecap="round" stroke-linejoin="round"/>
<path d="M191.802 207.625L193.132 207.695L201.392 208.465L212.172 211.545L216.442 212.245L233.942 219.525L242.412 222.815L246.542 223.095L255.572 221.905L256.692 222.185L258.932 223.235L260.892 224.075L274.822 222.185L275.312 223.305L275.382 240.315L277.902 251.585L290.362 261.805L293.092 263.345L295.192 263.625L302.822 259.285L304.012 265.935L304.292 270.765L304.782 273.075L306.462 275.385L307.442 279.515L308.072 283.645L311.432 291.835L315.772 297.645L326.062 308.005L334.812 315.705L338.242 316.965L345.102 318.155L352.942 321.305L358.752 323.195L369.462 322.985L371.422 323.545L373.592 325.575L374.642 326.695L375.832 328.865L377.792 333.905L379.192 336.285L379.822 336.985L377.722 338.665L380.102 339.435L382.272 340.905L386.962 341.185L388.852 345.455L389.062 345.385L389.132 345.735V346.155L388.572 347.625L386.542 349.795L385.772 351.265L385.492 352.735V354.345L385.842 355.955L386.472 357.215L387.242 357.985L388.922 359.035L389.692 359.875L387.732 362.535L386.612 363.725L385.282 364.075L383.812 363.655L379.752 361.275L378.142 360.785L376.602 360.575L370.512 360.505L364.912 359.035L361.972 358.615L359.802 358.895L360.152 360.505L360.992 361.625L364.142 362.395L370.372 365.545L372.332 367.505L373.872 372.055L374.992 377.725L375.762 379.755L377.512 381.785L380.312 383.745L379.612 390.955L368.622 387.595H361.272L355.882 388.295L350.842 390.745L338.872 401.385L337.122 402.505L336.422 402.715L335.092 402.855L327.252 403.975L324.242 405.165L320.812 406.915L321.302 409.225L322.842 411.535L337.892 426.865L348.462 434.775L351.542 437.435L358.262 443.875L358.192 445.345L357.842 447.585L356.722 448.985L355.602 450.035L349.652 453.325L348.042 454.655L347.202 455.145L346.152 455.565L342.092 456.195L341.322 456.475L339.432 457.735L338.942 457.875L337.612 458.015L336.562 458.505L335.372 459.415L333.552 461.445L323.542 476.215L322.632 477.825L322.562 480.275L322.212 482.375L321.302 485.105L314.512 499.735L313.882 501.555L313.742 502.815V503.795L313.812 504.425L314.092 504.985L314.162 506.105L313.882 507.715L311.362 514.365L311.152 515.275L310.662 518.915L310.242 520.525L309.822 521.575L306.182 526.615L304.012 530.395L303.522 531.515L303.312 532.285L302.542 538.865L301.702 541.455L299.812 546.075L295.682 553.775L294.002 557.765L293.512 558.535L292.252 557.485L286.232 552.165L280.142 546.915L274.122 541.595L268.662 536.905L263.272 532.215L257.882 527.525L252.492 522.835L248.222 519.195L242.552 515.765L236.952 512.405L231.282 509.115L225.682 505.755L220.082 502.395L214.482 499.035L208.882 495.745L203.282 492.385L197.682 489.025L192.082 485.665L186.482 482.305L180.812 478.945L175.212 475.585L169.612 472.225L164.012 468.865L158.412 465.505L152.812 462.145L146.232 458.225L142.662 456.125L139.232 454.795L117.392 450.525L112.282 449.685L99.6119 447.515L86.9419 445.345L74.3419 443.175L61.6719 441.005H61.5319L61.3219 441.075L61.1119 441.145L60.9719 441.215V440.655L68.6019 434.075L70.2819 431.695L68.9519 426.585L67.9719 424.275L66.6419 423.505L54.5319 426.865L53.9019 426.445L53.4119 425.325L50.3319 414.475L50.2619 414.335L50.1919 414.195H50.2619L50.3319 414.125L55.2319 412.585L50.9619 396.695L47.9519 385.565L45.0119 374.715L42.8419 366.665L40.1819 356.865L37.1719 345.945L44.2419 341.675L51.3119 337.405L58.3819 333.205L65.4519 328.935L72.5219 324.665L79.5919 320.395L86.6619 316.195L93.7319 311.925L100.802 307.655L107.872 303.385L114.942 299.115L122.012 294.845L126.632 292.045L129.082 290.575L136.152 286.305L143.222 281.965L150.292 277.695L159.672 272.025L175.422 267.825L177.242 266.565L178.712 264.535L181.022 259.425L192.012 238.075L192.572 236.185L192.712 234.155L192.152 220.505L191.802 207.625Z" fill="#F6F6F6" stroke="#BBBBBB" stroke-width="0.35" stroke-linecap="round" stroke-linejoin="round"/>
<path d="M360.082 613.063L356.932 610.543L349.652 604.593L342.302 598.643L334.952 592.623L327.672 586.673L322.002 582.053L316.402 577.503L310.732 572.883L305.132 568.263L298.342 562.733L293.512 558.533L294.002 557.763L295.682 553.773L299.812 546.073L301.702 541.453L302.542 538.863L303.312 532.283L303.522 531.513L304.012 530.393L306.182 526.613L309.822 521.573L310.242 520.523L310.662 518.913L311.152 515.273L311.362 514.363L313.882 507.713L314.162 506.103L314.092 504.983L313.812 504.423L313.742 503.793V502.813L313.882 501.553L314.512 499.733L321.302 485.103L322.212 482.373L322.562 480.273L322.632 477.823L323.542 476.213L333.552 461.443L335.372 459.413L336.562 458.503L337.612 458.013L338.942 457.873L339.432 457.733L341.322 456.473L342.092 456.193L346.152 455.563L347.202 455.143L348.042 454.653L349.652 453.323L355.602 450.033L356.722 448.983L357.842 447.583L358.192 445.343L358.262 443.873L351.542 437.433L381.292 428.823L387.312 427.003L388.922 426.793L389.692 427.423L390.252 427.773L390.532 427.353L390.882 426.513L390.952 426.093L391.722 424.133L392.632 427.773L393.052 428.543L393.472 428.893L393.192 430.223L391.652 431.063L391.162 431.833L391.302 432.673L391.792 434.073L392.982 436.033L393.402 436.523L393.892 437.223L394.242 437.853L395.222 439.183L397.462 437.013L398.792 436.103H399.072L399.632 436.033H400.122L403.272 433.793L405.022 434.703L406.422 435.963L408.312 437.013L411.602 438.063L410.622 441.143L410.412 441.423L410.132 441.773H409.852L409.432 441.843L408.802 442.263L408.662 442.683V443.103L408.872 443.593L409.152 444.083L409.572 444.433L410.132 444.923L410.552 445.413L410.482 445.763L410.202 445.973L408.312 446.673L406.002 448.213L404.742 448.773L404.252 449.473L403.692 451.363L403.272 453.673L405.372 464.383L405.092 466.833V471.523L405.932 477.193L404.672 478.943L403.622 478.313L401.872 477.613L400.472 477.963L399.072 479.573L398.722 481.323L400.122 483.843L404.322 488.813L405.512 489.583L417.762 494.693L412.932 521.013L411.392 524.583L408.382 530.043L405.372 532.703L402.922 535.643L399.772 540.543L399.352 540.823L395.502 542.503L392.352 544.813L391.302 545.793L388.712 549.223L386.402 553.773L374.922 587.023L360.852 611.663L360.082 613.063Z" fill="#F6F6F6" stroke="#BBBBBB" stroke-width="0.35" stroke-linecap="round" stroke-linejoin="round"/>
<path d="M267.54 56.9844L267.96 58.7344L268.87 60.6244L269.92 62.3044L272.37 64.7544L273.49 65.5944L274.61 65.5244L275.87 64.1244V65.3144L275.59 66.9244L275.66 68.2544L276.71 68.4644L276.22 70.2144L276.36 70.9844L276.92 71.5444L277.62 72.8744L275.94 73.0144L275.66 73.8544L276.36 74.4844L277.62 73.9944L279.58 75.0444L280.7 75.8144L281.54 78.2644L282.59 78.8244H285.25L285.6 78.6844L285.88 78.3344L286.23 77.9844L286.79 77.8444L287.56 77.9844L288.12 78.4044L290.08 80.5744L291.2 81.6244L291.83 81.9044L292.32 81.9744L292.81 82.1144L293.37 82.7444L291.97 83.3044L291.34 83.7244L291.2 84.3544L291.62 84.9844H292.32L294.56 83.8644H295.05L296.03 84.3544L296.45 84.7744L296.8 85.2644L297.36 86.5244L297.85 85.5444L298.48 85.1244L299.25 84.9844L300.16 84.9144L300.93 85.1244L306.18 82.1844L314.51 81.0644L317.1 80.7844L319.27 79.7344L320.18 79.0344L320.46 77.7744L321.09 76.3744L321.65 74.5544L323.54 71.4044L325.5 69.0244L325.92 68.2544L326.83 67.5544L327.88 67.2044L330.33 67.4844L331.24 67.9744L332.29 68.8144L333.13 69.7244L335.09 71.1244L336.21 72.1744L338.24 73.1544L347.48 75.6744L348.39 75.8844L348.88 75.8144L349.02 75.4644L349.09 75.1144V74.6244L349.23 74.2044L349.44 73.9244L349.86 73.7144L350.49 73.5744L351.54 73.9244L351.75 74.0644H352.03L352.24 73.8544L352.52 72.9444L352.59 72.4544V72.0344L352.52 71.7544V71.5444L352.45 71.1244V70.9144V70.7044V70.4944L352.38 70.2144L352.24 69.7244L352.31 69.5844L352.66 69.4444L352.94 69.2344L353.22 68.8844L353.78 67.7644L353.92 67.4144V66.9944L353.85 66.6444L353.78 66.2244L353.64 65.8744L353.43 65.5944L353.08 65.4544L352.66 65.3844L351.61 65.0344L351.05 64.7544L350.56 64.6144H349.65L349.3 64.4744L348.95 64.3344L348.32 63.8444L348.18 63.5644L348.04 63.3544V63.1444L347.83 62.7944V62.5144V62.2344V61.9544L348.04 61.3244L348.25 60.6944L348.32 60.0644V59.7844L348.39 59.5044L348.67 58.8744L348.88 58.5944L349.16 58.3144L349.37 58.1044L349.58 58.0344L349.86 58.1044L350.14 58.1744L351.33 58.8044L352.03 59.0144L356.51 59.7844L358.33 60.5544L360.29 61.0444L364.35 63.2144L365.82 63.5644L366.24 63.4944L366.59 63.5644L366.94 63.8444L368.34 65.2444L369.6 66.0144L370.51 66.7144L371.35 67.1344L371.7 67.4844L372.05 67.9744L372.12 68.3244L372.33 68.7444L372.61 69.2344L372.54 69.4444L372.4 69.5844L372.12 69.6544L371.98 69.7944V69.9344L372.12 70.0744L373.17 70.0044H373.38L373.66 70.0744L373.94 70.2844L374.36 70.9144V71.2644L374.29 71.6144L374.22 71.8244L374.29 72.0344L374.78 72.8744L375.06 73.0844L375.55 73.0144L375.83 72.9444L376.11 72.8744L376.67 73.0144L378.63 73.2244L378.84 73.2944L379.12 73.5044L379.33 73.9244L379.61 74.2744L380.1 74.6244L386.12 77.2144L387.17 78.1244L387.73 78.4044L388.08 78.7544L388.22 79.1044L388.29 79.7344V80.1544L388.99 80.7844L389.2 81.4144L389.55 82.3244L389.76 82.3944L389.9 82.3244L390.04 82.1844L390.18 82.1144H390.32L390.46 82.2544L390.6 82.4644L390.67 82.8144L390.6 83.1644L390.32 83.8644L388.01 86.9444L386.19 88.5544L385.21 90.1644L384.09 90.5144L383.6 90.8644L381.85 92.4044L380.8 93.1044L379.96 93.8044L379.26 93.9444L379.05 93.8044L378.98 93.5944V93.3844L378.91 93.2444L378.63 93.1044L378.28 92.9644H377.93L377.65 93.1044L376.95 93.3844H376.74H376.53L376.25 93.4544L376.11 93.6644L376.04 94.0844L375.97 94.3644L375.9 94.6444L375.69 94.7844L375.27 94.6444L375.06 94.4344L374.99 94.0844L375.06 93.8044L375.2 93.5244L375.27 93.2444V93.0344L375.13 92.9644H374.85L374.5 93.0344L374.15 93.1044L373.87 93.1744L373.59 93.1044L373.31 92.9644L373.1 92.7544L373.03 92.5444L372.96 92.2644L372.82 92.0544L372.68 91.9844L372.54 92.1244V92.5444L372.61 92.8244L372.82 93.2444L372.75 93.3844L372.47 93.4544L372.26 93.3844L372.12 93.2444L371.77 93.3844L371.21 93.8744L369.6 95.6944L369.32 96.3944L369.18 96.6744L368.9 97.0944L368.27 97.5844L367.85 98.2144L366.94 98.8444L366.52 98.9844L366.24 98.9144L366.03 98.6344L365.82 98.4244L365.61 98.2144L365.47 98.2844L365.26 98.4944L365.19 99.0544L365.26 100.034L365.12 100.524L364.84 100.944L364.28 101.154L363.86 101.224L362.25 101.014L361.97 101.154L361.83 101.504V102.274L361.97 102.624L362.11 102.904L362.25 103.184V103.464V103.814L362.18 104.234L361.97 104.584L361.34 105.074L360.85 105.354L360.36 105.494H359.94L359.24 105.354L358.96 105.424L358.82 105.634L358.75 105.914L359.03 106.614L359.17 107.384L359.24 108.504L358.75 110.114L357.63 112.004L354.97 115.224L353.92 116.134L352.8 116.904L352.24 117.184L351.33 118.234L349.93 118.864L349.44 119.354L348.88 120.054L348.18 121.314L347.55 122.084L345.59 123.974L345.24 124.464L344.89 125.374L344.12 126.914L342.93 127.894L342.37 127.964L342.16 128.174L341.81 128.874L341.67 129.434L341.53 129.994L340.13 132.514L339.99 133.214V133.704L340.06 135.314L339.99 135.664L339.78 136.084L338.94 137.414L338.24 138.114L329.91 141.544L329.42 142.384L329.77 144.344L330.47 145.044L331.52 145.184L332.36 145.254L332.57 145.814V147.284L332.01 152.744L331.31 154.284L330.82 154.774L330.33 154.914H329.91L329.49 155.124L329.21 155.614L327.81 158.834L327.53 159.744L327.6 160.374L327.67 160.864L328.72 163.314L328.09 163.874L327.95 164.504L327.74 165.624L327.11 165.974L326.27 166.044L325.36 166.324L324.87 166.954L323.89 168.634L322.98 169.334L321.72 169.754L320.53 170.594L316.33 172.344L308.56 177.664L307.51 177.734L306.95 177.944L306.32 178.294L304.85 179.554L304.08 180.114L302.26 180.954H302.05H301.84H301.77L301.63 181.024L301.49 181.094L301.28 181.024H301.07H300.86L300.65 181.094L300.44 181.374L300.23 181.654L300.02 182.144L299.81 182.284L299.67 182.424V182.564L300.23 183.404L300.86 184.944L301 185.504L300.93 185.994L300.58 186.624L300.3 187.044L300.16 187.254L300.02 188.304V188.864L300.16 189.424L300.51 189.984V190.964L300.65 191.524L302.4 193.764L302.89 194.254L303.87 195.024L304.22 195.444L304.5 196.004L304.57 196.564L304.64 197.194L305.34 199.224L305.48 199.364L305.69 199.434H305.83L305.9 199.364H306.04L306.11 199.574L306.04 199.924L305.76 200.554L305.69 201.044V201.534L305.48 202.864V203.424L305.55 203.634L305.62 203.774H305.69L305.83 203.704L305.97 203.774L306.32 203.844L306.53 204.404L307.02 205.314L307.09 205.804L307.23 205.944L307.37 206.014L307.58 206.084L307.65 206.154V206.434L307.72 206.574H307.86H308.07L308.14 206.714L308.07 206.924L307.93 207.064L308 207.204L308.07 207.274L308.35 207.344H308.56H308.77L308.98 207.414L309.19 207.344L309.26 207.484L309.47 208.184L309.54 208.394V208.604L309.68 209.094L309.75 209.374L309.68 209.724L309.33 210.634V210.774L309.61 211.194L309.75 211.544L309.61 212.034L308.98 212.454L306.6 212.804L283.78 212.944L276.43 214.554L274.82 222.184L260.89 224.074L258.93 223.234L256.69 222.184L255.57 221.904L246.54 223.094L242.41 222.814L233.94 219.524L216.44 212.244L212.17 211.544L201.39 208.464L193.13 207.694L191.8 207.624L191.73 205.804L192.36 201.044L195.02 191.384L195.58 183.684L196.14 181.374H196.21L199.22 176.824L201.39 173.534L202.37 171.154L202.72 168.704L202.44 157.854L202.16 155.264L201.46 152.744L196.49 141.964L194.88 138.114L194.6 136.714V135.384L196.7 115.504L197.19 113.404L202.86 102.344L204.12 100.524L206.01 99.6844L210.14 98.9844L230.02 94.7844L231.77 93.9444L233.45 92.4744L242.06 83.2344L254.8 69.5144L261.45 62.4444L265.51 58.5244L267.54 56.9844Z" fill="#F6F6F6" stroke="#BBBBBB" stroke-width="0.35" stroke-linecap="round" stroke-linejoin="round"/>
<path d="M328.72 163.312L328.3 165.482L328.16 165.832L327.95 166.323L328.02 166.602L328.16 166.812L328.44 167.162L328.79 167.652L329.07 168.423L329.35 169.402L329.21 170.032L329.07 170.523L329.14 170.802L329.28 171.012L329.56 171.152L329.91 171.223L330.19 171.432L330.61 171.852L331.1 172.762L331.31 173.952L331.59 180.043V180.812L331.52 181.302L331.24 182.352L331.17 183.332L331.1 183.752L330.96 183.962L330.75 184.032L330.26 184.173L329.07 184.802L328.02 186.623H327.46L327.11 186.482L326.69 185.923V185.573V185.223L326.41 184.802L326.34 184.593L326.27 184.312L326.13 184.032L325.85 183.823L324.87 183.543L324.45 184.662L324.73 185.432V185.852L324.52 186.343L324.45 187.112L324.59 187.812L324.87 188.232L325.22 188.512L325.36 188.652L325.64 189.282L327.25 191.102L327.95 191.732L329.77 192.432L330.68 193.062L331.1 194.043L331.03 194.252L330.82 194.393L330.61 194.462L330.4 194.602L330.19 195.093L330.33 195.373L330.54 195.652L330.61 196.002L330.4 197.123L330.19 197.612L329.77 198.102L333.06 198.662L334.39 199.293L334.11 200.762L333.62 201.182L332.85 201.393L332.22 201.812L331.94 202.652L332.22 203.352L332.78 204.332L333.41 205.243L333.9 205.593L338.1 210.143L338.94 211.402L340.62 212.173L341.81 213.012L342.37 213.923L343.84 214.972L348.81 217.212L361.55 224.912L365.75 227.432L370.23 229.112L375.69 231.562L379.54 233.943L384.86 239.332L389.76 243.043L390.39 243.252H391.37L392.77 241.502L393.05 241.082V240.872L392.35 240.802L392.14 240.732L392 240.593V240.382L392.14 240.032V239.893L391.86 239.332L391.79 239.052L392 238.212L392.07 237.793V237.022L392.14 236.743L392.35 236.393L393.12 235.693L393.47 235.202L393.68 234.782L393.89 234.012L394.94 232.612L395.64 232.193L395.92 231.912L395.99 231.632V231.423L396.06 231.212L396.41 230.793V230.512L396.34 230.232L396.41 230.093V229.882L396.69 229.323L396.9 228.902V228.693V228.482V228.343L396.97 228.132L397.04 227.502L398.02 225.962L399.42 224.562L400.82 222.532L401.31 222.043L402.08 221.552L403.06 221.062L404.81 219.732L405.44 218.823V217.632L404.18 214.552L404.11 213.502L404.46 212.102L404.95 211.262L405.58 210.493L406.07 210.143L406.42 210.002L407.26 209.932L413.7 216.793L414.75 217.282L416.15 217.632L417.27 217.282L424.27 217.562L426.65 217.982L432.18 221.832L432.95 222.812L433.09 223.162L433.16 223.443L433.09 223.793L432.88 224.843L433.09 230.372L430.01 233.173L427.91 234.223L426.3 234.923L425.53 235.482L425.11 236.112L425.04 236.602L425.11 237.162L425.18 237.793L424.9 238.632L424.06 240.102L422.8 241.362L421.89 242.062L421.12 242.412L419.3 242.973L418.04 243.743L417.41 244.302L417.13 244.793V245.212L417.2 245.702L417.48 246.193L417.83 246.682L418.04 247.593L417.9 248.712L416.92 250.882L416.08 252.002L415.17 252.843L414.12 253.543L413.07 254.522L412.37 255.362L411.95 256.132L411.6 257.043L411.39 257.112L411.11 256.902L408.73 254.732L408.03 254.312L407.47 254.032L406.49 253.823L405.23 253.262L404.67 252.982L404.39 253.122L403.69 254.102L403.55 254.522L403.48 254.802L403.41 255.502L404.39 258.022V258.443L404.18 259.073L403.41 259.772L403.34 259.982L403.41 260.052H403.62L403.83 260.122L404.11 260.402L404.39 261.032L404.32 261.312L404.11 261.522L403.48 261.662L403.2 261.732L402.92 261.802L402.64 262.012L402.36 262.502V262.782V262.923L402.5 262.852L402.64 262.712L402.78 262.643L402.99 262.782V262.993L402.85 263.202L402.57 263.552V263.762L402.71 263.902L402.92 263.973L403.13 263.902L403.48 263.693H403.69L403.9 263.832L403.83 264.043L403.76 264.323L403.48 265.022L403.34 265.232L402.92 265.723L402.99 266.002L403.13 266.352L403.34 267.122V267.752L402.92 269.223L402.29 270.622L401.8 271.393V271.743L401.94 272.162L402.29 272.652L402.92 273.352L403.41 273.772L403.83 273.982L404.6 274.893L403.69 275.522L403.9 277.062L403.83 277.343L403.62 277.552L403.27 277.622L402.78 277.973L402.71 278.393V279.793L402.57 280.143L402.36 280.212L402.22 280.073L401.87 279.652L401.66 279.582L401.38 279.723L401.1 279.932L400.89 280.073L400.68 280.143H399.98L399.35 280.352L399.14 280.562L397.81 282.522L397.53 283.082L397.39 283.712L397.25 283.923L397.04 284.062H396.83L396.69 283.923V283.852L396.83 283.432V283.223L396.69 283.082L396.34 283.152L396.13 283.432L395.85 283.852L395.71 284.343L395.43 284.552L395.15 284.693L394.38 284.622L393.75 284.762L393.54 284.902V285.112L393.68 285.323L393.82 285.602L393.89 287.423L393.82 287.632L393.68 287.772H392.91L392.42 287.912L392.14 288.122L392 288.402L392.07 288.682L392.56 289.522L392.63 289.802V290.082L392.49 290.573L392.21 290.852L390.88 291.832L390.74 292.043L391.09 292.602L391.16 292.952L390.74 294.212L390.53 295.193L389.83 296.243V296.592V297.223L390.04 297.432L390.32 297.503L390.81 297.432L391.3 297.293L393.05 297.082L394.73 297.362L395.15 297.503L395.71 297.782L398.65 300.443L399.42 301.423L399.91 302.612L400.12 304.082L400.05 305.552L399.7 306.882L397.53 310.312L396.34 313.602L396.2 314.302V315.003L396.34 315.702L396.69 316.332L397.11 316.893L398.37 318.223L398.51 318.503V318.852L397.67 320.253L397.39 320.812L396.41 325.012L397.18 326.762L396.97 328.652L396.41 330.612L393.89 332.923L392.84 333.693L391.3 335.092L390.39 336.282L386.96 341.182L382.27 340.902L380.1 339.432L377.72 338.662L379.82 336.982L379.19 336.282L377.79 333.902L375.83 328.862L374.64 326.693L373.59 325.572L371.42 323.543L369.46 322.982L358.75 323.193L352.94 321.302L345.1 318.152L338.24 316.962L334.81 315.702L326.06 308.003L315.77 297.643L311.43 291.832L308.07 283.643L307.44 279.512L306.46 275.382L304.78 273.073L304.29 270.762L304.01 265.932L302.82 259.282L295.19 263.622L293.09 263.343L290.36 261.802L277.9 251.582L275.38 240.312L275.31 223.302L274.82 222.182L276.43 214.552L283.78 212.943L306.6 212.802L308.98 212.452L309.61 212.032L309.75 211.543L309.61 211.193L309.33 210.773V210.632L309.68 209.722L309.75 209.373L309.68 209.093L309.54 208.602V208.393L309.47 208.182L309.26 207.482L309.19 207.343L308.98 207.412L308.77 207.343H308.56H308.35L308.07 207.273L308 207.202L307.93 207.062L308.07 206.923L308.14 206.712L308.07 206.573H307.86H307.72L307.65 206.432V206.152L307.58 206.082L307.37 206.012L307.23 205.943L307.09 205.802L307.02 205.312L306.53 204.402L306.32 203.843L305.97 203.773L305.83 203.702L305.69 203.773H305.62L305.55 203.632L305.48 203.423V202.862L305.69 201.532V201.043L305.76 200.552L306.04 199.923L306.11 199.573L306.04 199.362H305.9L305.83 199.432H305.69L305.48 199.362L305.34 199.222L304.64 197.193L304.57 196.562L304.5 196.002L304.22 195.443L303.87 195.023L302.89 194.252L302.4 193.762L300.65 191.523L300.51 190.962V189.982L300.16 189.423L300.02 188.862V188.302L300.16 187.252L300.3 187.043L300.58 186.623L300.93 185.993L301 185.502L300.86 184.943L300.23 183.402L299.67 182.562V182.423L299.81 182.282L300.02 182.143L300.23 181.652L300.44 181.373L300.65 181.093L300.86 181.023H301.07H301.28L301.49 181.093L301.63 181.023L301.77 180.952H301.84H302.05H302.26L304.08 180.112L304.85 179.552L306.32 178.292L306.95 177.942L307.51 177.732L308.56 177.662L316.33 172.342L320.53 170.592L321.72 169.752L322.98 169.332L323.89 168.632L324.87 166.952L325.36 166.323L326.27 166.042L327.11 165.973L327.74 165.623L327.95 164.502L328.09 163.873L328.72 163.312Z" fill="#F6F6F6" stroke="#BBBBBB" stroke-width="0.35" stroke-linecap="round" stroke-linejoin="round"/>
<path d="M330.263 184.17L333.133 185.99L333.763 186.34L335.093 186.69H335.793L336.423 186.55L337.683 185.43L338.663 185.15L341.393 185.01L342.653 184.8L343.703 184.24L344.263 183.26L344.963 181.02L345.593 180.18L346.503 179.76L347.903 179.83L350.003 179.62L352.103 178.36L353.503 178.22L354.133 177.94L354.763 177.1L355.463 174.79L355.813 172.83L356.233 171.92L357.213 170.66L358.053 169.89L358.613 169.19V168.35L358.333 167.58L357.983 166.88L356.583 165.27L356.163 164.92L356.093 164.43L356.513 163.73L360.433 160.44L365.053 155.4L365.683 153.65L366.663 153.51L368.133 154L374.853 158.9L377.233 158.76L378.633 158.55L379.193 158.13L379.753 157.01L380.663 154.49L382.133 153.93L383.253 153.72L386.753 154.35L388.153 154.63L389.343 155.26L389.693 155.33H390.253L390.883 155.12L391.793 154.63L392.143 154.35L392.493 153.79H392.703L393.473 154.21L393.893 154.35L394.873 154.49L395.153 154.63L395.363 154.7L395.573 154.63L395.923 153.93L396.133 153.79L397.323 153.3L397.673 153.09L397.953 152.81L398.303 152.53L398.723 152.46L399.563 152.6H400.123L401.453 151.83L402.853 152.25L403.063 152.46L403.273 152.6L403.553 152.53L404.113 152.25L404.463 152.11L404.953 152.25L405.233 152.53L405.583 153.16L405.863 153.3H406.073L406.213 152.88L406.143 152.67L406.073 152.39L406.003 152.11L406.073 151.9L406.283 151.69L406.563 151.62L407.263 152.04L407.473 152.11L407.823 151.76L408.103 151.41L408.453 150.99L409.013 150.57L409.223 150.22L409.433 149.59L409.643 149.31L409.923 149.1L410.623 148.75L410.833 148.82L411.043 149.1V149.87L411.393 150.5L414.963 158.34L416.573 160.09L418.043 162.12L420.983 164.71L421.543 166.32L421.613 167.65L420.493 169.54L420.213 170.38L420.073 172.41L419.863 173.32L419.653 176.12L419.443 178.43L419.583 179.2L420.003 179.97L421.403 181.51L422.593 183.19L422.663 184.1L422.313 185.22L421.683 186.55L419.373 189.7L418.883 191.24L419.023 192.36L419.443 193.69L419.723 194.88L419.443 196.07L418.743 197.75L418.533 198.8L418.393 199.29L418.183 199.64L417.693 199.78L417.063 200.13L416.293 200.62L415.663 201.6L415.383 202.37V203L415.453 203.56L415.943 204.68L415.733 205.31L415.033 206.01L410.063 207.55L407.263 209.93L406.423 210L406.073 210.14L405.583 210.49L404.953 211.26L404.463 212.1L404.113 213.5L404.183 214.55L405.443 217.63V218.82L404.813 219.73L403.063 221.06L402.083 221.55L401.313 222.04L400.823 222.53L399.423 224.56L398.023 225.96L397.043 227.5L396.973 228.13L396.903 228.34V228.48V228.69V228.9L396.693 229.32L396.413 229.88V230.09L396.343 230.23L396.413 230.51V230.79L396.063 231.21L395.993 231.42V231.63L395.923 231.91L395.643 232.19L394.943 232.61L393.893 234.01L393.683 234.78L393.473 235.2L393.123 235.69L392.353 236.39L392.143 236.74L392.073 237.02V237.79L392.003 238.21L391.793 239.05L391.863 239.33L392.143 239.89V240.03L392.003 240.38V240.59L392.143 240.73L392.353 240.8L393.053 240.87V241.08L392.773 241.5L391.373 243.25H390.393L389.763 243.04L384.863 239.33L379.543 233.94L375.693 231.56L370.233 229.11L365.753 227.43L361.553 224.91L348.813 217.21L343.843 214.97L342.373 213.92L341.813 213.01L340.623 212.17L338.943 211.4L338.103 210.14L333.903 205.59L333.413 205.24L332.783 204.33L332.223 203.35L331.943 202.65L332.223 201.81L332.853 201.39L333.623 201.18L334.113 200.76L334.393 199.29L333.063 198.66L329.773 198.1L330.193 197.61L330.403 197.12L330.613 196L330.543 195.65L330.333 195.37L330.193 195.09L330.403 194.6L330.613 194.46L330.823 194.39L331.033 194.25L331.103 194.04L330.683 193.06L329.773 192.43L327.953 191.73L327.253 191.1L325.643 189.28L325.363 188.65L325.223 188.51L324.873 188.23L324.593 187.81L324.453 187.11L324.523 186.34L324.733 185.85V185.43L324.453 184.66L324.873 183.54L325.853 183.82L326.133 184.03L326.273 184.31L326.343 184.59L326.413 184.8L326.693 185.22V185.57V185.92L327.113 186.48L327.463 186.62H328.023L329.073 184.8L330.263 184.17Z" fill="#F6F6F6" stroke="#BBBBBB" stroke-width="0.35" stroke-linecap="round" stroke-linejoin="round"/>
<path d="M389.062 345.38L392.422 344.47L393.262 341.81L393.682 341.25L394.032 341.32L398.582 341.53L399.282 341.67L400.542 342.37L402.922 344.47L404.952 342.93L405.162 343.14L405.372 343.49L405.512 344.33L405.652 345.03L406.002 346.08L406.072 346.36L406.002 346.43L405.932 346.64V347.55L405.582 348.32L405.652 350.56L405.722 352.87L405.582 353.43L405.372 353.92L405.092 354.13H404.882L404.812 353.92L405.022 353.64V353.01L404.532 354.2L404.672 354.83L404.952 355.39V355.67L404.882 356.02L404.462 356.51L404.322 356.65L403.692 357.56L403.552 360.85L392.982 360.36L391.302 359.87L390.532 359.73L389.692 359.87L388.922 359.03L387.242 357.98L386.472 357.21L385.842 355.95L385.492 354.34V352.73L385.772 351.26L386.542 349.79L388.572 347.62L389.132 346.15V345.73L389.062 345.38Z" fill="#F6F6F6" stroke="#BBBBBB" stroke-width="0.35" stroke-linecap="round" stroke-linejoin="round"/>
<path d="M403.551 360.849V361.759L404.321 363.369L405.511 366.309L406.001 368.199L406.211 369.809V372.819L405.861 373.869L404.741 374.499L405.231 376.739L405.441 384.439L405.861 386.329L406.281 387.519L406.701 387.939L407.051 388.219L407.401 388.359L416.431 388.989L416.921 389.059L420.981 391.439L424.201 392.419L426.511 392.699L427.071 392.839L427.421 393.469L429.521 394.309L431.131 395.219L432.041 395.989L432.951 396.969L433.301 397.739L436.031 406.839L438.551 412.509L439.671 413.909L440.931 415.169L441.911 415.869L443.031 416.219L446.811 416.359H447.651L447.791 418.739L447.931 420.349L447.021 420.279L446.461 420.419L445.551 420.769L442.681 422.519L441.911 423.079L441.141 424.059L440.721 424.479L435.191 428.119L431.061 429.799L428.261 431.969L426.441 433.719L425.951 433.999L425.601 433.789L424.831 433.089L424.481 432.739H424.131L423.641 432.949L423.011 433.579L422.661 434.279L422.451 434.769L422.591 435.119L422.801 435.469L423.361 435.889L423.431 436.589L423.361 437.149L423.081 437.569L422.801 437.849L421.821 438.409L421.401 438.759L420.211 440.229L419.791 440.649L419.231 440.929L418.601 441.139H417.901L417.061 440.859L413.491 438.689L411.601 438.059L408.311 437.009L406.421 435.959L405.021 434.699L403.271 433.789L400.121 436.029H399.631L399.071 436.099H398.791L397.461 437.009L395.221 439.179L394.241 437.849L393.891 437.219L393.401 436.519L392.981 436.029L391.791 434.069L391.301 432.669L391.161 431.829L391.651 431.059L393.191 430.219L393.471 428.889L393.051 428.539L392.631 427.769L391.721 424.129L391.511 423.359L390.181 420.699L389.691 419.159L390.041 417.899L390.671 416.359L390.181 414.889L386.611 409.569L385.561 406.979L385.421 404.179L387.661 395.919L388.221 395.289V394.449V393.959L387.941 393.399L386.401 391.789L385.911 391.439L385.561 391.299H385.281L384.931 391.439L384.231 391.859L383.951 391.929L383.601 391.859L381.361 391.229L379.611 390.949L380.311 383.739L377.511 381.779L375.761 379.749L374.991 377.719L373.871 372.049L372.331 367.499L370.371 365.539L364.141 362.389L360.991 361.619L360.151 360.499L359.801 358.889L361.971 358.609L364.911 359.029L370.511 360.499L376.601 360.569L378.141 360.779L379.751 361.269L383.811 363.649L385.281 364.069L386.611 363.719L387.731 362.529L389.691 359.869L390.531 359.729L391.301 359.869L392.981 360.359L403.551 360.849Z" fill="#F6F6F6" stroke="#BBBBBB" stroke-width="0.35" stroke-linecap="round" stroke-linejoin="round"/>
<path d="M485.453 476.351L484.963 476.911L483.563 477.401H480.833L469.493 473.691L453.883 470.611L449.333 470.471L448.633 471.591L438.343 474.111L436.803 474.251L437.573 475.021L438.203 475.371L439.323 475.791L439.743 476.071L440.163 476.701L440.443 477.611L440.863 478.311L442.263 479.011L442.193 480.131L441.213 482.791L439.183 486.711L435.193 497.701L433.863 505.471L428.683 502.741L417.763 494.691L405.513 489.581L404.323 488.811L400.123 483.841L398.723 481.321L399.073 479.571L400.473 477.961L401.873 477.611L403.623 478.311L404.673 478.941L405.933 477.191L405.093 471.521V466.831L405.373 464.381L403.273 453.671L403.693 451.361L404.253 449.471L404.743 448.771L406.003 448.211L408.313 446.671L410.203 445.971L410.483 445.761L410.553 445.411L410.133 444.921L409.573 444.431L409.153 444.081L408.873 443.591L408.663 443.101V442.681L408.803 442.261L409.433 441.841L409.853 441.771H410.133L410.413 441.421L410.623 441.141L411.603 438.061L413.493 438.691L417.063 440.861L417.903 441.141H418.603L419.233 440.931L419.793 440.651L420.213 440.231L421.403 438.761L421.823 438.411L422.803 437.851L423.083 437.571L423.363 437.151L423.433 436.591L423.363 435.891L422.803 435.471L422.593 435.121L422.453 434.771L422.663 434.281L423.013 433.581L423.643 432.951L424.133 432.741H424.483L424.833 433.091L425.603 433.791L425.953 434.001L426.443 433.721L428.263 431.971L431.063 429.801L435.193 428.121L440.723 424.481L441.143 424.061L441.913 423.081L442.683 422.521L445.553 420.771L446.463 420.421L447.023 420.281L447.933 420.351L451.643 420.841L452.063 422.031L453.673 422.731L458.153 423.291L458.923 424.411L460.323 424.831L460.533 425.461L460.393 426.161L459.553 428.191L459.413 429.241L459.763 430.431L460.743 431.551L467.113 437.571L468.233 439.111L469.003 440.511L469.633 441.491L470.683 442.121L474.673 443.591L479.083 444.921L479.293 445.831L478.873 446.251L478.593 446.601L478.663 447.091L481.673 454.091L481.183 455.911L481.113 456.961L481.183 458.571L483.703 466.411L485.453 476.351Z" fill="#F6F6F6" stroke="#BBBBBB" stroke-width="0.35" stroke-linecap="round" stroke-linejoin="round"/>
<path d="M571.2 515.41L571.76 521.64L570.92 537.11L569.31 545.58L568.89 547.68L568.82 549.36L569.17 554.75L568.75 556.85L566.86 557.2L557.97 555.59L556.78 555.52L535.92 561.26L533.82 561.75H532.98L532.14 561.12L531.44 560.14L528.78 554.68L522.9 544.95L512.68 541.31L481.25 537.25L480.41 526.82L480.76 525.21L481.04 522.97L481.39 521.57L481.67 519.68L482.16 518.7L483.14 518.56L484.4 519.05L485.24 518.91L485.66 518.14L486.01 515.83L486.08 514.5L485.87 513.8L485.52 513.59L485.03 513.31L484.26 512.75L483.98 512.47L482.79 511.98L482.58 511.14L483.35 508.76L486.99 500.01L483.49 499.87L481.67 499.59L481.53 498.54L482.23 497.14L486.64 491.61L486.85 490.77L486.78 489.72L486.36 487.48L486.01 486.57L485.66 486.08L485.24 486.01L484.96 485.87L484.68 485.45V484.75L485.1 483.14L485.38 482.58L485.8 482.3L486.15 482.44L486.5 482.65L487.13 483.14L487.41 483.21L487.62 483.14L487.76 482.72L487.83 482.23L487.76 481.18V480.13L487.83 479.78L487.48 478.66L485.45 476.35L483.7 466.41L481.18 458.57L481.11 456.96L481.18 455.91L481.67 454.09L488.04 454.44L491.96 452.83H492.31L492.59 453.11L492.87 453.04L493.15 452.9L493.43 452.62L493.57 452.55L493.71 452.62L493.92 452.76L494.2 453.04L494.55 452.97L496.72 451.29L497.28 451.08L497.84 451.15L498.4 451.36L499.45 451.57L499.87 451.5L500.15 451.36L500.43 450.8L500.71 450.52L502.88 449.75H519.47L520.87 451.15L521.71 452.2L521.78 452.83L520.73 453.11L519.68 453.74L519.05 455L520.73 458.57L525.7 466.76L525.56 468.58L525.35 469.56L526.82 473.34L529.34 476.21L531.3 477.33L531.72 477.75L533.68 480.97L534.73 482.02L536.83 483.77L537.46 484.61L537.95 485.8L538.16 486.92L537.88 488.46L537.53 489.37L536.9 490.77L536.83 491.75V492.45L537.88 495.53L543.55 499.1L544.32 499.66L545.09 500.43L545.86 501.48L546.28 502.25L546.49 502.95L546.56 503.58L546.49 504.42L546.21 507.08V507.85L546.28 508.62L546.42 509.18L546.63 509.74L547.12 510.3L549.85 512.54L550.76 513.45L553.28 514.71L560 514.64L571.2 515.41Z" fill="#F6F6F6" stroke="#BBBBBB" stroke-width="0.35" stroke-linecap="round" stroke-linejoin="round"/>
<path d="M351.543 437.434L348.462 434.774L337.893 426.864L322.843 411.534L321.303 409.224L320.812 406.914L324.243 405.164L327.253 403.974L335.093 402.854L336.423 402.714L337.123 402.504L338.873 401.384L350.843 390.744L355.883 388.294L361.272 387.594H368.622L379.612 390.954L381.362 391.234L383.603 391.864L383.953 391.934L384.233 391.864L384.933 391.444L385.283 391.304H385.562L385.912 391.444L386.403 391.794L387.943 393.404L388.222 393.964V394.454V395.294L387.662 395.924L385.422 404.184L385.562 406.984L386.612 409.574L390.183 414.894L390.672 416.364L390.043 417.904L389.693 419.164L390.183 420.704L391.512 423.364L391.722 424.134L390.953 426.094L390.883 426.514L390.533 427.354L390.253 427.774L389.693 427.424L388.922 426.794L387.312 427.004L381.293 428.824L351.543 437.434Z" fill="#F6F6F6" stroke="#BBBBBB" stroke-width="0.35" stroke-linecap="round" stroke-linejoin="round"/>
</svg>
